<svg width="1922" height="1334" viewBox="0 0 1922 1334" fill="none" xmlns="http://www.w3.org/2000/svg">
<path d="M0 0H1922V1012V1333L1563.83 1037.6C1543.77 1021.05 1518.57 1012 1492.57 1012H430.448C404.432 1012 379.228 1021.06 359.162 1037.62L0 1334V0Z" fill="#003E9C"/>
<path d="M1054.17 219.246V156" stroke="#E6E6E6" stroke-width="2" stroke-miterlimit="10"/>
<path d="M1093.27 256.902L1090.13 263.816H1018.22L1015.09 256.902L1045.71 235.733H1062.66L1093.27 256.902Z" fill="#EBEBEB"/>
<path d="M1064.78 215.325L1062.66 235.733H1045.71L1043.57 215.325H1064.78Z" fill="#DBDBDB"/>
<path d="M1093.27 256.916L1090.13 263.816H1018.22L1015.09 256.916H1093.27Z" fill="#DBDBDB"/>
<path d="M1210.59 219.246V156" stroke="#E6E6E6" stroke-width="2" stroke-miterlimit="10"/>
<path d="M1249.67 256.902L1246.53 263.816H1174.63L1171.49 256.902L1202.11 235.733H1219.07L1249.67 256.902Z" fill="#EBEBEB"/>
<path d="M1221.19 215.325L1219.07 235.733H1202.11L1199.99 215.325H1221.19Z" fill="#DBDBDB"/>
<path d="M1249.67 256.916L1246.53 263.816H1174.63L1171.49 256.916H1249.67Z" fill="#DBDBDB"/>
<path d="M1366.99 219.246V156" stroke="#E6E6E6" stroke-width="2" stroke-miterlimit="10"/>
<path d="M1406.09 256.902L1402.94 263.816H1331.04L1327.91 256.902L1358.51 235.733H1375.48L1406.09 256.902Z" fill="#EBEBEB"/>
<path d="M1377.6 215.325L1375.48 235.733H1358.51L1356.39 215.325H1377.6Z" fill="#DBDBDB"/>
<path d="M1406.09 256.916L1402.94 263.816H1331.04L1327.9 256.916H1406.09Z" fill="#DBDBDB"/>
<path d="M1523.41 219.246V156" stroke="#E6E6E6" stroke-width="2" stroke-miterlimit="10"/>
<path d="M1562.49 256.902L1559.35 263.816H1487.45L1484.31 256.902L1514.93 235.733H1531.88L1562.49 256.902Z" fill="#EBEBEB"/>
<path d="M1534.01 215.325L1531.88 235.733H1514.93L1512.81 215.325H1534.01Z" fill="#DBDBDB"/>
<path d="M1562.49 256.916L1559.35 263.816H1487.45L1484.31 256.916H1562.49Z" fill="#DBDBDB"/>
<path d="M928 698.311L1039.11 698.071L1150.23 697.981L1372.46 697.811L1594.69 697.981L1705.8 698.071L1816.92 698.311L1705.8 698.561L1594.69 698.641L1372.46 698.811L1150.23 698.641L1039.11 698.551L928 698.311Z" fill="#2E3826"/>
<path d="M1703.15 462.853C1698.87 459.043 1695.68 453.889 1694.37 447.918C1692.86 441.004 1694.12 433.509 1697.83 427.344C1701.67 420.971 1707.62 416.62 1714.56 415.11L1752.47 406.825L1753.55 411.744L1715.64 420.029C1710.06 421.248 1705.27 424.767 1702.16 429.948C1699.09 435.019 1698.05 441.184 1699.3 446.851C1701.93 458.877 1713.87 466.912 1725.36 464.391L1797.15 448.694C1801.65 447.71 1805.5 445.022 1808 441.143C1810.49 437.264 1811.31 432.636 1810.33 428.133C1808.29 418.837 1799.06 412.921 1789.76 414.958L1720.31 430.142C1716.75 430.918 1713.73 432.83 1711.83 435.532C1709.89 438.275 1709.25 441.517 1710 444.911C1711.51 451.825 1718.05 455.662 1725.55 454.027L1785.26 440.963L1786.34 445.881L1726.63 458.946C1716.46 461.176 1707.2 455.607 1705.09 445.992C1702.99 436.377 1709.07 427.455 1719.26 425.224L1788.71 410.039C1800.72 407.407 1812.64 415.041 1815.26 427.053C1816.54 432.872 1815.47 438.843 1812.25 443.858C1809.04 448.874 1804.06 452.337 1798.24 453.612L1726.45 469.309C1718.01 471.138 1709.42 468.436 1703.15 462.853Z" fill="#003E9C"/>
<path d="M942 401C942 351.294 982.294 311 1032 311H1558C1607.71 311 1648 351.294 1648 401V644.5V811.25V888C1648 937.706 1607.71 978 1558 978H1471.5H1295H1118.5H1032C982.294 978 942 937.714 942 888.008C942 861.932 942 834.303 942 811.25C942 746.13 942 644.5 942 644.5V401Z" fill="#F5F5F5"/>
<path d="M1582.81 430.054H1022.5V855.36H1582.81V430.054Z" fill="#003E9C"/>
<path d="M1590.58 849.389H1030.27C1029.81 849.389 1029.44 849.013 1029.44 848.554V423.248C1029.44 422.785 1029.81 422.413 1030.27 422.413H1590.58C1591.05 422.413 1591.42 422.789 1591.42 423.248V848.554C1591.42 849.013 1591.05 849.389 1590.58 849.389ZM1031.1 847.715H1589.74V424.084H1031.1V847.715Z" fill="#0065FF"/>
<path d="M1565.23 803.65V447.658L1040.08 447.658V803.65L1565.23 803.65Z" fill="#F7F1EB"/>
<path d="M1311.64 832.934C1314.7 827.971 1313.16 821.463 1308.21 818.396C1303.25 815.33 1296.75 816.867 1293.69 821.829C1290.63 826.791 1292.16 833.3 1297.12 836.366C1302.07 839.433 1308.57 837.896 1311.64 832.934Z" fill="white"/>
<path d="M1582.84 867.045C1582.84 891.472 1566.48 911.272 1546.31 911.272H1058.91C1038.73 911.272 1022.38 891.472 1022.38 867.045H1582.84Z" fill="#003E9C"/>
<path d="M1229.94 877.307C1229.94 887.652 1221.57 896.038 1211.24 896.038H1145.4C1135.07 896.038 1126.69 887.652 1126.69 877.307H1229.94Z" fill="#F2E6DC"/>
<path d="M1374.42 997.376C1373.96 997.376 1373.58 997 1373.58 996.54C1373.58 996.077 1373.96 995.705 1374.42 995.705C1393.2 995.705 1408.47 980.403 1408.47 961.6C1408.47 961.137 1408.85 960.765 1409.31 960.765C1409.77 960.765 1410.14 961.141 1410.14 961.6C1410.15 981.322 1394.12 997.376 1374.42 997.376Z" fill="#F2E6DC"/>
<path d="M1363.33 659.719H1194.49V780.915H1363.33V659.719Z" fill="#0065FF"/>
<path d="M1397.29 460.509H1228.46V642.553H1397.29V460.509Z" fill="#0065FF"/>
<path d="M1551.93 460.509H1409.92V642.553H1551.93V460.509Z" fill="#0065FF"/>
<path d="M1215.83 461.481H1047V642.553H1215.83V461.481Z" fill="#0065FF"/>
<path d="M1340.39 674.622H1208.78V766.221H1340.39V674.622Z" fill="#F2E6DC"/>
<path d="M1329.24 710.545H1302.46C1302 710.545 1301.62 710.169 1301.62 709.71C1301.62 709.25 1302 708.874 1302.46 708.874H1329.24C1329.7 708.874 1330.07 709.25 1330.07 709.71C1330.07 710.169 1329.7 710.545 1329.24 710.545Z" fill="#0065FF"/>
<path d="M1288.81 710.545H1220.46C1219.99 710.545 1219.62 710.169 1219.62 709.71C1219.62 709.25 1220 708.874 1220.46 708.874H1288.81C1289.27 708.874 1289.64 709.25 1289.64 709.71C1289.64 710.169 1289.27 710.545 1288.81 710.545Z" fill="#0065FF"/>
<path d="M1329.24 724.217H1262.74C1262.28 724.217 1261.9 723.841 1261.9 723.382C1261.9 722.922 1262.28 722.546 1262.74 722.546H1329.24C1329.7 722.546 1330.07 722.922 1330.07 723.382C1330.07 723.841 1329.7 724.217 1329.24 724.217Z" fill="#0065FF"/>
<path d="M1249.09 724.217H1220.46C1219.99 724.217 1219.62 723.841 1219.62 723.382C1219.62 722.922 1220 722.546 1220.46 722.546H1249.09C1249.55 722.546 1249.92 722.922 1249.92 723.382C1249.92 723.841 1249.55 724.217 1249.09 724.217Z" fill="#0065FF"/>
<path d="M1329.24 737.886H1271.63C1271.17 737.886 1270.8 737.51 1270.8 737.05C1270.8 736.587 1271.17 736.214 1271.63 736.214H1329.24C1329.7 736.214 1330.07 736.59 1330.07 737.05C1330.07 737.51 1329.7 737.886 1329.24 737.886Z" fill="#0065FF"/>
<path d="M1257.98 737.886H1220.46C1219.99 737.886 1219.62 737.51 1219.62 737.05C1219.62 736.587 1220 736.214 1220.46 736.214H1257.98C1258.44 736.214 1258.82 736.59 1258.82 737.05C1258.82 737.51 1258.44 737.886 1257.98 737.886Z" fill="#0065FF"/>
<path d="M1329.24 751.554H1293.56C1293.1 751.554 1292.73 751.178 1292.73 750.718C1292.73 750.255 1293.1 749.883 1293.56 749.883H1329.24C1329.7 749.883 1330.07 750.259 1330.07 750.718C1330.07 751.182 1329.7 751.554 1329.24 751.554Z" fill="#0065FF"/>
<path d="M1279.91 751.554H1220.46C1219.99 751.554 1219.62 751.178 1219.62 750.718C1219.62 750.255 1220 749.883 1220.46 749.883H1279.92C1280.38 749.883 1280.75 750.259 1280.75 750.718C1280.75 751.182 1280.38 751.554 1279.91 751.554Z" fill="#0065FF"/>
<path d="M1186.06 792.692H1181.04C1180.58 792.692 1180.2 792.316 1180.2 791.856C1180.2 791.393 1180.58 791.021 1181.04 791.021H1185.22V786.836C1185.22 786.372 1185.59 786 1186.05 786C1186.51 786 1186.89 786.376 1186.89 786.836V791.86C1186.89 792.316 1186.52 792.692 1186.06 792.692Z" fill="#0065FF"/>
<path d="M1171.12 792.692H1161.21C1160.74 792.692 1160.37 792.316 1160.37 791.856C1160.37 791.393 1160.75 791.021 1161.21 791.021H1171.12C1171.58 791.021 1171.96 791.397 1171.96 791.856C1171.96 792.316 1171.58 792.692 1171.12 792.692ZM1151.29 792.692H1141.37C1140.91 792.692 1140.54 792.316 1140.54 791.856C1140.54 791.393 1140.91 791.021 1141.37 791.021H1151.29C1151.75 791.021 1152.12 791.397 1152.12 791.856C1152.13 792.316 1151.75 792.692 1151.29 792.692ZM1131.45 792.692H1121.54C1121.07 792.692 1120.7 792.316 1120.7 791.856C1120.7 791.393 1121.08 791.021 1121.54 791.021H1131.45C1131.92 791.021 1132.29 791.397 1132.29 791.856C1132.29 792.316 1131.92 792.692 1131.45 792.692ZM1111.62 792.692H1101.71C1101.24 792.692 1100.87 792.316 1100.87 791.856C1100.87 791.393 1101.25 791.021 1101.71 791.021H1111.62C1112.09 791.021 1112.46 791.397 1112.46 791.856C1112.46 792.316 1112.08 792.692 1111.62 792.692ZM1091.79 792.692H1081.87C1081.41 792.692 1081.04 792.316 1081.04 791.856C1081.04 791.393 1081.41 791.021 1081.87 791.021H1091.79C1092.25 791.021 1092.62 791.397 1092.62 791.856C1092.62 792.316 1092.25 792.692 1091.79 792.692Z" fill="#0065FF"/>
<path d="M1071.96 792.692H1066.94C1066.48 792.692 1066.1 792.316 1066.1 791.856V786.832C1066.1 786.368 1066.48 785.996 1066.94 785.996C1067.4 785.996 1067.77 786.372 1067.77 786.832V791.017H1071.95C1072.41 791.017 1072.79 791.393 1072.79 791.852C1072.79 792.316 1072.42 792.692 1071.96 792.692Z" fill="#0065FF"/>
<path d="M1066.94 777.736C1066.48 777.736 1066.1 777.36 1066.1 776.901V766.969C1066.1 766.506 1066.48 766.134 1066.94 766.134C1067.4 766.134 1067.77 766.51 1067.77 766.969V776.901C1067.78 777.36 1067.4 777.736 1066.94 777.736ZM1066.94 757.873C1066.48 757.873 1066.1 757.497 1066.1 757.038V747.107C1066.1 746.643 1066.48 746.271 1066.94 746.271C1067.4 746.271 1067.77 746.647 1067.77 747.107V757.038C1067.78 757.501 1067.4 757.873 1066.94 757.873ZM1066.94 738.015C1066.48 738.015 1066.1 737.639 1066.1 737.179V727.244C1066.1 726.781 1066.48 726.409 1066.94 726.409C1067.4 726.409 1067.77 726.785 1067.77 727.244V737.175C1067.78 737.639 1067.4 738.015 1066.94 738.015ZM1066.94 718.152C1066.48 718.152 1066.1 717.776 1066.1 717.317V707.385C1066.1 706.922 1066.48 706.55 1066.94 706.55C1067.4 706.55 1067.77 706.926 1067.77 707.385V717.317C1067.78 717.776 1067.4 718.152 1066.94 718.152ZM1066.94 698.29C1066.48 698.29 1066.1 697.914 1066.1 697.454V687.523C1066.1 687.059 1066.48 686.687 1066.94 686.687C1067.4 686.687 1067.77 687.063 1067.77 687.523V697.454C1067.78 697.914 1067.4 698.29 1066.94 698.29Z" fill="#0065FF"/>
<path d="M1066.94 678.427C1066.48 678.427 1066.1 678.051 1066.1 677.591V672.567C1066.1 672.104 1066.48 671.731 1066.94 671.731H1071.96C1072.42 671.731 1072.79 672.107 1072.79 672.567C1072.79 673.03 1072.41 673.402 1071.96 673.402H1067.78V677.588C1067.78 678.055 1067.4 678.427 1066.94 678.427Z" fill="#0065FF"/>
<path d="M1171.12 673.406H1161.21C1160.74 673.406 1160.37 673.03 1160.37 672.571C1160.37 672.107 1160.75 671.735 1161.21 671.735H1171.12C1171.58 671.735 1171.96 672.111 1171.96 672.571C1171.96 673.03 1171.58 673.406 1171.12 673.406ZM1151.29 673.406H1141.37C1140.91 673.406 1140.54 673.03 1140.54 672.571C1140.54 672.107 1140.91 671.735 1141.37 671.735H1151.29C1151.75 671.735 1152.12 672.111 1152.12 672.571C1152.13 673.03 1151.75 673.406 1151.29 673.406ZM1131.45 673.406H1121.54C1121.07 673.406 1120.7 673.03 1120.7 672.571C1120.7 672.107 1121.08 671.735 1121.54 671.735H1131.45C1131.92 671.735 1132.29 672.111 1132.29 672.571C1132.29 673.03 1131.92 673.406 1131.45 673.406ZM1111.62 673.406H1101.71C1101.24 673.406 1100.87 673.03 1100.87 672.571C1100.87 672.107 1101.25 671.735 1101.71 671.735H1111.62C1112.09 671.735 1112.46 672.111 1112.46 672.571C1112.46 673.03 1112.08 673.406 1111.62 673.406ZM1091.79 673.406H1081.87C1081.41 673.406 1081.04 673.03 1081.04 672.571C1081.04 672.107 1081.41 671.735 1081.87 671.735H1091.79C1092.25 671.735 1092.62 672.111 1092.62 672.571C1092.62 673.03 1092.25 673.406 1091.79 673.406Z" fill="#0065FF"/>
<path d="M1186.06 678.427C1185.59 678.427 1185.22 678.051 1185.22 677.591V673.406H1181.04C1180.58 673.406 1180.21 673.03 1180.21 672.571C1180.21 672.107 1180.58 671.735 1181.04 671.735H1186.06C1186.52 671.735 1186.89 672.111 1186.89 672.571V677.595C1186.89 678.055 1186.52 678.427 1186.06 678.427Z" fill="#0065FF"/>
<path d="M1186.06 777.736C1185.59 777.736 1185.22 777.36 1185.22 776.901V766.969C1185.22 766.506 1185.6 766.134 1186.06 766.134C1186.52 766.134 1186.89 766.51 1186.89 766.969V776.901C1186.89 777.36 1186.52 777.736 1186.06 777.736ZM1186.06 757.873C1185.59 757.873 1185.22 757.497 1185.22 757.038V747.107C1185.22 746.643 1185.6 746.271 1186.06 746.271C1186.52 746.271 1186.89 746.647 1186.89 747.107V757.038C1186.89 757.501 1186.52 757.873 1186.06 757.873ZM1186.06 738.015C1185.59 738.015 1185.22 737.639 1185.22 737.179V727.244C1185.22 726.781 1185.6 726.409 1186.06 726.409C1186.52 726.409 1186.89 726.785 1186.89 727.244V737.175C1186.89 737.639 1186.52 738.015 1186.06 738.015ZM1186.06 718.152C1185.59 718.152 1185.22 717.776 1185.22 717.317V707.385C1185.22 706.922 1185.6 706.55 1186.06 706.55C1186.52 706.55 1186.89 706.926 1186.89 707.385V717.317C1186.89 717.776 1186.52 718.152 1186.06 718.152ZM1186.06 698.29C1185.59 698.29 1185.22 697.914 1185.22 697.454V687.523C1185.22 687.059 1185.6 686.687 1186.06 686.687C1186.52 686.687 1186.89 687.063 1186.89 687.523V697.454C1186.89 697.914 1186.52 698.29 1186.06 698.29Z" fill="#0065FF"/>
<path d="M1169.82 659.771L1053.65 661.097L1055.01 780.238L1171.18 778.912L1169.82 659.771Z" fill="#003E9C"/>
<path d="M1070.53 752.048C1098.52 751.729 1126.51 751.41 1154.5 751.091C1141.63 709.846 1133.67 699.467 1128.54 700.094C1121.12 701.001 1119.18 724.931 1108.99 725.733C1102.86 726.215 1100.31 717.818 1094.13 717.586C1088.81 717.381 1080.96 723.222 1070.53 752.048Z" fill="#F7F1EB"/>
<path d="M1098.83 703.973C1104.72 702.872 1108.6 697.201 1107.5 691.306C1106.4 685.411 1100.74 681.525 1094.85 682.626C1088.97 683.727 1085.09 689.398 1086.19 695.293C1087.28 701.188 1092.95 705.074 1098.83 703.973Z" fill="#F7F1EB"/>
<path d="M1377.32 577.732H1293.45C1292.99 577.732 1292.62 577.356 1292.62 576.896V475.495C1292.62 475.031 1292.99 474.659 1293.45 474.659H1352.32C1352.6 474.659 1352.86 474.8 1353.01 475.031L1362.97 489.862L1377.78 499.736C1378.01 499.892 1378.15 500.154 1378.15 500.431V576.9C1378.15 577.356 1377.78 577.732 1377.32 577.732ZM1294.29 576.057H1376.48V500.875L1361.9 491.157C1361.81 491.096 1361.73 491.02 1361.67 490.925L1351.87 476.326H1294.29V576.057Z" fill="white"/>
<path d="M1352.32 500.427H1377.25L1352.32 475.464V500.427Z" fill="white"/>
<path d="M1262.89 592.923H1346.75V516.454L1331.8 506.489L1321.75 491.521H1262.89V592.923Z" fill="#F7F1EB"/>
<path d="M1334.96 533.86H1305.31C1304.84 533.86 1304.47 533.484 1304.47 533.024C1304.47 532.561 1304.85 532.188 1305.31 532.188H1334.96C1335.42 532.188 1335.79 532.564 1335.79 533.024C1335.79 533.484 1335.42 533.86 1334.96 533.86Z" fill="#003E9C"/>
<path d="M1298.84 533.86H1281.85C1281.38 533.86 1281.01 533.484 1281.01 533.024C1281.01 532.561 1281.39 532.188 1281.85 532.188H1298.84C1299.3 532.188 1299.67 532.564 1299.67 533.024C1299.67 533.484 1299.3 533.86 1298.84 533.86Z" fill="#003E9C"/>
<path d="M1334.96 545.728H1320.05C1319.59 545.728 1319.22 545.352 1319.22 544.892C1319.22 544.429 1319.59 544.057 1320.05 544.057H1334.96C1335.42 544.057 1335.79 544.433 1335.79 544.892C1335.79 545.352 1335.42 545.728 1334.96 545.728Z" fill="#003E9C"/>
<path d="M1313.59 545.728H1281.85C1281.38 545.728 1281.01 545.352 1281.01 544.892C1281.01 544.429 1281.39 544.057 1281.85 544.057H1313.59C1314.05 544.057 1314.42 544.433 1314.42 544.892C1314.42 545.352 1314.05 545.728 1313.59 545.728Z" fill="#003E9C"/>
<path d="M1325.25 557.592H1281.85C1281.38 557.592 1281.01 557.216 1281.01 556.757C1281.01 556.297 1281.39 555.921 1281.85 555.921H1325.25C1325.72 555.921 1326.09 556.297 1326.09 556.757C1326.09 557.216 1325.72 557.592 1325.25 557.592Z" fill="#003E9C"/>
<path d="M1321.75 516.454H1346.68L1321.75 491.491V516.454Z" fill="white"/>
<path d="M1532.04 742.352H1489.86V887.561H1532.04V742.352Z" fill="#0065FF"/>
<path d="M1527.88 742.777H1487.43V887.987H1527.88V742.777Z" fill="white"/>
<path d="M1514.85 741.114H1412.16V890.687H1514.85V741.114Z" fill="#0065FF"/>
<path d="M1522.48 741.163H1510.6V811.153H1522.48V741.163Z" fill="#0065FF"/>
<path d="M1184.62 531.349L1178.01 544.296L1068.25 531.349L1126.43 485.327L1184.62 531.349Z" fill="#003E9C"/>
<path d="M1184.62 531.6H1068.25V617.734H1184.62V531.6Z" fill="#003E9C"/>
<path d="M1184.62 531.6H1068.25L1126.43 594.708L1184.62 531.6Z" fill="#003E9C"/>
<path d="M1170.3 547.125V505.923L1154.67 495.494L1144.15 479.836H1082.57V547.125L1126.43 596.087L1170.3 547.125Z" fill="#F7F1EB"/>
<path d="M1157.96 513.253H1126.95C1126.48 513.253 1126.11 512.877 1126.11 512.417C1126.11 511.958 1126.49 511.582 1126.95 511.582H1157.96C1158.43 511.582 1158.8 511.958 1158.8 512.417C1158.8 512.877 1158.43 513.253 1157.96 513.253Z" fill="#003E9C"/>
<path d="M1120.18 513.253H1102.4C1101.94 513.253 1101.57 512.877 1101.57 512.417C1101.57 511.958 1101.94 511.582 1102.4 511.582H1120.18C1120.64 511.582 1121.01 511.958 1121.01 512.417C1121.01 512.877 1120.64 513.253 1120.18 513.253Z" fill="#003E9C"/>
<path d="M1157.96 525.668H1142.37C1141.91 525.668 1141.54 525.292 1141.54 524.832C1141.54 524.369 1141.91 523.997 1142.37 523.997H1157.96C1158.43 523.997 1158.8 524.373 1158.8 524.832C1158.8 525.292 1158.43 525.668 1157.96 525.668Z" fill="#003E9C"/>
<path d="M1135.61 525.668H1102.4C1101.94 525.668 1101.57 525.292 1101.57 524.832C1101.57 524.369 1101.94 523.997 1102.4 523.997H1135.61C1136.07 523.997 1136.44 524.373 1136.44 524.832C1136.45 525.292 1136.07 525.668 1135.61 525.668Z" fill="#003E9C"/>
<path d="M1147.81 538.083H1102.4C1101.94 538.083 1101.57 537.707 1101.57 537.247C1101.57 536.784 1101.94 536.412 1102.4 536.412H1147.81C1148.28 536.412 1148.65 536.788 1148.65 537.247C1148.65 537.707 1148.28 538.083 1147.81 538.083Z" fill="#003E9C"/>
<path d="M1144.16 505.923H1170.23L1144.16 479.805V505.923Z" fill="white"/>
<path d="M1184.62 617.734H1068.25L1126.43 554.626L1184.62 617.734Z" fill="#0065FF"/>
<path d="M1075.12 611.126C1074.91 611.126 1074.71 611.054 1074.55 610.902C1074.21 610.591 1074.19 610.059 1074.5 609.717L1125.82 554.056C1126.14 553.714 1126.73 553.714 1127.05 554.056L1162.98 593.022C1163.29 593.364 1163.27 593.892 1162.93 594.207C1162.6 594.518 1162.07 594.499 1161.75 594.161L1126.44 555.86L1075.73 610.856C1075.57 611.035 1075.34 611.126 1075.12 611.126Z" fill="#F7F1EB"/>
<path d="M1571.95 534.756H1422.19V583.242H1436.31V618.809L1466.43 583.242H1571.95V534.756Z" fill="#003E9C"/>
<path d="M1440.94 625.117C1440.85 625.117 1440.75 625.102 1440.66 625.064C1440.33 624.943 1440.11 624.627 1440.11 624.278V589.551H1426.83C1426.37 589.551 1426 589.175 1426 588.715V540.228C1426 539.765 1426.37 539.393 1426.83 539.393H1576.59C1577.06 539.393 1577.43 539.769 1577.43 540.228V588.715C1577.43 589.178 1577.05 589.551 1576.59 589.551H1471.45L1441.59 624.817C1441.42 625.011 1441.18 625.117 1440.94 625.117ZM1427.66 587.88H1440.94C1441.4 587.88 1441.77 588.256 1441.77 588.715V621.995L1470.42 588.172C1470.58 587.982 1470.81 587.876 1471.06 587.876H1575.75V541.068H1427.66V587.88H1427.66Z" fill="#0065FF"/>
<path d="M1562.6 551.071H1535.43C1534.96 551.071 1534.59 550.695 1534.59 550.236C1534.59 549.772 1534.97 549.4 1535.43 549.4H1562.6C1563.06 549.4 1563.43 549.776 1563.43 550.236C1563.44 550.695 1563.06 551.071 1562.6 551.071Z" fill="white"/>
<path d="M1528.64 551.071H1467.51C1467.04 551.071 1466.67 550.695 1466.67 550.236C1466.67 549.772 1467.05 549.4 1467.51 549.4H1528.64C1529.1 549.4 1529.47 549.776 1529.47 550.236C1529.47 550.695 1529.1 551.071 1528.64 551.071Z" fill="white"/>
<path d="M1463.62 551.071H1434.51C1434.05 551.071 1433.68 550.695 1433.68 550.236C1433.68 549.772 1434.05 549.4 1434.51 549.4H1463.62C1464.09 549.4 1464.46 549.776 1464.46 550.236C1464.46 550.695 1464.09 551.071 1463.62 551.071Z" fill="white"/>
<path d="M1562.6 562.734H1514.08C1513.62 562.734 1513.25 562.358 1513.25 561.899C1513.25 561.435 1513.62 561.063 1514.08 561.063H1562.6C1563.06 561.063 1563.43 561.439 1563.43 561.899C1563.44 562.358 1563.06 562.734 1562.6 562.734Z" fill="white"/>
<path d="M1510.2 562.734H1488.85C1488.39 562.734 1488.02 562.358 1488.02 561.899C1488.02 561.435 1488.39 561.063 1488.85 561.063H1510.2C1510.66 561.063 1511.03 561.439 1511.03 561.899C1511.04 562.358 1510.66 562.734 1510.2 562.734Z" fill="white"/>
<path d="M1482.06 562.734H1434.51C1434.05 562.734 1433.68 562.358 1433.68 561.899C1433.68 561.435 1434.05 561.063 1434.51 561.063H1482.06C1482.52 561.063 1482.9 561.439 1482.9 561.899C1482.9 562.358 1482.52 562.734 1482.06 562.734Z" fill="white"/>
<path d="M1562.6 575.366H1535.43C1534.96 575.366 1534.59 574.99 1534.59 574.53C1534.59 574.067 1534.97 573.695 1535.43 573.695H1562.6C1563.06 573.695 1563.43 574.071 1563.43 574.53C1563.44 574.99 1563.06 575.366 1562.6 575.366Z" fill="white"/>
<path d="M1526.7 575.366H1470.41C1469.95 575.366 1469.58 574.99 1469.58 574.53C1469.58 574.067 1469.96 573.695 1470.41 573.695H1526.7C1527.16 573.695 1527.53 574.071 1527.53 574.53C1527.53 574.99 1527.16 575.366 1526.7 575.366Z" fill="white"/>
<path d="M1465.56 575.366H1432.57C1432.11 575.366 1431.74 574.99 1431.74 574.53C1431.74 574.067 1432.11 573.695 1432.57 573.695H1465.56C1466.03 573.695 1466.4 574.071 1466.4 574.53C1466.4 574.99 1466.03 575.366 1465.56 575.366Z" fill="white"/>
<path d="M1362.51 396.432H1512.27V444.918H1498.16V480.485L1468.04 444.918H1362.51V396.432Z" fill="#0065FF"/>
<path d="M1493.53 486.793C1493.28 486.793 1493.05 486.687 1492.89 486.497L1463.02 451.23H1357.88C1357.42 451.23 1357.05 450.854 1357.05 450.395V401.904C1357.05 401.441 1357.42 401.069 1357.88 401.069H1507.64C1508.1 401.069 1508.47 401.445 1508.47 401.904V450.395C1508.47 450.858 1508.1 451.23 1507.64 451.23H1494.36V485.958C1494.36 486.311 1494.14 486.622 1493.81 486.744C1493.72 486.778 1493.62 486.793 1493.53 486.793ZM1358.71 449.556H1463.41C1463.65 449.556 1463.88 449.662 1464.04 449.852L1492.69 483.675V450.395C1492.69 449.932 1493.06 449.559 1493.52 449.559H1506.8V402.74H1358.71V449.556Z" fill="#0065FF"/>
<path d="M1399.83 412.424H1371.69C1371.23 412.424 1370.85 412.048 1370.85 411.589C1370.85 411.125 1371.23 410.753 1371.69 410.753H1399.83C1400.29 410.753 1400.66 411.129 1400.66 411.589C1400.67 412.048 1400.29 412.424 1399.83 412.424Z" fill="white"/>
<path d="M1466.79 412.424H1405.65C1405.19 412.424 1404.82 412.048 1404.82 411.589C1404.82 411.125 1405.19 410.753 1405.65 410.753H1466.79C1467.25 410.753 1467.62 411.129 1467.62 411.589C1467.62 412.048 1467.25 412.424 1466.79 412.424Z" fill="white"/>
<path d="M1499.78 412.424H1471.64C1471.17 412.424 1470.8 412.048 1470.8 411.589C1470.8 411.125 1471.18 410.753 1471.64 410.753H1499.78C1500.24 410.753 1500.61 411.129 1500.61 411.589C1500.61 412.048 1500.24 412.424 1499.78 412.424Z" fill="white"/>
<path d="M1421.17 424.084H1371.68C1371.22 424.084 1370.85 423.708 1370.85 423.248C1370.85 422.789 1371.23 422.413 1371.68 422.413H1421.17C1421.64 422.413 1422.01 422.789 1422.01 423.248C1422.01 423.708 1421.64 424.084 1421.17 424.084Z" fill="white"/>
<path d="M1444.47 424.084H1424.09C1423.62 424.084 1423.25 423.708 1423.25 423.248C1423.25 422.789 1423.63 422.413 1424.09 422.413H1444.47C1444.93 422.413 1445.3 422.789 1445.3 423.248C1445.3 423.708 1444.93 424.084 1444.47 424.084Z" fill="white"/>
<path d="M1499.78 424.084H1452.23C1451.77 424.084 1451.4 423.708 1451.4 423.248C1451.4 422.789 1451.77 422.413 1452.23 422.413H1499.78C1500.24 422.413 1500.61 422.789 1500.61 423.248C1500.61 423.708 1500.24 424.084 1499.78 424.084Z" fill="white"/>
<path d="M1399.83 436.719H1371.69C1371.23 436.719 1370.85 436.343 1370.85 435.883C1370.85 435.424 1371.23 435.048 1371.69 435.048H1399.83C1400.29 435.048 1400.66 435.424 1400.66 435.883C1400.66 436.343 1400.29 436.719 1399.83 436.719Z" fill="white"/>
<path d="M1463.87 436.719H1406.62C1406.16 436.719 1405.79 436.343 1405.79 435.883C1405.79 435.424 1406.16 435.048 1406.62 435.048H1463.87C1464.34 435.048 1464.71 435.424 1464.71 435.883C1464.71 436.343 1464.34 436.719 1463.87 436.719Z" fill="white"/>
<path d="M1500.75 436.719H1467.75C1467.29 436.719 1466.92 436.343 1466.92 435.883C1466.92 435.424 1467.29 435.048 1467.75 435.048H1500.75C1501.21 435.048 1501.58 435.424 1501.58 435.883C1501.58 436.343 1501.21 436.719 1500.75 436.719Z" fill="white"/>
<path d="M1458.59 990.645H1334.22C1333.76 990.645 1333.39 990.27 1333.39 989.81V839.432C1333.39 838.968 1333.76 838.596 1334.22 838.596H1421.52C1421.8 838.596 1422.06 838.737 1422.22 838.968L1437.03 861.026L1459.06 875.712C1459.29 875.868 1459.43 876.13 1459.43 876.407V989.81C1459.42 990.27 1459.05 990.645 1458.59 990.645ZM1335.05 988.971H1457.75V876.852L1435.96 862.321C1435.87 862.26 1435.79 862.184 1435.73 862.093L1421.07 840.267H1335.05V988.971H1335.05Z" fill="white"/>
<path d="M1421.52 876.407H1458.49L1421.52 839.386V876.407Z" fill="white"/>
<path d="M1288.41 1013.21H1412.78V899.809L1390.62 885.031L1375.71 862.833H1288.41V1013.21Z" fill="#0065FF"/>
<path d="M1395.29 925.216H1351.32C1350.86 925.216 1350.49 924.84 1350.49 924.38C1350.49 923.917 1350.86 923.545 1351.32 923.545H1395.29C1395.76 923.545 1396.13 923.921 1396.13 924.38C1396.13 924.844 1395.76 925.216 1395.29 925.216Z" fill="#003E9C"/>
<path d="M1341.73 925.216H1316.53C1316.07 925.216 1315.69 924.84 1315.69 924.38C1315.69 923.917 1316.07 923.545 1316.53 923.545H1341.73C1342.19 923.545 1342.56 923.921 1342.56 924.38C1342.56 924.844 1342.19 925.216 1341.73 925.216Z" fill="#003E9C"/>
<path d="M1395.29 942.815H1373.19C1372.73 942.815 1372.36 942.439 1372.36 941.979C1372.36 941.516 1372.73 941.144 1373.19 941.144H1395.29C1395.76 941.144 1396.13 941.52 1396.13 941.979C1396.13 942.443 1395.76 942.815 1395.29 942.815Z" fill="#003E9C"/>
<path d="M1363.6 942.815H1316.53C1316.07 942.815 1315.69 942.439 1315.69 941.979C1315.69 941.516 1316.07 941.144 1316.53 941.144H1363.6C1364.06 941.144 1364.43 941.52 1364.43 941.979C1364.43 942.443 1364.06 942.815 1363.6 942.815Z" fill="#003E9C"/>
<path d="M1380.9 960.414H1316.53C1316.07 960.414 1315.69 960.038 1315.69 959.578C1315.69 959.115 1316.07 958.743 1316.53 958.743H1380.9C1381.37 958.743 1381.74 959.119 1381.74 959.578C1381.74 960.042 1381.37 960.414 1380.9 960.414Z" fill="#003E9C"/>
<path d="M1376.19 900.174H1413.16L1376.19 863.153V900.174Z" fill="white"/>
</svg>
