<svg width="2597" height="558" viewBox="0 0 2597 558" fill="none" xmlns="http://www.w3.org/2000/svg">
<path d="M50.2336 97.3987V118.211C50.2336 121.041 47.9329 123.342 45.1032 123.342H24.2245C21.4212 123.315 19.1602 121.028 19.1602 118.211V97.3987C19.1602 94.569 21.4609 92.2815 24.2774 92.2815H45.1032C47.4568 92.2815 49.4403 93.855 50.0353 96.0235C50.1543 96.4599 50.2336 96.9227 50.2336 97.3987Z" fill="white"/>
<path d="M92.4666 5.83123V29.5396C92.4666 32.766 89.8485 35.3841 86.6354 35.3841H62.8476C59.661 35.3444 57.0825 32.7395 57.0825 29.5396V5.83123C57.0825 2.60488 59.7006 0 62.9138 0H86.6354C89.3064 0 91.5675 1.79829 92.2418 4.27095C92.3873 4.76019 92.4666 5.2891 92.4666 5.83123Z" fill="white"/>
<path d="M42.4719 6.61108V22.3462C42.4719 24.4882 40.7397 26.2204 38.5976 26.2204H22.8097C20.694 26.194 18.9883 24.4618 18.9883 22.3462V6.61108C18.9883 4.469 20.7205 2.73682 22.8625 2.73682H38.6108C40.3827 2.73682 41.8901 3.92686 42.3397 5.56649C42.419 5.91028 42.4719 6.25407 42.4719 6.61108Z" fill="#FF6B6B"/>
<path d="M34.5907 80.2883H7.88076C3.53047 80.2883 0 76.7579 0 72.4076V47.443C0 43.0927 3.53047 39.5623 7.88076 39.5623H34.5907C38.941 39.5623 42.4715 43.0927 42.4715 47.443V72.4076C42.4715 76.7579 38.941 80.2883 34.5907 80.2883Z" fill="#FF6B6B"/>
<path d="M155.724 6.79652V50.1804C155.724 51.8861 154.336 53.2745 152.63 53.2745H110.608C108.889 53.2745 107.514 51.8861 107.514 50.1804V6.79652C107.514 5.09078 108.889 3.70239 110.608 3.70239H152.63C154.336 3.70239 155.724 5.09078 155.724 6.79652Z" fill="white"/>
<path d="M59.1716 52.8645C58.8278 53.2347 58.5237 53.6446 58.2856 54.1074C58.5104 53.6446 58.8013 53.2347 59.1716 52.8645Z" fill="white"/>
<path d="M59.4757 79.138C59.4757 79.138 59.4757 79.138 59.4625 79.138C59.3963 79.0719 59.3302 79.019 59.2773 78.9529C59.3302 79.019 59.3963 79.0719 59.4625 79.1116C59.4757 79.1248 59.4757 79.138 59.4757 79.138Z" fill="white"/>
<path d="M59.476 79.1384C59.476 79.1384 59.476 79.1384 59.4624 79.1384C59.4624 79.1249 59.4624 79.1113 59.4624 79.1113C59.476 79.1249 59.476 79.1384 59.476 79.1384Z" fill="white"/>
<path d="M86.6616 56.1832V75.5414C86.6616 75.9777 86.5955 76.4141 86.4765 76.8107C85.9344 78.8206 84.0832 80.2883 81.9146 80.2883H62.5698C61.4062 80.2883 60.3351 79.8784 59.5153 79.1776C59.5021 79.1644 59.5021 79.1644 59.4889 79.1512C59.4756 79.1379 59.4756 79.1379 59.4756 79.1379C59.4756 79.1379 59.4756 79.1247 59.4624 79.1115C59.3963 79.0718 59.3302 79.0189 59.2773 78.9528C59.2376 78.9264 59.198 78.8999 59.1715 78.8603C58.8277 78.49 58.5236 78.0801 58.2856 77.6173C58.2063 77.4587 58.1401 77.3 58.0872 77.1413C58.0079 76.9165 57.9418 76.705 57.9021 76.467C57.836 76.1628 57.8096 75.8587 57.8096 75.5414V56.2097C57.8096 55.8791 57.836 55.5618 57.9021 55.2577C57.9418 55.0196 58.0079 54.8081 58.0872 54.5833L58.2856 54.1073C58.5236 53.6445 58.8277 53.2346 59.1715 52.8643C60.031 52.0049 61.2078 51.4627 62.5169 51.4363H81.9146C83.3295 51.4363 84.5989 52.0577 85.4716 53.0495C85.9344 53.5784 86.2914 54.2131 86.4765 54.9139C86.5955 55.3105 86.6616 55.7469 86.6616 56.1832Z" fill="#FF6B6B"/>
<path d="M59.1716 78.8604C58.8013 78.4901 58.5104 78.0802 58.2856 77.6174C58.5237 78.0802 58.8278 78.4901 59.1716 78.8604Z" fill="white"/>
<path d="M340.552 104.089V170.203C340.552 172.874 342.694 175.03 345.338 175.03H410.209C414.454 175.03 416.596 169.859 413.607 166.805L348.737 100.691C345.722 97.6368 340.552 99.7789 340.552 104.089Z" fill="white"/>
<path fill-rule="evenodd" clip-rule="evenodd" d="M421.396 265.156V195.961C421.396 190.5 417.006 186.07 411.585 186.07H333.478C328.017 186.07 323.6 181.561 323.68 176.048L324.645 98.6151C324.711 93.1012 320.308 88.5923 314.834 88.5923H83.8586C78.4373 88.5923 74.0474 93.0219 74.0474 98.4961V336.268C81.4685 345.208 88.9284 354.118 96.3885 363.028L96.3892 363.029L96.3915 363.032L96.3917 363.032C108.404 377.378 120.416 391.725 132.267 406.203C137.08 412.087 139.976 413.171 146.746 408.57C172.134 391.34 197.945 374.918 224.245 359.408C222.684 356.895 220 355.044 216.47 354.872L134.779 350.72C129.067 350.429 124.81 345.286 125.537 339.573C125.854 337.101 127.057 334.945 128.79 333.398C130.522 331.864 132.796 330.939 135.269 330.939H274.994C316.923 308.619 360.082 288.653 404.656 271.423C410.223 269.268 415.789 267.179 421.396 265.156ZM108.678 166.197H289.433C292.037 166.197 294.14 164.094 294.14 161.49V159.189C294.14 156.584 292.037 154.481 289.433 154.481H108.678C106.073 154.481 103.97 156.584 103.97 159.189V161.49C103.97 164.094 106.073 166.197 108.678 166.197ZM367.434 221.111H108.678C106.073 221.111 103.97 219.008 103.97 216.403V214.103C103.97 211.498 106.073 209.395 108.678 209.395H367.434C370.038 209.395 372.141 211.498 372.141 214.103V216.403C372.141 218.995 370.025 221.111 367.434 221.111ZM114.31 277.4H373.066C375.658 277.4 377.773 275.284 377.773 272.693V270.392C377.773 267.787 375.671 265.685 373.066 265.685H114.31C111.705 265.685 109.603 267.787 109.603 270.392V272.693C109.603 275.298 111.705 277.4 114.31 277.4Z" fill="white"/>
<path d="M422.229 418.685C434.877 418.685 445.131 408.432 445.131 395.783C445.131 383.135 434.877 372.882 422.229 372.882C409.581 372.882 399.327 383.135 399.327 395.783C399.327 408.432 409.581 418.685 422.229 418.685Z" fill="#FF6B6B" stroke="white" stroke-width="12.3676" stroke-miterlimit="10"/>
<path d="M272.389 395.36H399.327" stroke="white" stroke-width="12.3676" stroke-miterlimit="10"/>
<path d="M95.8647 479.51H225.954L264.521 450.257H353.22" stroke="white" stroke-width="12.3676" stroke-miterlimit="10"/>
<path d="M375.949 428.417C388.597 428.417 398.851 438.671 398.851 451.319C398.851 463.967 388.597 474.221 375.949 474.221C363.301 474.221 353.047 463.967 353.047 451.319C353.047 438.671 363.301 428.417 375.949 428.417Z" fill="#FF6B6B" stroke="white" stroke-width="12.3676" stroke-miterlimit="10"/>
<path d="M169.251 508.6H386.392L442.301 481.308" stroke="white" stroke-width="12.3676" stroke-miterlimit="10"/>
<path d="M457.93 442.962C470.578 442.962 480.832 453.216 480.832 465.864C480.832 478.512 470.578 488.766 457.93 488.766C445.282 488.766 435.028 478.512 435.028 465.864C435.028 453.216 445.282 442.962 457.93 442.962Z" fill="#FF6B6B" stroke="white" stroke-width="12.3676" stroke-miterlimit="10"/>
<path d="M548.691 273.605C489.612 296.533 433.191 324.949 378.634 357.226C284.792 412.748 200.55 480.885 121.914 556.36C121.464 556.797 121.213 557.445 120.869 558C119.031 557.312 117.193 556.625 115.369 555.937C113.24 553.055 110.794 550.437 109.551 546.919C96.3279 509.472 82.2589 472.33 68.613 435.042C59.2513 409.469 49.8632 383.883 40.3692 358.35C38.9279 354.489 36.3231 350.654 39.8139 346.555C44.7063 343.686 48.0649 343.58 52.4284 348.935C77.1814 379.321 102.714 409.072 127.547 439.392C132.373 445.276 135.256 446.36 142.039 441.759C223.108 386.726 308.553 339.957 399.936 304.612C446.85 286.471 494.981 272.759 544.354 263.371C550.741 264.653 551.442 268.382 548.691 273.605Z" fill="#003E9C"/>
<path d="M548.691 260.382C489.612 283.311 433.191 311.726 378.634 344.003C284.792 399.525 200.55 467.662 121.914 543.138C121.464 543.574 121.213 544.222 120.869 544.777C119.031 544.09 117.193 543.402 115.369 542.715C113.24 539.832 110.794 537.214 109.551 533.697C96.3279 496.25 82.2589 459.107 68.613 421.819C59.2513 396.246 49.8632 370.66 40.3692 345.127C38.9279 341.266 36.3231 337.431 39.8139 333.332C44.7063 330.463 48.0649 330.357 52.4284 335.712C77.1814 366.098 102.714 395.849 127.547 426.169C132.373 432.053 135.256 433.138 142.039 428.536C223.108 373.503 308.553 326.734 399.936 291.39C446.85 273.248 494.981 259.536 544.354 250.148C550.741 251.431 551.442 255.159 548.691 260.382Z" fill="white"/>
<path d="M694.826 390.882H615.737V167.778H695.479C717.92 167.778 737.239 172.244 753.434 181.177C769.629 190.037 782.085 202.783 790.8 219.414C799.587 236.045 803.981 255.944 803.981 279.112C803.981 302.352 799.587 322.324 790.8 339.027C782.085 355.731 769.557 368.549 753.216 377.482C736.948 386.415 717.485 390.882 694.826 390.882ZM662.907 350.466H692.865C706.809 350.466 718.538 347.997 728.052 343.058C737.638 338.047 744.828 330.312 749.621 319.854C754.487 309.324 756.92 295.743 756.92 279.112C756.92 262.626 754.487 249.154 749.621 238.696C744.828 228.238 737.674 220.54 728.161 215.601C718.647 210.663 706.918 208.193 692.974 208.193H662.907V350.466ZM838.923 167.778H897.095L958.536 317.676H961.15L1022.59 167.778H1080.76V390.882H1035.01V245.668H1033.16L975.421 389.792H944.265L886.528 245.123H884.676V390.882H838.923V167.778ZM1240.66 231.942C1239.79 223.154 1236.05 216.327 1229.44 211.462C1222.83 206.596 1213.86 204.163 1202.53 204.163C1194.83 204.163 1188.33 205.252 1183.03 207.431C1177.73 209.537 1173.66 212.478 1170.83 216.255C1168.07 220.031 1166.69 224.316 1166.69 229.109C1166.54 233.104 1167.38 236.59 1169.19 239.567C1171.08 242.545 1173.66 245.123 1176.93 247.302C1180.2 249.408 1183.97 251.26 1188.26 252.858C1192.54 254.383 1197.12 255.69 1201.98 256.78L1222.03 261.573C1231.76 263.752 1240.69 266.657 1248.83 270.288C1256.96 273.919 1264.01 278.386 1269.96 283.687C1275.92 288.989 1280.53 295.235 1283.8 302.424C1287.14 309.614 1288.84 317.857 1288.92 327.153C1288.84 340.807 1285.36 352.645 1278.46 362.667C1271.63 372.616 1261.75 380.351 1248.83 385.87C1235.97 391.317 1220.47 394.041 1202.31 394.041C1184.3 394.041 1168.61 391.281 1155.25 385.762C1141.96 380.242 1131.57 372.072 1124.09 361.251C1116.69 350.357 1112.8 336.885 1112.44 320.835H1158.08C1158.59 328.315 1160.73 334.561 1164.51 339.572C1168.36 344.511 1173.48 348.251 1179.87 350.793C1186.33 353.262 1193.63 354.496 1201.77 354.496C1209.75 354.496 1216.69 353.334 1222.57 351.01C1228.53 348.686 1233.14 345.455 1236.41 341.315C1239.68 337.175 1241.31 332.418 1241.31 327.044C1241.31 322.033 1239.82 317.821 1236.84 314.408C1233.94 310.994 1229.65 308.089 1223.99 305.693C1218.4 303.296 1211.53 301.117 1203.4 299.156L1179.11 293.056C1160.3 288.48 1145.45 281.327 1134.55 271.595C1123.66 261.863 1118.25 248.755 1118.32 232.269C1118.25 218.76 1121.84 206.959 1129.1 196.864C1136.44 186.769 1146.5 178.889 1159.28 173.225C1172.06 167.56 1186.59 164.727 1202.86 164.727C1219.41 164.727 1233.87 167.56 1246.21 173.225C1258.63 178.889 1268.29 186.769 1275.19 196.864C1282.09 206.959 1285.65 218.651 1285.87 231.942H1240.66ZM1457.01 356.893V202.638H1496.01V356.893H1457.01ZM1399.38 299.265V260.266H1553.63V299.265H1399.38ZM1854.49 390.882V167.778H2002.21V206.668H1901.66V259.83H1992.41V298.721H1901.66V390.882H1854.49ZM2096.39 394.15C2079.47 394.15 2064.83 390.555 2052.49 383.365C2040.21 376.102 2030.73 366.008 2024.05 353.08C2017.37 340.08 2014.03 325.011 2014.03 307.871C2014.03 290.587 2017.37 275.481 2024.05 262.553C2030.73 249.553 2040.21 239.459 2052.49 232.269C2064.83 225.006 2079.47 221.375 2096.39 221.375C2113.31 221.375 2127.91 225.006 2140.18 232.269C2152.53 239.459 2162.04 249.553 2168.72 262.553C2175.4 275.481 2178.74 290.587 2178.74 307.871C2178.74 325.011 2175.4 340.08 2168.72 353.08C2162.04 366.008 2152.53 376.102 2140.18 383.365C2127.91 390.555 2113.31 394.15 2096.39 394.15ZM2096.61 358.2C2104.3 358.2 2110.73 356.022 2115.89 351.664C2121.04 347.234 2124.93 341.206 2127.54 333.58C2130.23 325.955 2131.57 317.276 2131.57 307.544C2131.57 297.813 2130.23 289.134 2127.54 281.508C2124.93 273.883 2121.04 267.855 2115.89 263.425C2110.73 258.995 2104.3 256.78 2096.61 256.78C2088.83 256.78 2082.3 258.995 2077 263.425C2071.77 267.855 2067.81 273.883 2065.12 281.508C2062.51 289.134 2061.2 297.813 2061.2 307.544C2061.2 317.276 2062.51 325.955 2065.12 333.58C2067.81 341.206 2071.77 347.234 2077 351.664C2082.3 356.022 2088.83 358.2 2096.61 358.2ZM2208.92 390.882V223.554H2253.91V252.749H2255.65C2258.7 242.364 2263.82 234.52 2271.01 229.218C2278.2 223.844 2286.48 221.157 2295.85 221.157C2298.18 221.157 2300.68 221.302 2303.37 221.593C2306.06 221.883 2308.42 222.283 2310.45 222.791V263.969C2308.27 263.316 2305.26 262.735 2301.41 262.226C2297.56 261.718 2294.04 261.464 2290.84 261.464C2284.01 261.464 2277.91 262.953 2272.54 265.93C2267.24 268.835 2263.03 272.902 2259.9 278.131C2256.85 283.36 2255.33 289.388 2255.33 296.215V390.882H2208.92ZM2334.44 390.882V223.554H2378.67V253.076H2380.63C2384.12 243.271 2389.93 235.537 2398.06 229.872C2406.2 224.207 2415.93 221.375 2427.26 221.375C2438.73 221.375 2448.5 224.244 2456.56 229.981C2464.62 235.646 2470 243.344 2472.68 253.076H2474.43C2477.84 243.489 2484.01 235.827 2492.95 230.09C2501.95 224.28 2512.59 221.375 2524.87 221.375C2540.48 221.375 2553.15 226.35 2562.89 236.299C2572.69 246.176 2577.59 260.193 2577.59 278.349V390.882H2531.29V287.5C2531.29 278.204 2528.82 271.232 2523.89 266.584C2518.95 261.936 2512.77 259.612 2505.37 259.612C2496.94 259.612 2490.37 262.299 2485.65 267.673C2480.93 272.975 2478.57 279.983 2478.57 288.698V390.882H2433.58V286.52C2433.58 278.313 2431.22 271.777 2426.5 266.911C2421.85 262.045 2415.71 259.612 2408.08 259.612C2402.93 259.612 2398.28 260.919 2394.14 263.534C2390.07 266.076 2386.84 269.671 2384.45 274.319C2382.05 278.894 2380.85 284.268 2380.85 290.441V390.882H2334.44Z" fill="white"/>
<path d="M1748.94 341.908C1733.37 349.248 1718.48 352.413 1704.27 351.403C1690.1 350.296 1677.25 345.353 1665.73 336.576C1654.17 327.732 1644.63 315.329 1637.1 299.366C1629.76 283.797 1626.34 268.709 1626.84 254.101C1627.34 239.494 1631.53 226.319 1639.4 214.578C1647.34 202.806 1658.74 193.42 1673.58 186.421C1683.57 181.713 1693.62 178.94 1703.74 178.102C1713.9 177.167 1723.7 178.368 1733.14 181.705C1742.65 185.011 1751.49 190.64 1759.65 198.593C1767.79 206.481 1774.89 216.862 1780.96 229.737L1786.39 241.266L1658.59 301.519L1646.33 275.506L1734.62 233.881C1731.77 227.838 1727.93 223.104 1723.1 219.678C1718.28 216.253 1712.91 214.326 1707.01 213.897C1701.14 213.372 1695.15 214.55 1689.04 217.43C1682.67 220.434 1677.72 224.576 1674.19 229.854C1670.69 235.037 1668.72 240.741 1668.28 246.969C1667.82 253.131 1668.96 259.216 1671.71 265.225L1683.37 289.957C1686.9 297.446 1691.33 303.266 1696.66 307.418C1702.06 311.538 1708.02 313.869 1714.53 314.409C1721.05 314.949 1727.82 313.563 1734.85 310.249C1739.52 308.05 1743.48 305.38 1746.73 302.239C1749.99 299.098 1752.38 295.563 1753.9 291.635C1755.42 287.706 1756 283.496 1755.65 279.005L1795.68 263.263C1798.11 273.52 1797.91 283.571 1795.08 293.414C1792.29 303.161 1787.01 312.233 1779.25 320.63C1771.52 328.931 1761.42 336.024 1748.94 341.908Z" fill="white"/>
</svg>
