<svg width="380" height="77" viewBox="0 0 380 77" fill="none" xmlns="http://www.w3.org/2000/svg">
<path d="M6.88614 13.3519V16.205C6.88614 16.5929 6.57074 16.9083 6.18284 16.9083H3.3207C2.93642 16.9046 2.62646 16.591 2.62646 16.205V13.3519C2.62646 12.964 2.94186 12.6504 3.32795 12.6504H6.18284C6.50549 12.6504 6.77738 12.8661 6.85895 13.1634C6.87526 13.2232 6.88614 13.2866 6.88614 13.3519Z" fill="white"/>
<path d="M12.6758 0.799369V4.04941C12.6758 4.49169 12.3169 4.85059 11.8764 4.85059H8.6155C8.17866 4.84515 7.8252 4.48807 7.8252 4.04941V0.799369C7.8252 0.357088 8.1841 0 8.62456 0H11.8764C12.2426 0 12.5525 0.246517 12.645 0.585479C12.6649 0.652546 12.6758 0.725051 12.6758 0.799369Z" fill="white"/>
<path d="M5.82225 0.9061V3.06313C5.82225 3.35677 5.5848 3.59423 5.29115 3.59423H3.12688C2.83686 3.5906 2.60303 3.35315 2.60303 3.06313V0.9061C2.60303 0.612454 2.84048 0.375 3.13413 0.375H5.29297C5.53586 0.375 5.7425 0.538136 5.80413 0.762902C5.815 0.810031 5.82225 0.857159 5.82225 0.9061Z" fill="#FF6B6B"/>
<path d="M4.74183 11.0062H1.08033C0.483972 11.0062 0 10.5223 0 9.92591V6.50367C0 5.90731 0.483972 5.42334 1.08033 5.42334H4.74183C5.33819 5.42334 5.82216 5.90731 5.82216 6.50367V9.92591C5.82216 10.5223 5.33819 11.0062 4.74183 11.0062Z" fill="#FF6B6B"/>
<path d="M21.3474 0.931479V6.87871C21.3474 7.11254 21.157 7.30286 20.9232 7.30286H15.1627C14.927 7.30286 14.7385 7.11254 14.7385 6.87871V0.931479C14.7385 0.69765 14.927 0.507324 15.1627 0.507324H20.9232C21.157 0.507324 21.3474 0.69765 21.3474 0.931479Z" fill="white"/>
<path d="M8.11144 7.24707C8.06431 7.29782 8.02262 7.35402 7.98999 7.41746C8.0208 7.35402 8.06068 7.29782 8.11144 7.24707Z" fill="white"/>
<path d="M8.15278 10.8483C8.15278 10.8483 8.15278 10.8483 8.151 10.8483C8.14206 10.8393 8.13313 10.8322 8.12598 10.8232C8.13313 10.8322 8.14206 10.8393 8.151 10.8447C8.15278 10.8465 8.15278 10.8483 8.15278 10.8483Z" fill="white"/>
<path d="M8.15307 10.8486C8.15307 10.8486 8.15307 10.8486 8.15137 10.8486C8.15137 10.8469 8.15137 10.8452 8.15137 10.8452C8.15307 10.8469 8.15307 10.8486 8.15307 10.8486Z" fill="white"/>
<path d="M11.88 7.702V10.3557C11.88 10.4155 11.8709 10.4753 11.8546 10.5297C11.7803 10.8052 11.5265 11.0064 11.2292 11.0064H8.57735C8.41784 11.0064 8.27102 10.9502 8.15863 10.8542C8.15682 10.8523 8.15682 10.8523 8.15501 10.8505C8.1532 10.8487 8.1532 10.8487 8.1532 10.8487C8.1532 10.8487 8.1532 10.8469 8.15138 10.8451C8.14232 10.8397 8.13326 10.8324 8.12601 10.8233C8.12057 10.8197 8.11513 10.8161 8.11151 10.8107C8.06438 10.7599 8.02269 10.7037 7.99006 10.6403C7.97918 10.6185 7.97012 10.5968 7.96287 10.575C7.95199 10.5442 7.94293 10.5152 7.93749 10.4826C7.92843 10.4409 7.9248 10.3992 7.9248 10.3557V7.70563C7.9248 7.66031 7.92843 7.61681 7.93749 7.57512C7.94293 7.54249 7.95199 7.51349 7.96287 7.48267L7.99006 7.41742C8.02269 7.35398 8.06438 7.29779 8.11151 7.24703C8.22933 7.12921 8.39065 7.05489 8.5701 7.05127H11.2292C11.4232 7.05127 11.5972 7.13646 11.7168 7.27241C11.7803 7.34491 11.8292 7.43192 11.8546 7.52799C11.8709 7.58237 11.88 7.64219 11.88 7.702Z" fill="#FF6B6B"/>
<path d="M8.11144 10.8105C8.06068 10.7598 8.0208 10.7036 7.98999 10.6401C8.02262 10.7036 8.06431 10.7598 8.11144 10.8105Z" fill="white"/>
<path d="M46.6841 14.2691V23.3322C46.6841 23.6983 46.9777 23.9938 47.3403 23.9938H56.233C56.8149 23.9938 57.1085 23.2851 56.6988 22.8664L47.8061 13.8032C47.3928 13.3845 46.6841 13.6781 46.6841 14.2691Z" fill="white"/>
<path fill-rule="evenodd" clip-rule="evenodd" d="M57.7665 36.3485V26.8631C57.7665 26.1144 57.1647 25.5072 56.4216 25.5072H45.7144C44.9658 25.5072 44.3603 24.8891 44.3712 24.1332L44.5035 13.5185C44.5126 12.7626 43.909 12.1445 43.1586 12.1445H11.4956C10.7524 12.1445 10.1506 12.7518 10.1506 13.5022V46.0969C11.1681 47.3226 12.1908 48.5442 13.2136 49.7657C14.8603 51.7324 16.507 53.6992 18.1316 55.6838C18.7914 56.4905 19.1884 56.6391 20.1165 56.0083C23.5967 53.6464 27.135 51.3952 30.7403 49.269C30.5264 48.9246 30.1584 48.6708 29.6744 48.6472L18.476 48.0781C17.693 48.0382 17.1093 47.3331 17.209 46.55C17.2525 46.211 17.4175 45.9156 17.6549 45.7035C17.8924 45.4932 18.2041 45.3664 18.5431 45.3664H37.6971C43.445 42.3066 49.3614 39.5696 55.4718 37.2077C56.2349 36.9123 56.998 36.6259 57.7665 36.3485ZM14.8978 22.7829H39.6765C40.0335 22.7829 40.3218 22.4947 40.3218 22.1376V21.8222C40.3218 21.4651 40.0335 21.1769 39.6765 21.1769H14.8978C14.5408 21.1769 14.2525 21.4651 14.2525 21.8222V22.1376C14.2525 22.4947 14.5408 22.7829 14.8978 22.7829ZM50.3691 30.3107H14.8978C14.5408 30.3107 14.2525 30.0225 14.2525 29.6654V29.35C14.2525 28.9929 14.5408 28.7047 14.8978 28.7047H50.3691C50.7262 28.7047 51.0144 28.9929 51.0144 29.35V29.6654C51.0144 30.0207 50.7244 30.3107 50.3691 30.3107ZM15.67 38.0271H51.1413C51.4966 38.0271 51.7866 37.737 51.7866 37.3818V37.0664C51.7866 36.7093 51.4984 36.4211 51.1413 36.4211H15.67C15.3129 36.4211 15.0247 36.7093 15.0247 37.0664V37.3818C15.0247 37.7388 15.3129 38.0271 15.67 38.0271Z" fill="white"/>
<path d="M57.8812 57.3947C59.615 57.3947 61.0206 55.9891 61.0206 54.2552C61.0206 52.5213 59.615 51.1157 57.8812 51.1157C56.1473 51.1157 54.7417 52.5213 54.7417 54.2552C54.7417 55.9891 56.1473 57.3947 57.8812 57.3947Z" fill="#FF6B6B" stroke="white" stroke-width="1.6954" stroke-miterlimit="10"/>
<path d="M37.3403 54.1973H54.7416" stroke="white" stroke-width="1.6954" stroke-miterlimit="10"/>
<path d="M13.1416 65.7327H30.9747L36.2617 61.7227H48.4209" stroke="white" stroke-width="1.6954" stroke-miterlimit="10"/>
<path d="M51.5367 58.7289C53.2706 58.7289 54.6761 60.1345 54.6761 61.8683C54.6761 63.6022 53.2706 65.0078 51.5367 65.0078C49.8028 65.0078 48.3972 63.6022 48.3972 61.8683C48.3972 60.1345 49.8028 58.7289 51.5367 58.7289Z" fill="#FF6B6B" stroke="white" stroke-width="1.6954" stroke-miterlimit="10"/>
<path d="M23.2017 69.7207H52.9683L60.6324 65.9795" stroke="white" stroke-width="1.6954" stroke-miterlimit="10"/>
<path d="M62.775 60.7225C64.5088 60.7225 65.9144 62.1281 65.9144 63.862C65.9144 65.5959 64.5088 67.0015 62.775 67.0015C61.0411 67.0015 59.6355 65.5959 59.6355 63.862C59.6355 62.1281 61.0411 60.7225 62.775 60.7225Z" fill="#FF6B6B" stroke="white" stroke-width="1.6954" stroke-miterlimit="10"/>
<path d="M75.2169 37.5065C67.118 40.6496 59.3836 44.5449 51.9047 48.9695C39.0404 56.5808 27.4922 65.9212 16.7125 76.2677C16.6509 76.3275 16.6164 76.4163 16.5693 76.4925C16.3173 76.3982 16.0654 76.304 15.8152 76.2097C15.5234 75.8146 15.1881 75.4557 15.0177 74.9735C13.2051 69.8401 11.2764 64.7485 9.40579 59.6369C8.12245 56.1312 6.83549 52.6238 5.53402 49.1236C5.33645 48.5943 4.97936 48.0687 5.45789 47.5068C6.12856 47.1134 6.58897 47.0989 7.18714 47.833C10.5804 51.9984 14.0806 56.0769 17.4847 60.2332C18.1463 61.0398 18.5414 61.1885 19.4713 60.5577C30.5845 53.0135 42.2977 46.6023 54.8248 41.7571C61.256 39.2702 67.854 37.3905 74.6223 36.1035C75.4978 36.2793 75.5939 36.7905 75.2169 37.5065Z" fill="#003E9C"/>
<path d="M75.2169 35.694C67.118 38.8371 59.3836 42.7324 51.9047 47.157C39.0404 54.7683 27.4922 64.1087 16.7125 74.4552C16.6509 74.515 16.6164 74.6038 16.5693 74.68C16.3173 74.5857 16.0654 74.4915 15.8152 74.3972C15.5234 74.0021 15.1881 73.6432 15.0177 73.161C13.2051 68.0276 11.2764 62.936 9.40579 57.8244C8.12245 54.3187 6.83549 50.8113 5.53402 47.3111C5.33645 46.7818 4.97936 46.2562 5.45789 45.6943C6.12856 45.3009 6.58897 45.2864 7.18714 46.0205C10.5804 50.1859 14.0806 54.2644 17.4847 58.4207C18.1463 59.2273 18.5414 59.376 19.4713 58.7452C30.5845 51.201 42.2977 44.7898 54.8248 39.9446C61.256 37.4577 67.854 35.578 74.6223 34.291C75.4978 34.4668 75.5939 34.978 75.2169 35.694Z" fill="white"/>
<path d="M95.5 54H84.6582V23.416H95.5896C98.6659 23.416 101.314 24.0283 103.534 25.2529C105.754 26.4675 107.462 28.2147 108.656 30.4945C109.861 32.7744 110.463 35.5023 110.463 38.6781C110.463 41.864 109.861 44.6018 108.656 46.8916C107.462 49.1814 105.744 50.9386 103.504 52.1632C101.274 53.3877 98.6061 54 95.5 54ZM91.1244 48.4596H95.2312C97.1426 48.4596 98.7505 48.1211 100.055 47.4442C101.369 46.7572 102.354 45.6969 103.012 44.2633C103.679 42.8197 104.012 40.958 104.012 38.6781C104.012 36.4182 103.679 34.5714 103.012 33.1378C102.354 31.7042 101.374 30.6489 100.07 29.9719C98.7654 29.2949 97.1576 28.9564 95.2461 28.9564H91.1244V48.4596ZM115.253 23.416H123.228L131.65 43.9646H132.009L140.431 23.416H148.406V54H142.134V34.0935H141.88L133.965 53.8507H129.694L121.779 34.0189H121.525V54H115.253V23.416ZM170.325 32.2119C170.205 31.0073 169.692 30.0714 168.786 29.4044C167.881 28.7374 166.651 28.4038 165.098 28.4038C164.043 28.4038 163.152 28.5532 162.425 28.8519C161.698 29.1406 161.14 29.5438 160.752 30.0615C160.374 30.5792 160.185 31.1666 160.185 31.8236C160.165 32.3712 160.279 32.8491 160.528 33.2573C160.787 33.6654 161.14 34.0189 161.589 34.3175C162.037 34.6063 162.554 34.8601 163.142 35.0792C163.729 35.2882 164.356 35.4674 165.023 35.6168L167.771 36.2738C169.105 36.5725 170.33 36.9707 171.445 37.4685C172.56 37.9663 173.525 38.5786 174.342 39.3054C175.158 40.0321 175.79 40.8883 176.238 41.8739C176.696 42.8596 176.93 43.9895 176.94 45.2639C176.93 47.1355 176.452 48.7583 175.507 50.1322C174.571 51.4961 173.217 52.5564 171.445 53.3131C169.683 54.0597 167.557 54.4331 165.068 54.4331C162.599 54.4331 160.449 54.0548 158.617 53.2981C156.795 52.5415 155.371 51.4215 154.346 49.9381C153.33 48.4447 152.798 46.5979 152.748 44.3977H159.005C159.075 45.4231 159.368 46.2793 159.886 46.9663C160.414 47.6433 161.116 48.156 161.992 48.5044C162.878 48.8429 163.878 49.0122 164.993 49.0122C166.088 49.0122 167.039 48.8529 167.846 48.5343C168.662 48.2157 169.294 47.7727 169.742 47.2052C170.19 46.6377 170.414 45.9856 170.414 45.2489C170.414 44.562 170.21 43.9845 169.802 43.5166C169.404 43.0487 168.816 42.6505 168.04 42.3219C167.273 41.9934 166.332 41.6947 165.217 41.4259L161.887 40.5896C159.309 39.9624 157.273 38.9818 155.779 37.6477C154.286 36.3137 153.544 34.5167 153.554 32.2567C153.544 30.4049 154.037 28.7871 155.033 27.4033C156.038 26.0195 157.417 24.9393 159.169 24.1627C160.921 23.3862 162.913 22.9979 165.143 22.9979C167.413 22.9979 169.394 23.3862 171.086 24.1627C172.789 24.9393 174.113 26.0195 175.059 27.4033C176.004 28.7871 176.492 30.39 176.522 32.2119H170.325ZM199.983 49.3407V28.1948H205.329V49.3407H199.983ZM192.083 41.4409V36.0946H213.229V41.4409H192.083ZM254.472 54V23.416H274.722V28.7473H260.938V36.0349H273.378V41.3662H260.938V54H254.472ZM287.632 54.448C285.312 54.448 283.306 53.9552 281.613 52.9696C279.931 51.974 278.632 50.5902 277.716 48.818C276.8 47.036 276.342 44.9702 276.342 42.6206C276.342 40.2512 276.8 38.1804 277.716 36.4082C278.632 34.6262 279.931 33.2423 281.613 32.2567C283.306 31.2611 285.312 30.7634 287.632 30.7634C289.951 30.7634 291.952 31.2611 293.635 32.2567C295.327 33.2423 296.632 34.6262 297.548 36.4082C298.463 38.1804 298.921 40.2512 298.921 42.6206C298.921 44.9702 298.463 47.036 297.548 48.818C296.632 50.5902 295.327 51.974 293.635 52.9696C291.952 53.9552 289.951 54.448 287.632 54.448ZM287.661 49.5199C288.717 49.5199 289.598 49.2213 290.305 48.6239C291.012 48.0166 291.544 47.1903 291.903 46.1449C292.271 45.0996 292.455 43.9099 292.455 42.5758C292.455 41.2417 292.271 40.052 291.903 39.0067C291.544 37.9613 291.012 37.135 290.305 36.5277C289.598 35.9204 288.717 35.6168 287.661 35.6168C286.596 35.6168 285.7 35.9204 284.973 36.5277C284.257 37.135 283.714 37.9613 283.346 39.0067C282.987 40.052 282.808 41.2417 282.808 42.5758C282.808 43.9099 282.987 45.0996 283.346 46.1449C283.714 47.1903 284.257 48.0166 284.973 48.6239C285.7 49.2213 286.596 49.5199 287.661 49.5199ZM303.058 54V31.062H309.226V35.0642H309.465C309.883 33.6406 310.585 32.5653 311.57 31.8386C312.556 31.1018 313.691 30.7335 314.975 30.7335C315.294 30.7335 315.637 30.7534 316.005 30.7932C316.374 30.833 316.697 30.8878 316.976 30.9575V36.6024C316.677 36.5128 316.264 36.4331 315.737 36.3634C315.209 36.2938 314.726 36.2589 314.288 36.2589C313.352 36.2589 312.516 36.463 311.779 36.8712C311.052 37.2694 310.475 37.8269 310.047 38.5437C309.629 39.2606 309.42 40.0869 309.42 41.0227V54H303.058ZM320.265 54V31.062H326.328V35.109H326.597C327.075 33.765 327.871 32.7047 328.986 31.9282C330.101 31.1516 331.436 30.7634 332.989 30.7634C334.562 30.7634 335.901 31.1566 337.006 31.9431C338.111 32.7197 338.848 33.775 339.216 35.109H339.455C339.923 33.7949 340.769 32.7445 341.994 31.958C343.228 31.1616 344.687 30.7634 346.369 30.7634C348.51 30.7634 350.247 31.4453 351.581 32.8093C352.925 34.1632 353.597 36.0847 353.597 38.5736V54H347.25V39.828C347.25 38.5537 346.912 37.598 346.235 36.9608C345.558 36.3236 344.712 36.005 343.696 36.005C342.541 36.005 341.64 36.3734 340.993 37.1101C340.346 37.8369 340.022 38.7976 340.022 39.9923V54H333.855V39.6936C333.855 38.5686 333.531 37.6726 332.884 37.0056C332.247 36.3386 331.406 36.005 330.36 36.005C329.653 36.005 329.016 36.1842 328.449 36.5426C327.891 36.8911 327.448 37.3839 327.12 38.0211C326.791 38.6483 326.627 39.385 326.627 40.2312V54H320.265ZM377.707 37.6029L371.883 37.9613C371.784 37.4636 371.57 37.0155 371.241 36.6173C370.912 36.2091 370.479 35.8856 369.942 35.6466C369.414 35.3977 368.782 35.2733 368.045 35.2733C367.06 35.2733 366.228 35.4824 365.551 35.9005C364.874 36.3087 364.536 36.8563 364.536 37.5432C364.536 38.0908 364.755 38.5537 365.193 38.932C365.631 39.3103 366.383 39.614 367.448 39.843L371.599 40.6792C373.83 41.1372 375.492 41.8739 376.587 42.8894C377.682 43.9049 378.23 45.239 378.23 46.8916C378.23 48.3949 377.787 49.7141 376.901 50.849C376.025 51.984 374.82 52.87 373.287 53.5072C371.764 54.1344 370.007 54.448 368.015 54.448C364.979 54.448 362.56 53.8158 360.758 52.5514C358.966 51.2771 357.915 49.5448 357.607 47.3546L363.864 47.026C364.053 47.9519 364.511 48.6588 365.238 49.1466C365.964 49.6245 366.895 49.8634 368.03 49.8634C369.145 49.8634 370.041 49.6494 370.718 49.2213C371.405 48.7832 371.754 48.2207 371.764 47.5338C371.754 46.9563 371.51 46.4834 371.032 46.1151C370.554 45.7368 369.817 45.448 368.822 45.2489L364.849 44.4574C362.609 44.0094 360.942 43.2329 359.847 42.1278C358.762 41.0227 358.219 39.614 358.219 37.9016C358.219 36.4282 358.617 35.1588 359.414 34.0935C360.22 33.0283 361.35 32.2069 362.804 31.6295C364.267 31.0521 365.979 30.7634 367.941 30.7634C370.838 30.7634 373.118 31.3756 374.78 32.6002C376.453 33.8247 377.428 35.4923 377.707 37.6029Z" fill="white"/>
<path d="M239.873 51.6944C237.739 52.7006 235.698 53.1345 233.751 52.996C231.808 52.8442 230.047 52.1667 228.467 50.9634C226.882 49.7511 225.574 48.0508 224.543 45.8626C223.537 43.7284 223.068 41.66 223.136 39.6575C223.205 37.655 223.779 35.849 224.858 34.2395C225.946 32.6257 227.508 31.3391 229.543 30.3796C230.912 29.7343 232.29 29.3542 233.678 29.2392C235.07 29.1111 236.414 29.2757 237.708 29.7331C239.011 30.1863 240.223 30.958 241.342 32.0482C242.457 33.1295 243.431 34.5526 244.263 36.3176L245.008 37.898L227.489 46.1577L225.807 42.5917L237.91 36.8857C237.52 36.0572 236.994 35.4082 236.332 34.9387C235.67 34.4691 234.935 34.205 234.126 34.1462C233.321 34.0742 232.5 34.2356 231.663 34.6305C230.789 35.0423 230.11 35.61 229.626 36.3337C229.147 37.044 228.877 37.8261 228.817 38.6798C228.753 39.5245 228.91 40.3587 229.287 41.1824L230.885 44.5728C231.369 45.5994 231.977 46.3972 232.707 46.9663C233.447 47.5312 234.263 47.8507 235.157 47.9247C236.05 47.9988 236.979 47.8087 237.942 47.3544C238.582 47.053 239.125 46.687 239.571 46.2564C240.017 45.8258 240.345 45.3412 240.553 44.8027C240.762 44.2642 240.842 43.6871 240.794 43.0714L246.281 40.9135C246.614 42.3196 246.587 43.6973 246.199 45.0467C245.816 46.3828 245.093 47.6264 244.029 48.7776C242.969 49.9155 241.584 50.8878 239.873 51.6944Z" fill="white"/>
</svg>
