<svg width="889" height="890" viewBox="0 0 889 890" fill="none" xmlns="http://www.w3.org/2000/svg">
<path d="M126.174 63.2458V0" stroke="#E6E6E6" stroke-width="2" stroke-miterlimit="10"/>
<path d="M165.271 100.903L162.125 107.816H90.223L87.0908 100.903L117.706 79.7329H134.656L165.271 100.903Z" fill="#EBEBEB"/>
<path d="M136.777 59.3252L134.656 79.7329H117.706L115.572 59.3252H136.777Z" fill="#DBDBDB"/>
<path d="M165.271 100.917L162.125 107.816H90.223L87.0908 100.917H165.271Z" fill="#DBDBDB"/>
<path d="M282.591 63.2458V0" stroke="#E6E6E6" stroke-width="2" stroke-miterlimit="10"/>
<path d="M321.674 100.903L318.528 107.816H246.626L243.494 100.903L274.109 79.7329H291.073L321.674 100.903Z" fill="#EBEBEB"/>
<path d="M293.193 59.3252L291.073 79.7329H274.109L271.989 59.3252H293.193Z" fill="#DBDBDB"/>
<path d="M321.674 100.917L318.528 107.816H246.626L243.494 100.917H321.674Z" fill="#DBDBDB"/>
<path d="M438.994 63.2458V0" stroke="#E6E6E6" stroke-width="2" stroke-miterlimit="10"/>
<path d="M478.091 100.903L474.945 107.816H403.043L399.91 100.903L430.512 79.7329H447.476L478.091 100.903Z" fill="#EBEBEB"/>
<path d="M449.596 59.3252L447.476 79.7329H430.512L428.391 59.3252H449.596Z" fill="#DBDBDB"/>
<path d="M478.091 100.917L474.945 107.816H403.043L399.896 100.917H478.091Z" fill="#DBDBDB"/>
<path d="M589.994 63.2458V0" stroke="#E6E6E6" stroke-width="2" stroke-miterlimit="10"/>
<path d="M629.091 100.903L625.945 107.816H554.043L550.91 100.903L581.512 79.7329H598.476L629.091 100.903Z" fill="#EBEBEB"/>
<path d="M600.596 59.3252L598.476 79.7329H581.512L579.391 59.3252H600.596Z" fill="#DBDBDB"/>
<path d="M629.091 100.917L625.945 107.816H554.043L550.896 100.917H629.091Z" fill="#DBDBDB"/>
<path d="M0 525.311L111.11 525.071L222.235 524.981L444.456 524.811L666.69 524.981L777.801 525.071L888.925 525.311L777.801 525.561L666.69 525.641L444.456 525.811L222.235 525.641L111.11 525.551L0 525.311Z" fill="#2E3826"/>
<path d="M14 228C14 178.294 54.2944 138 104 138H630C679.706 138 720 178.294 720 228V471.5V638.25V715C720 764.706 679.706 805 630 805H543.5H367H190.5H104C54.2944 805 14 764.714 14 715.008C14 688.932 14 661.303 14 638.25C14 573.13 14 471.5 14 471.5C14 471.5 14 471.5 14 471.5V228Z" fill="#F5F5F5"/>
<path d="M654.808 257.054H94.4963V682.359H654.808V257.054Z" fill="#003E9C"/>
<path d="M662.583 676.389H102.271C101.808 676.389 101.436 676.013 101.436 675.554V250.248C101.436 249.785 101.812 249.413 102.271 249.413H662.583C663.045 249.413 663.417 249.789 663.417 250.248V675.554C663.417 676.013 663.045 676.389 662.583 676.389ZM103.105 674.715H661.745V251.084H103.105V674.715Z" fill="#0065FF"/>
<path d="M637.228 630.65L637.228 274.658L112.075 274.658L112.075 630.65L637.228 630.65Z" fill="#F7F1EB"/>
<path d="M383.635 659.934C386.697 654.971 385.163 648.463 380.208 645.397C375.252 642.33 368.753 643.867 365.691 648.829C362.629 653.791 364.164 660.3 369.119 663.366C374.074 666.433 380.573 664.896 383.635 659.934Z" fill="white"/>
<path d="M654.836 694.045C654.836 718.472 638.483 738.272 618.31 738.272H130.906C110.732 738.272 94.3789 718.472 94.3789 694.045H654.836Z" fill="#003E9C"/>
<path d="M301.942 704.307C301.942 714.652 293.568 723.038 283.238 723.038H217.399C207.068 723.038 198.695 714.652 198.695 704.307H301.942Z" fill="#F2E6DC"/>
<path d="M446.419 824.376C445.957 824.376 445.585 824 445.585 823.54C445.585 823.077 445.96 822.705 446.419 822.705C465.199 822.705 480.475 807.403 480.475 788.6C480.475 788.137 480.85 787.765 481.309 787.765C481.772 787.765 482.143 788.141 482.143 788.6C482.147 808.322 466.121 824.376 446.419 824.376Z" fill="#F2E6DC"/>
<path d="M435.33 486.719H266.495V607.915H435.33V486.719Z" fill="#0065FF"/>
<path d="M469.294 287.508H300.459V469.553H469.294V287.508Z" fill="#0065FF"/>
<path d="M623.927 287.508H481.919V469.553H623.927V287.508Z" fill="#0065FF"/>
<path d="M287.834 288.48H118.999V469.553H287.834V288.48Z" fill="#0065FF"/>
<path d="M412.386 501.622H280.78V593.221H412.386V501.622Z" fill="#F2E6DC"/>
<path d="M401.24 537.545H374.459C373.996 537.545 373.625 537.169 373.625 536.71C373.625 536.25 374 535.874 374.459 535.874H401.24C401.703 535.874 402.075 536.25 402.075 536.71C402.075 537.169 401.703 537.545 401.24 537.545Z" fill="#0065FF"/>
<path d="M360.81 537.545H292.457C291.994 537.545 291.623 537.169 291.623 536.71C291.623 536.25 291.998 535.874 292.457 535.874H360.81C361.273 535.874 361.645 536.25 361.645 536.71C361.645 537.169 361.269 537.545 360.81 537.545Z" fill="#0065FF"/>
<path d="M401.241 551.217H334.738C334.275 551.217 333.904 550.841 333.904 550.382C333.904 549.922 334.279 549.546 334.738 549.546H401.241C401.703 549.546 402.075 549.922 402.075 550.382C402.075 550.841 401.703 551.217 401.241 551.217Z" fill="#0065FF"/>
<path d="M321.089 551.217H292.457C291.994 551.217 291.623 550.841 291.623 550.382C291.623 549.922 291.998 549.546 292.457 549.546H321.089C321.552 549.546 321.923 549.922 321.923 550.382C321.923 550.841 321.552 551.217 321.089 551.217Z" fill="#0065FF"/>
<path d="M401.241 564.886H343.631C343.168 564.886 342.797 564.51 342.797 564.05C342.797 563.587 343.172 563.215 343.631 563.215H401.241C401.703 563.215 402.075 563.591 402.075 564.05C402.075 564.51 401.703 564.886 401.241 564.886Z" fill="#0065FF"/>
<path d="M329.982 564.886H292.457C291.994 564.886 291.623 564.51 291.623 564.05C291.623 563.587 291.998 563.215 292.457 563.215H329.982C330.445 563.215 330.816 563.591 330.816 564.05C330.816 564.51 330.445 564.886 329.982 564.886Z" fill="#0065FF"/>
<path d="M401.24 578.554H365.562C365.099 578.554 364.728 578.178 364.728 577.718C364.728 577.255 365.103 576.883 365.562 576.883H401.24C401.703 576.883 402.075 577.259 402.075 577.718C402.075 578.182 401.703 578.554 401.24 578.554Z" fill="#0065FF"/>
<path d="M351.913 578.554H292.457C291.994 578.554 291.623 578.178 291.623 577.718C291.623 577.255 291.998 576.883 292.457 576.883H351.917C352.38 576.883 352.751 577.259 352.751 577.718C352.751 578.182 352.376 578.554 351.913 578.554Z" fill="#0065FF"/>
<path d="M258.056 619.692H253.039C252.576 619.692 252.205 619.316 252.205 618.856C252.205 618.393 252.58 618.021 253.039 618.021H257.218V613.836C257.218 613.372 257.594 613 258.053 613C258.512 613 258.887 613.376 258.887 613.836V618.86C258.891 619.316 258.519 619.692 258.056 619.692Z" fill="#0065FF"/>
<path d="M243.122 619.692H233.205C232.743 619.692 232.371 619.316 232.371 618.856C232.371 618.393 232.746 618.021 233.205 618.021H243.122C243.585 618.021 243.957 618.397 243.957 618.856C243.957 619.316 243.585 619.692 243.122 619.692ZM223.288 619.692H213.371C212.909 619.692 212.537 619.316 212.537 618.856C212.537 618.393 212.912 618.021 213.371 618.021H223.288C223.751 618.021 224.123 618.397 224.123 618.856C224.126 619.316 223.751 619.692 223.288 619.692ZM203.454 619.692H193.537C193.075 619.692 192.703 619.316 192.703 618.856C192.703 618.393 193.078 618.021 193.537 618.021H203.454C203.917 618.021 204.289 618.397 204.289 618.856C204.292 619.316 203.917 619.692 203.454 619.692ZM183.624 619.692H173.707C173.244 619.692 172.873 619.316 172.873 618.856C172.873 618.393 173.248 618.021 173.707 618.021H183.624C184.087 618.021 184.458 618.397 184.458 618.856C184.458 619.316 184.083 619.692 183.624 619.692ZM163.79 619.692H153.873C153.41 619.692 153.039 619.316 153.039 618.856C153.039 618.393 153.414 618.021 153.873 618.021H163.79C164.253 618.021 164.624 618.397 164.624 618.856C164.624 619.316 164.253 619.692 163.79 619.692Z" fill="#0065FF"/>
<path d="M143.956 619.692H138.939C138.476 619.692 138.104 619.316 138.104 618.856V613.832C138.104 613.369 138.48 612.996 138.939 612.996C139.401 612.996 139.773 613.372 139.773 613.832V618.017H143.952C144.415 618.017 144.787 618.393 144.787 618.853C144.794 619.316 144.419 619.692 143.956 619.692Z" fill="#0065FF"/>
<path d="M138.939 604.736C138.476 604.736 138.104 604.36 138.104 603.901V593.969C138.104 593.506 138.48 593.134 138.939 593.134C139.401 593.134 139.773 593.51 139.773 593.969V603.901C139.777 604.36 139.401 604.736 138.939 604.736ZM138.939 584.873C138.476 584.873 138.104 584.497 138.104 584.038V574.107C138.104 573.643 138.48 573.271 138.939 573.271C139.401 573.271 139.773 573.647 139.773 574.107V584.038C139.777 584.501 139.401 584.873 138.939 584.873ZM138.939 565.015C138.476 565.015 138.104 564.639 138.104 564.179V554.244C138.104 553.781 138.48 553.409 138.939 553.409C139.401 553.409 139.773 553.785 139.773 554.244V564.175C139.777 564.639 139.401 565.015 138.939 565.015ZM138.939 545.152C138.476 545.152 138.104 544.776 138.104 544.317V534.385C138.104 533.922 138.48 533.55 138.939 533.55C139.401 533.55 139.773 533.926 139.773 534.385V544.317C139.777 544.776 139.401 545.152 138.939 545.152ZM138.939 525.29C138.476 525.29 138.104 524.914 138.104 524.454V514.523C138.104 514.059 138.48 513.687 138.939 513.687C139.401 513.687 139.773 514.063 139.773 514.523V524.454C139.777 524.914 139.401 525.29 138.939 525.29Z" fill="#0065FF"/>
<path d="M138.939 505.427C138.476 505.427 138.104 505.051 138.104 504.591V499.567C138.104 499.104 138.48 498.731 138.939 498.731H143.956C144.419 498.731 144.79 499.107 144.79 499.567C144.79 500.03 144.415 500.402 143.956 500.402H139.777V504.588C139.777 505.055 139.401 505.427 138.939 505.427Z" fill="#0065FF"/>
<path d="M243.122 500.406H233.205C232.743 500.406 232.371 500.03 232.371 499.571C232.371 499.108 232.746 498.735 233.205 498.735H243.122C243.585 498.735 243.957 499.111 243.957 499.571C243.957 500.03 243.585 500.406 243.122 500.406ZM223.288 500.406H213.371C212.909 500.406 212.537 500.03 212.537 499.571C212.537 499.108 212.912 498.735 213.371 498.735H223.288C223.751 498.735 224.123 499.111 224.123 499.571C224.126 500.03 223.751 500.406 223.288 500.406ZM203.454 500.406H193.537C193.075 500.406 192.703 500.03 192.703 499.571C192.703 499.108 193.078 498.735 193.537 498.735H203.454C203.917 498.735 204.289 499.111 204.289 499.571C204.292 500.03 203.917 500.406 203.454 500.406ZM183.624 500.406H173.707C173.244 500.406 172.873 500.03 172.873 499.571C172.873 499.108 173.248 498.735 173.707 498.735H183.624C184.087 498.735 184.458 499.111 184.458 499.571C184.458 500.03 184.083 500.406 183.624 500.406ZM163.79 500.406H153.873C153.41 500.406 153.039 500.03 153.039 499.571C153.039 499.108 153.414 498.735 153.873 498.735H163.79C164.253 498.735 164.624 499.111 164.624 499.571C164.624 500.03 164.253 500.406 163.79 500.406Z" fill="#0065FF"/>
<path d="M258.057 505.427C257.594 505.427 257.222 505.051 257.222 504.592V500.406H253.043C252.58 500.406 252.209 500.03 252.209 499.571C252.209 499.108 252.584 498.735 253.043 498.735H258.06C258.523 498.735 258.895 499.111 258.895 499.571V504.595C258.891 505.055 258.519 505.427 258.057 505.427Z" fill="#0065FF"/>
<path d="M258.056 604.736C257.594 604.736 257.222 604.36 257.222 603.901V593.969C257.222 593.506 257.598 593.134 258.056 593.134C258.515 593.134 258.891 593.51 258.891 593.969V603.901C258.891 604.36 258.519 604.736 258.056 604.736ZM258.056 584.873C257.594 584.873 257.222 584.497 257.222 584.038V574.107C257.222 573.643 257.598 573.271 258.056 573.271C258.515 573.271 258.891 573.647 258.891 574.107V584.038C258.891 584.501 258.519 584.873 258.056 584.873ZM258.056 565.015C257.594 565.015 257.222 564.639 257.222 564.179V554.244C257.222 553.781 257.598 553.409 258.056 553.409C258.515 553.409 258.891 553.785 258.891 554.244V564.175C258.891 564.639 258.519 565.015 258.056 565.015ZM258.056 545.152C257.594 545.152 257.222 544.776 257.222 544.317V534.385C257.222 533.922 257.598 533.55 258.056 533.55C258.515 533.55 258.891 533.926 258.891 534.385V544.317C258.891 544.776 258.519 545.152 258.056 545.152ZM258.056 525.29C257.594 525.29 257.222 524.914 257.222 524.454V514.523C257.222 514.059 257.598 513.687 258.056 513.687C258.515 513.687 258.891 514.063 258.891 514.523V524.454C258.891 524.914 258.519 525.29 258.056 525.29Z" fill="#0065FF"/>
<path d="M241.825 486.771L125.65 488.097L127.006 607.238L243.181 605.912L241.825 486.771Z" fill="#003E9C"/>
<path d="M142.526 579.048C170.518 578.729 198.509 578.41 226.5 578.091C213.629 536.846 205.669 526.467 200.538 527.093C193.124 528.001 191.182 551.931 180.988 552.733C174.86 553.215 172.311 544.818 166.13 544.586C160.813 544.381 152.963 550.222 142.526 579.048Z" fill="#F7F1EB"/>
<path d="M170.834 530.973C176.72 529.872 180.601 524.201 179.501 518.306C178.402 512.411 172.739 508.525 166.853 509.626C160.967 510.727 157.086 516.398 158.185 522.293C159.285 528.188 164.948 532.074 170.834 530.973Z" fill="#F7F1EB"/>
<path d="M449.316 404.732H365.452C364.99 404.732 364.618 404.356 364.618 403.896V302.495C364.618 302.031 364.993 301.659 365.452 301.659H424.321C424.598 301.659 424.859 301.8 425.015 302.031L434.974 316.862L449.783 326.736C450.014 326.892 450.154 327.154 450.154 327.431V403.9C450.151 404.356 449.779 404.732 449.316 404.732ZM366.287 403.057H448.478V327.875L433.904 318.157C433.813 318.096 433.733 318.02 433.673 317.925L423.873 303.326H366.287V403.057Z" fill="white"/>
<path d="M424.321 327.427H449.248L424.321 302.464V327.427Z" fill="white"/>
<path d="M334.886 419.923H418.75V343.454L403.804 333.488L393.754 318.521H334.886V419.923Z" fill="#F7F1EB"/>
<path d="M406.956 360.859H377.307C376.844 360.859 376.473 360.483 376.473 360.024C376.473 359.56 376.848 359.188 377.307 359.188H406.956C407.418 359.188 407.79 359.564 407.79 360.024C407.79 360.483 407.418 360.859 406.956 360.859Z" fill="#003E9C"/>
<path d="M370.837 360.859H353.848C353.385 360.859 353.013 360.483 353.013 360.024C353.013 359.56 353.389 359.188 353.848 359.188H370.837C371.3 359.188 371.672 359.564 371.672 360.024C371.672 360.483 371.3 360.859 370.837 360.859Z" fill="#003E9C"/>
<path d="M406.956 372.727H392.052C391.589 372.727 391.217 372.351 391.217 371.892C391.217 371.428 391.593 371.056 392.052 371.056H406.956C407.418 371.056 407.79 371.432 407.79 371.892C407.79 372.351 407.418 372.727 406.956 372.727Z" fill="#003E9C"/>
<path d="M385.586 372.727H353.848C353.385 372.727 353.013 372.351 353.013 371.892C353.013 371.428 353.389 371.056 353.848 371.056H385.586C386.048 371.056 386.42 371.432 386.42 371.892C386.42 372.351 386.048 372.727 385.586 372.727Z" fill="#003E9C"/>
<path d="M397.255 384.591H353.848C353.385 384.591 353.013 384.215 353.013 383.756C353.013 383.296 353.389 382.92 353.848 382.92H397.255C397.717 382.92 398.089 383.296 398.089 383.756C398.089 384.215 397.717 384.591 397.255 384.591Z" fill="#003E9C"/>
<path d="M393.754 343.454H418.682L393.754 318.491V343.454Z" fill="white"/>
<path d="M604.036 569.352H561.862V714.561H604.036V569.352Z" fill="#0065FF"/>
<path d="M599.88 569.777H559.431V714.987H599.88V569.777Z" fill="white"/>
<path d="M586.849 568.114H484.16V717.687H586.849V568.114Z" fill="#0065FF"/>
<path d="M594.484 568.163H582.602V638.153H594.484V568.163Z" fill="#0065FF"/>
<path d="M256.619 358.349L250.005 371.296L140.251 358.349L198.433 312.327L256.619 358.349Z" fill="#003E9C"/>
<path d="M256.623 358.6H140.251V444.734H256.623V358.6Z" fill="#003E9C"/>
<path d="M256.619 358.6H140.251L198.433 421.708L256.619 358.6Z" fill="#003E9C"/>
<path d="M242.303 374.125V332.923L226.667 322.494L216.155 306.835H154.567V374.125L198.433 423.087L242.303 374.125Z" fill="#F7F1EB"/>
<path d="M229.963 340.253H198.945C198.483 340.253 198.111 339.877 198.111 339.417C198.111 338.958 198.487 338.582 198.945 338.582H229.963C230.426 338.582 230.797 338.958 230.797 339.417C230.797 339.877 230.426 340.253 229.963 340.253Z" fill="#003E9C"/>
<path d="M192.18 340.253H174.401C173.939 340.253 173.567 339.877 173.567 339.417C173.567 338.958 173.942 338.582 174.401 338.582H192.176C192.639 338.582 193.01 338.958 193.01 339.417C193.01 339.877 192.642 340.253 192.18 340.253Z" fill="#003E9C"/>
<path d="M229.963 352.668H214.373C213.91 352.668 213.538 352.292 213.538 351.832C213.538 351.369 213.914 350.997 214.373 350.997H229.963C230.426 350.997 230.797 351.373 230.797 351.832C230.801 352.292 230.426 352.668 229.963 352.668Z" fill="#003E9C"/>
<path d="M207.607 352.668H174.401C173.939 352.668 173.567 352.292 173.567 351.832C173.567 351.369 173.942 350.997 174.401 350.997H207.607C208.07 350.997 208.441 351.373 208.441 351.832C208.445 352.292 208.07 352.668 207.607 352.668Z" fill="#003E9C"/>
<path d="M219.815 365.083H174.401C173.939 365.083 173.567 364.707 173.567 364.247C173.567 363.784 173.942 363.412 174.401 363.412H219.815C220.277 363.412 220.649 363.788 220.649 364.247C220.653 364.707 220.277 365.083 219.815 365.083Z" fill="#003E9C"/>
<path d="M216.155 332.923H242.231L216.155 306.805V332.923Z" fill="white"/>
<path d="M256.619 444.734H140.251L198.433 381.626L256.619 444.734Z" fill="#0065FF"/>
<path d="M147.115 438.126C146.91 438.126 146.709 438.054 146.546 437.902C146.209 437.59 146.186 437.059 146.501 436.717L197.823 381.056C198.141 380.714 198.733 380.714 199.051 381.056L234.98 420.022C235.295 420.364 235.272 420.891 234.935 421.207C234.597 421.518 234.066 421.499 233.751 421.161L198.437 382.86L147.73 437.856C147.566 438.035 147.343 438.126 147.115 438.126Z" fill="#F7F1EB"/>
<path d="M643.955 361.755H494.195V410.242H508.31V445.809L538.429 410.242H643.955V361.755Z" fill="#003E9C"/>
<path d="M512.944 452.117C512.849 452.117 512.751 452.102 512.656 452.064C512.326 451.942 512.11 451.627 512.11 451.278V416.55H498.833C498.37 416.55 497.999 416.174 497.999 415.715V367.228C497.999 366.765 498.374 366.393 498.833 366.393H648.593C649.055 366.393 649.427 366.769 649.427 367.228V415.715C649.427 416.178 649.052 416.55 648.593 416.55H543.454L513.585 451.817C513.418 452.01 513.183 452.117 512.944 452.117ZM499.663 414.879H512.94C513.403 414.879 513.775 415.255 513.775 415.715V448.995L542.418 415.172C542.578 414.982 542.809 414.875 543.055 414.875H647.747V368.067H499.66V414.879H499.663Z" fill="#0065FF"/>
<path d="M634.599 378.071H607.427C606.964 378.071 606.593 377.695 606.593 377.235C606.593 376.772 606.968 376.4 607.427 376.4H634.599C635.062 376.4 635.433 376.776 635.433 377.235C635.437 377.695 635.062 378.071 634.599 378.071Z" fill="white"/>
<path d="M600.638 378.071H539.506C539.043 378.071 538.671 377.695 538.671 377.235C538.671 376.772 539.047 376.4 539.506 376.4H600.638C601.101 376.4 601.473 376.776 601.473 377.235C601.473 377.695 601.101 378.071 600.638 378.071Z" fill="white"/>
<path d="M535.622 378.071H506.512C506.05 378.071 505.678 377.695 505.678 377.235C505.678 376.772 506.053 376.4 506.512 376.4H535.622C536.085 376.4 536.457 376.776 536.457 377.235C536.46 377.695 536.085 378.071 535.622 378.071Z" fill="white"/>
<path d="M634.599 389.734H586.08C585.617 389.734 585.245 389.358 585.245 388.899C585.245 388.435 585.621 388.063 586.08 388.063H634.599C635.062 388.063 635.433 388.439 635.433 388.899C635.437 389.358 635.062 389.734 634.599 389.734Z" fill="white"/>
<path d="M582.2 389.734H560.853C560.39 389.734 560.019 389.358 560.019 388.899C560.019 388.435 560.394 388.063 560.853 388.063H582.2C582.663 388.063 583.034 388.439 583.034 388.899C583.038 389.358 582.663 389.734 582.2 389.734Z" fill="white"/>
<path d="M554.061 389.734H506.512C506.05 389.734 505.678 389.358 505.678 388.899C505.678 388.435 506.053 388.063 506.512 388.063H554.061C554.523 388.063 554.895 388.439 554.895 388.899C554.895 389.358 554.523 389.734 554.061 389.734Z" fill="white"/>
<path d="M634.599 402.365H607.427C606.964 402.365 606.593 401.989 606.593 401.53C606.593 401.067 606.968 400.694 607.427 400.694H634.599C635.062 400.694 635.433 401.07 635.433 401.53C635.437 401.989 635.062 402.365 634.599 402.365Z" fill="white"/>
<path d="M598.697 402.365H542.414C541.952 402.365 541.58 401.989 541.58 401.53C541.58 401.067 541.956 400.694 542.414 400.694H598.697C599.159 400.694 599.531 401.07 599.531 401.53C599.535 401.989 599.159 402.365 598.697 402.365Z" fill="white"/>
<path d="M537.564 402.365H504.571C504.108 402.365 503.736 401.989 503.736 401.53C503.736 401.067 504.112 400.694 504.571 400.694H537.564C538.027 400.694 538.398 401.07 538.398 401.53C538.398 401.989 538.027 402.365 537.564 402.365Z" fill="white"/>
<path d="M434.511 223.432H584.275V271.918H570.16V307.485L540.041 271.918H434.511V223.432Z" fill="#0065FF"/>
<path d="M565.525 313.793C565.283 313.793 565.047 313.687 564.888 313.497L535.02 278.23H429.88C429.418 278.23 429.046 277.854 429.046 277.395V228.904C429.046 228.441 429.422 228.069 429.88 228.069H579.64C580.103 228.069 580.475 228.445 580.475 228.904V277.395C580.475 277.858 580.099 278.23 579.64 278.23H566.36V312.958C566.36 313.311 566.14 313.622 565.813 313.744C565.719 313.778 565.62 313.793 565.525 313.793ZM430.715 276.556H535.406C535.653 276.556 535.884 276.662 536.044 276.852L564.687 310.675V277.395C564.687 276.932 565.063 276.559 565.521 276.559H578.802V229.74H430.715V276.556Z" fill="#0065FF"/>
<path d="M471.828 239.424H443.688C443.226 239.424 442.854 239.048 442.854 238.589C442.854 238.126 443.229 237.753 443.688 237.753H471.828C472.29 237.753 472.662 238.129 472.662 238.589C472.666 239.048 472.29 239.424 471.828 239.424Z" fill="white"/>
<path d="M538.785 239.424H477.653C477.19 239.424 476.818 239.048 476.818 238.589C476.818 238.126 477.194 237.753 477.653 237.753H538.785C539.248 237.753 539.62 238.129 539.62 238.589C539.62 239.048 539.248 239.424 538.785 239.424Z" fill="white"/>
<path d="M571.779 239.424H543.636C543.173 239.424 542.802 239.048 542.802 238.589C542.802 238.126 543.177 237.753 543.636 237.753H571.779C572.241 237.753 572.613 238.129 572.613 238.589C572.613 239.048 572.241 239.424 571.779 239.424Z" fill="white"/>
<path d="M493.175 251.084H443.685C443.222 251.084 442.85 250.708 442.85 250.248C442.85 249.789 443.226 249.413 443.685 249.413H493.175C493.638 249.413 494.009 249.789 494.009 250.248C494.009 250.708 493.638 251.084 493.175 251.084Z" fill="white"/>
<path d="M516.467 251.084H496.087C495.625 251.084 495.253 250.708 495.253 250.248C495.253 249.789 495.628 249.413 496.087 249.413H516.467C516.93 249.413 517.302 249.789 517.302 250.248C517.302 250.708 516.93 251.084 516.467 251.084Z" fill="white"/>
<path d="M571.779 251.084H524.23C523.768 251.084 523.396 250.708 523.396 250.248C523.396 249.789 523.771 249.413 524.23 249.413H571.779C572.241 249.413 572.613 249.789 572.613 250.248C572.613 250.708 572.241 251.084 571.779 251.084Z" fill="white"/>
<path d="M471.828 263.719H443.689C443.226 263.719 442.854 263.343 442.854 262.883C442.854 262.424 443.23 262.048 443.689 262.048H471.828C472.29 262.048 472.662 262.424 472.662 262.883C472.662 263.343 472.29 263.719 471.828 263.719Z" fill="white"/>
<path d="M535.873 263.719H478.62C478.157 263.719 477.785 263.343 477.785 262.883C477.785 262.424 478.161 262.048 478.62 262.048H535.873C536.336 262.048 536.707 262.424 536.707 262.883C536.707 263.343 536.336 263.719 535.873 263.719Z" fill="white"/>
<path d="M572.746 263.719H539.753C539.29 263.719 538.918 263.343 538.918 262.883C538.918 262.424 539.294 262.048 539.753 262.048H572.746C573.209 262.048 573.58 262.424 573.58 262.883C573.58 263.343 573.209 263.719 572.746 263.719Z" fill="white"/>
<path d="M530.59 817.645H406.22C405.757 817.645 405.385 817.269 405.385 816.81V666.431C405.385 665.968 405.761 665.596 406.22 665.596H493.523C493.8 665.596 494.062 665.736 494.217 665.968L509.027 688.026L531.056 702.712C531.288 702.868 531.428 703.13 531.428 703.407V816.81C531.424 817.269 531.049 817.645 530.59 817.645ZM407.054 815.97H529.752V703.851L507.957 689.321C507.866 689.26 507.787 689.184 507.726 689.093L493.072 667.267H407.05V815.97H407.054Z" fill="white"/>
<path d="M493.52 703.407H530.488L493.52 666.386V703.407Z" fill="white"/>
<path d="M360.412 840.211H484.782V726.809L462.616 712.031L447.712 689.833H360.412V840.211Z" fill="#0065FF"/>
<path d="M467.292 752.216H423.32C422.857 752.216 422.486 751.84 422.486 751.38C422.486 750.917 422.861 750.545 423.32 750.545H467.292C467.755 750.545 468.127 750.921 468.127 751.38C468.127 751.844 467.755 752.216 467.292 752.216Z" fill="#003E9C"/>
<path d="M413.729 752.216H388.529C388.066 752.216 387.695 751.84 387.695 751.38C387.695 750.917 388.07 750.545 388.529 750.545H413.729C414.192 750.545 414.564 750.921 414.564 751.38C414.564 751.844 414.192 752.216 413.729 752.216Z" fill="#003E9C"/>
<path d="M467.292 769.815H445.191C444.728 769.815 444.356 769.439 444.356 768.98C444.356 768.516 444.732 768.144 445.191 768.144H467.292C467.755 768.144 468.127 768.52 468.127 768.98C468.127 769.443 467.755 769.815 467.292 769.815Z" fill="#003E9C"/>
<path d="M435.6 769.815H388.529C388.066 769.815 387.695 769.439 387.695 768.98C387.695 768.516 388.07 768.144 388.529 768.144H435.6C436.062 768.144 436.434 768.52 436.434 768.98C436.434 769.443 436.062 769.815 435.6 769.815Z" fill="#003E9C"/>
<path d="M452.904 787.414H388.529C388.066 787.414 387.695 787.038 387.695 786.578C387.695 786.115 388.07 785.743 388.529 785.743H452.904C453.367 785.743 453.739 786.119 453.739 786.578C453.742 787.042 453.367 787.414 452.904 787.414Z" fill="#003E9C"/>
<path d="M448.19 727.174H485.158L448.19 690.153V727.174Z" fill="white"/>
</svg>
