<svg width="340" height="446" viewBox="0 0 340 446" fill="none" xmlns="http://www.w3.org/2000/svg">
<path d="M20.8561 52.6766L-134.216 241.345C-141.405 250.092 -139.55 262.204 -130.074 268.399L92.5629 413.933C108.205 424.158 130.27 411.313 126.773 394.017L59.2087 59.8138C55.8697 43.2978 32.1873 38.8905 20.8561 52.6766Z" stroke="#003E9C" stroke-width="3"/>
<path d="M-151.031 227.347L3.70446 39.0885C15.9161 24.2312 41.45 29.0771 44.8945 46.9057L108.891 378.146C112.468 396.661 88.8634 410.29 72.146 399.362L-146.585 256.381C-156.755 249.732 -158.746 236.734 -151.031 227.347Z" fill="#003E9C"/>
<path d="M-32.9331 140.118L-87.4653 220.857C-91.8948 227.415 -89.81 235.723 -82.8089 239.413L24.1887 295.802C36.1503 302.106 50.9749 290.809 46.4073 278.871L-6.05812 141.743C-10.1247 131.114 -26.1955 130.143 -32.9331 140.118Z" stroke="#003E9C" stroke-width="2.09699"/>
</svg>
