<svg width="154" height="272" viewBox="0 0 154 272" fill="none" xmlns="http://www.w3.org/2000/svg">
<path d="M85.4826 112.207L117.229 191.807C118.701 195.498 116.79 199.35 112.962 200.411L23.021 225.35C16.7018 227.102 10.6932 220.457 13.705 215.046L71.8994 110.507C74.7753 105.341 83.1629 106.391 85.4826 112.207Z" stroke="#003E9C" stroke-width="1.05271"/>
<path d="M76.4603 17.0475L150.197 201.932C151.669 205.623 149.758 209.475 145.93 210.536L-52.4589 265.545C-58.6912 267.273 -64.6731 260.814 -61.8579 255.396L62.7942 15.502C65.5585 10.182 74.1078 11.1489 76.4603 17.0475Z" stroke="#003E9C" stroke-width="1.05271"/>
<path d="M124.342 188.919L92.6645 109.492C90.1645 103.223 81.1112 102.123 78.0602 107.717L21.3744 211.646C18.2059 217.455 24.6458 224.526 31.3993 222.654L119.763 198.152C123.871 197.013 125.921 192.879 124.342 188.919Z" fill="#003E9C"/>
</svg>
