<svg width="268" height="82" viewBox="0 0 268 82" fill="none" xmlns="http://www.w3.org/2000/svg">
<path d="M73.2756 80.4411H5.36163C2.40096 80.4411 0 78.033 0 75.0634V7.37771C0 4.40817 2.40096 2 5.36163 2H73.2756C76.2363 2 78.6372 4.40817 78.6372 7.37771V75.0634C78.6372 78.033 76.2363 80.4411 73.2756 80.4411Z" fill="white"/>
<path opacity="0.22" d="M63.3286 50.3864L44.7459 36.9874C38.6865 32.6184 30.671 32.0721 24.075 35.5788L42.6411 48.9316C48.7056 53.2932 56.7133 53.8564 63.3286 50.3864Z" fill="#0065FF"/>
<path d="M7.86239 37.8092C7.38675 40.8223 7.36002 43.8032 7.74098 46.6827C8.8716 55.2999 13.608 63.0115 20.6145 68.0008C20.6724 68.0453 20.7292 68.0854 20.7872 68.1266C21.2104 68.4252 21.6426 68.7137 22.0826 68.9899C22.5438 69.2795 23.8571 70.4614 24.0476 70.878C23.6377 70.7087 21.6749 69.8165 21.0099 69.4433C21.0099 69.4433 20.9242 69.3943 20.8351 69.3442C17.3585 67.367 14.3276 64.7615 11.8781 61.7127C11.0148 60.6456 10.2295 59.5228 9.5199 58.3509C7.35333 54.7986 5.89522 50.8075 5.30039 46.5947C4.88267 43.6238 4.89158 40.5439 5.38393 37.426C8.07961 20.3798 24.2247 8.72709 41.4414 11.3983C41.8569 11.4618 42.2679 11.533 42.6767 11.6155C25.9323 9.67838 10.4957 21.1773 7.86239 37.8092Z" fill="#0065FF"/>
<circle cx="37.6375" cy="41.6375" r="28.739" fill="#003E9C"/>
<path d="M25.3778 74.3099C23.9832 69.4689 21.5671 62.9447 17.2674 55.9894C17.0925 55.7076 16.9187 55.4302 16.745 55.1573C16.0599 54.0824 15.367 53.0553 14.672 52.0784C12.7694 48.8236 11.4873 45.1688 10.9648 41.3091C11.6789 41.3347 12.3951 41.3637 13.1091 41.3893C14.584 41.4439 16.0566 41.4996 17.5303 41.5541C19.2424 44.5138 21.0358 48.2087 22.485 52.6176C23.4474 55.5494 24.1191 58.3743 24.5747 61.031C24.646 61.4364 24.7117 61.8397 24.7696 62.2373C25.4847 66.9603 25.5304 71.1008 25.3778 74.3099Z" fill="#0065FF" stroke="white" stroke-width="1.44809" stroke-miterlimit="10"/>
<path d="M42.8737 33.0601H25.4966V43.0353V56.3402V56.4965V60.9258V62.3578V64.4725" stroke="white" stroke-width="1.44809" stroke-miterlimit="10" stroke-linecap="square" stroke-linejoin="round"/>
<rect x="25.7188" y="33.2832" width="24.5061" height="31.1896" fill="#0065FF"/>
<path d="M25.3779 61.4282C25.3758 61.7281 25.3716 62.0217 25.3695 62.3091C25.2919 69.6199 25.0717 72.8507 25.0518 72.9828C25.0518 72.9828 25.0518 72.9807 25.0518 72.9786C25.1189 69.9723 24.9973 66.1249 24.3136 61.7334C24.2559 61.3517 24.193 60.9647 24.1259 60.5747C23.5649 57.3596 22.6998 53.8762 21.3943 50.2333C19.3138 44.422 16.6724 39.7651 14.3267 36.2869C17.9244 36.0646 21.5232 35.8444 25.1231 35.6221C25.1839 38.5896 25.2657 42.8491 25.3328 47.9704C25.4041 53.4179 25.4083 57.8703 25.3779 61.4282Z" fill="#0065FF" stroke="white" stroke-width="1.36319" stroke-miterlimit="10"/>
<path d="M47.6071 36.5698C44.4882 33.4508 47.2173 29.4407 49.5008 28.4939L47.9831 26.3914L47.2173 27.1572H45.7135L44.3768 28.4939L44.8223 29.4407L43.9312 31.9471L42.9844 32.2812L43.2072 34.7875H43.9312L44.8223 37.6837V38.7419L45.7135 39.6331H47.2173L49.7236 40.6356L50.559 41.471L52.6754 40.9698L54.0121 39.6331H55.9058L57.7995 37.6837V35.7344L55.9058 34.5091C54.6805 37.1268 50.7261 39.6888 47.6071 36.5698Z" fill="#719F24"/>
<path d="M25.6138 62.884V60.7007L48.2753 60.7007" stroke="white" stroke-width="0.556958" stroke-miterlimit="10"/>
<path d="M50.1251 62.6033C51.1778 62.6033 52.0311 61.75 52.0311 60.6974C52.0311 59.6448 51.1778 58.7915 50.1251 58.7915C49.0725 58.7915 48.2192 59.6448 48.2192 60.6974C48.2192 61.75 49.0725 62.6033 50.1251 62.6033Z" fill="#FF6B6B" stroke="white" stroke-width="0.556958" stroke-miterlimit="10"/>
<path d="M25.6138 55.9392V58.0167H37.663L41.4692 54.8955H47.9923" stroke="white" stroke-width="0.556958" stroke-miterlimit="10"/>
<path d="M50.1251 56.8016C51.1778 56.8016 52.0311 55.9483 52.0311 54.8957C52.0311 53.843 51.1778 52.9897 50.1251 52.9897C49.0725 52.9897 48.2192 53.843 48.2192 54.8957C48.2192 55.9483 49.0725 56.8016 50.1251 56.8016Z" fill="#FF6B6B" stroke="white" stroke-width="0.556958" stroke-miterlimit="10"/>
<path d="M38.2355 49.5858C39.1657 49.5858 39.9197 48.8317 39.9197 47.9015C39.9197 46.9713 39.1657 46.2173 38.2355 46.2173C37.3053 46.2173 36.5513 46.9713 36.5513 47.9015C36.5513 48.8317 37.3053 49.5858 38.2355 49.5858Z" fill="#FF6B6B" stroke="white" stroke-width="0.556958" stroke-miterlimit="10"/>
<path d="M25.2676 47.9014H36.5515" stroke="white" stroke-width="0.556958" stroke-miterlimit="10"/>
<path d="M25.6138 51.3532V53.6279H37.6931L43.4721 49.8784" stroke="white" stroke-width="0.556958" stroke-miterlimit="10"/>
<path d="M44.9181 50.3909C45.9707 50.3909 46.824 49.5376 46.824 48.485C46.824 47.4324 45.9707 46.5791 44.9181 46.5791C43.8655 46.5791 43.0122 47.4324 43.0122 48.485C43.0122 49.5376 43.8655 50.3909 44.9181 50.3909Z" fill="#FF6B6B" stroke="white" stroke-width="0.556958" stroke-miterlimit="10"/>
<path d="M57.5669 35.6804C57.5636 35.6972 57.6282 35.725 57.5613 35.7306C57.5212 35.7339 57.48 35.725 57.4388 35.7217C57.2272 36.1928 57.0033 36.6573 56.707 37.0851C56.6279 37.1987 56.6312 37.3346 56.7092 37.4571C56.766 37.5462 56.825 37.6354 56.8885 37.7189C57.1269 38.0308 57.128 38.0297 56.9453 38.3538C56.9821 38.3338 56.9955 38.2814 57.059 38.2825C56.9097 38.4441 56.7671 38.5989 56.619 38.7593C56.6123 38.6958 56.6635 38.678 56.6802 38.6401C56.4664 38.8596 56.2569 38.8239 56.0397 38.6401C55.974 38.5844 55.8882 38.5543 55.8136 38.5076C55.6409 38.3995 55.4861 38.4285 55.3313 38.5521C54.4791 39.2294 53.5178 39.6716 52.4518 39.8899C52.3861 39.9033 52.3137 39.9 52.2591 39.9512C52.2391 40.0503 52.1778 40.1105 52.0853 40.145C52.0207 40.3088 52.014 40.4836 51.984 40.6541C51.9561 40.8089 51.8748 40.9348 51.72 40.9571C51.4704 40.9938 51.2154 41.0295 50.9647 40.947C50.9179 41.0228 50.9068 40.9348 50.8812 40.9248C50.8678 40.9192 50.7988 40.8936 50.8689 40.8579C50.7698 40.6396 50.7865 40.3867 50.6651 40.1751C50.5871 40.1662 50.5392 40.1272 50.5314 40.0459C50.4757 39.9813 50.3955 39.988 50.3231 39.979C49.2894 39.8565 48.3326 39.5201 47.4514 38.9631C47.0226 38.6925 47.0192 38.6969 46.6115 38.9932C46.5859 39.0111 46.5592 39.0289 46.5369 39.05C46.3877 39.1982 46.2161 39.2316 46.0223 39.1514C46.0279 39.1614 46.0379 39.1715 46.0401 39.1826C46.0446 39.2038 46.0334 39.2171 46.0156 39.2004C45.9744 39.1614 45.9131 39.1347 45.9142 39.0634C45.8385 38.9888 45.7616 38.9164 45.6859 38.8406C45.4999 38.6546 45.4832 38.4886 45.6235 38.2703C45.6881 38.1712 45.7438 38.0653 45.8095 37.9662C45.9309 37.7835 45.9076 37.6153 45.7739 37.4493C45.0821 36.5905 44.6399 35.6147 44.4205 34.5364C44.406 34.4652 44.4082 34.385 44.3403 34.3337C44.259 34.3315 44.2155 34.2869 44.2021 34.2101C43.9816 34.102 43.731 34.1399 43.5037 34.0608C43.4948 34.1276 43.4558 34.0831 43.4503 34.0686C43.4391 34.0341 43.34 34.0408 43.4046 33.9728C43.3066 33.7678 43.33 33.5473 43.3233 33.3312C43.3166 33.1073 43.4168 32.9881 43.6352 32.9313C43.7967 32.889 43.9649 32.8689 44.1175 32.7921C44.1431 32.6974 44.201 32.6339 44.2935 32.6016C44.3325 32.5481 44.328 32.4835 44.3347 32.4222C44.4583 31.3941 44.7914 30.4417 45.3473 29.5662C45.6057 29.1596 45.6012 29.1562 45.3172 28.7563C45.2994 28.7307 45.2826 28.7029 45.2604 28.6817C45.0989 28.5202 45.0543 28.3464 45.1969 28.1493C45.1868 28.1548 45.1768 28.1637 45.1657 28.166C45.1467 28.1704 45.1289 28.1626 45.1468 28.1437C45.1857 28.1014 45.2114 28.0401 45.2838 28.0412C45.3818 27.9454 45.4776 27.8474 45.5778 27.7538C45.7148 27.6246 45.8585 27.6112 46.0167 27.726C46.1225 27.8028 46.2373 27.8674 46.352 27.9309C46.5726 28.0535 46.675 28.039 46.8733 27.8697C46.8811 27.7003 47.0772 27.6859 47.1306 27.5477C47.1707 27.5722 47.144 27.6023 47.1384 27.6246C47.1329 27.648 47.1162 27.668 47.1039 27.6892C47.4604 27.4653 47.9872 27.1155 48.3871 26.934C48.2814 26.8337 48.22 26.7112 48.1643 26.6555C48.1086 26.5441 47.9814 26.4231 47.9783 26.2656C47.6987 26.3926 47.4514 26.5129 47.2164 26.6555C47.056 26.7535 46.9001 26.7591 46.7441 26.6455C46.6283 26.5608 46.5057 26.484 46.391 26.3971C46.2417 26.2846 46.0902 26.2757 45.941 26.3859C45.6747 26.5831 45.4174 26.7925 45.1935 27.0387C45.0632 27.2938 44.8293 27.4609 44.6499 27.6747C44.5965 27.7382 44.5553 27.8262 44.455 27.8385C44.2946 28.0056 44.1543 28.1871 44.0395 28.3887C44.0629 28.372 44.0852 28.3542 44.1309 28.3208C44.0952 28.3977 44.0674 28.4422 44.0005 28.4411C43.7399 28.7541 43.7376 28.88 43.9894 29.1863C44.0484 29.2587 44.1052 29.3333 44.1687 29.4024C44.3113 29.5561 44.318 29.7188 44.2278 29.9014C44.005 30.3492 43.8368 30.8182 43.7187 31.3039C43.6686 31.5122 43.5516 31.6191 43.3433 31.6637C43.1629 31.7015 42.969 31.6871 42.8042 31.7918C42.7942 31.8831 42.7418 31.9366 42.6538 31.9577C42.6449 31.9733 42.6304 31.9889 42.6271 32.0056C42.4767 33.0449 42.519 34.0764 42.7541 35.099C42.7919 35.2616 42.9089 35.3518 43.076 35.3697C43.2375 35.3864 43.4001 35.3986 43.5616 35.412C43.7287 35.4265 43.8412 35.5145 43.8947 35.6715C44.0674 36.175 44.2879 36.6562 44.5597 37.114C44.6488 37.2633 44.6388 37.4104 44.5397 37.554C44.504 37.6053 44.4762 37.6599 44.4439 37.7133C44.4684 37.6966 44.4918 37.6799 44.5296 37.6532C44.4996 37.7234 44.4695 37.7668 44.4027 37.7668C44.1687 38.0275 44.132 38.1823 44.2779 38.3772C44.8917 39.1993 45.6346 39.8821 46.5013 40.4313C46.6583 40.5315 46.8087 40.5171 46.9513 40.399C47.0616 40.3076 47.1774 40.2196 47.2844 40.1239C47.4392 39.9857 47.5996 39.9724 47.7845 40.0659C48.1365 40.243 48.5041 40.3901 48.8828 40.497C49.5222 40.6786 49.4743 40.6184 49.5812 41.289C49.628 41.582 49.7127 41.6644 50.0023 41.7023C50.9681 41.827 51.9272 41.788 52.8796 41.5886C52.9453 41.5753 53.0188 41.5753 53.0656 41.5129C53.0667 41.4305 53.1101 41.3859 53.1903 41.3737C53.285 41.1832 53.2494 40.9704 53.2839 40.7699C53.314 40.5973 53.3998 40.4848 53.5635 40.4302C54.0625 40.2642 54.5393 40.0492 54.9915 39.7808C55.1397 39.6928 55.2856 39.6928 55.4293 39.7986C55.5552 39.891 55.6844 39.979 55.8136 40.067C55.9517 40.1617 56.101 40.1695 56.2324 40.0704C56.5321 39.8443 56.8217 39.607 57.0734 39.3274C57.235 39.0679 57.4399 38.8484 57.6828 38.6646C57.9267 38.404 58.1294 38.1099 58.321 37.8102C58.4157 37.6621 58.399 37.5117 58.2865 37.3758C58.203 37.2745 58.1183 37.1742 58.0303 37.0762C57.8788 36.908 57.8565 36.7331 57.9646 36.527C58.0882 36.292 58.184 36.0436 58.272 35.7673C58.0225 35.7851 57.7841 35.7985 57.5669 35.6804Z" fill="white"/>
<path d="M55.853 34.2574C55.8185 34.2708 55.784 34.2964 55.7505 34.2953C55.364 34.2719 55.3128 34.5615 55.217 34.8355C54.9764 35.5206 54.5486 36.0842 54.0295 36.5832C54.0273 36.6768 53.9427 36.7058 53.8847 36.7559C53.8992 36.7292 53.9137 36.7035 53.9282 36.6768C53.8925 36.7002 53.8535 36.7214 53.8201 36.7481C52.2373 38.018 49.9437 38.028 48.3152 36.7715C46.7211 35.5406 46.1575 33.3206 46.9651 31.4793C47.2391 30.8555 47.6412 30.3286 48.1392 29.8697C48.1291 29.8207 48.1637 29.7928 48.1926 29.7627C48.2015 29.7527 48.2171 29.7304 48.2294 29.7538C48.2294 29.7549 48.2294 29.7561 48.2294 29.7561C48.235 29.7549 48.2405 29.7561 48.2472 29.7605C48.2405 29.7594 48.235 29.7605 48.2305 29.7616C48.2294 29.7728 48.2194 29.7895 48.2149 29.8028C48.6226 29.5054 49.0448 29.2336 49.5271 29.0699C49.5939 29.0476 49.6106 29.0053 49.604 28.9418C49.5895 28.8092 49.6262 28.6834 49.663 28.5586C49.6318 28.4383 49.4859 28.4026 49.458 28.2801C49.4057 28.2489 49.3633 28.289 49.3199 28.3046C48.1937 28.6989 47.3004 29.3974 46.651 30.3943C45.4513 32.2367 45.5315 34.6339 46.8359 36.385C48.1503 38.1494 50.406 38.9102 52.5202 38.2942C53.3445 38.0547 54.0752 37.6493 54.6812 37.031C54.797 36.8149 54.963 36.6445 55.1613 36.5053C55.3417 36.3137 55.4787 36.0909 55.6046 35.8625C55.8508 35.4181 56.0669 34.9603 56.1404 34.449C56.0246 34.4189 55.9655 34.2975 55.853 34.2574ZM54.5341 36.1265C54.4172 36.2524 54.3013 36.3794 54.1844 36.5053C54.1799 36.5019 54.1755 36.4975 54.171 36.4941C54.288 36.3671 54.4038 36.2413 54.5208 36.1154C54.5263 36.1187 54.5308 36.1232 54.5341 36.1265Z" fill="white"/>
<path d="M52.4978 32.44C52.4265 32.3208 52.4355 32.2573 52.5268 32.1581C53.6786 30.9161 54.827 29.6697 55.9755 28.4243C56.0056 28.392 56.0323 28.3575 56.0646 28.3285C56.1348 28.2628 56.0713 28.236 56.0312 28.2004C56.0212 28.2037 56.0111 28.206 56.0011 28.2082C56.0044 28.2283 56.059 28.2973 55.9799 28.2438C55.8841 28.1792 55.8073 28.0879 55.7193 28.011C55.6747 27.9721 55.6413 27.9119 55.5678 27.9208C55.5834 27.9431 55.6135 27.991 55.6068 27.9888C55.4597 27.9453 55.4252 28.0801 55.3617 28.148C54.279 29.3154 53.1996 30.4873 52.1191 31.6569C52.0701 31.7092 52.0367 31.7861 51.9498 31.7928C51.8885 31.8362 51.8462 31.7872 51.7972 31.7627C50.9584 31.3528 50.0495 31.5767 49.5014 32.3263C49.0358 32.9635 49.0859 33.9538 49.6095 34.4907C49.7576 34.5508 49.8668 34.6533 49.9403 34.7948C50.5541 35.2949 51.6334 35.2259 52.167 34.6533C52.2004 34.5319 52.2784 34.4517 52.3931 34.4049C52.8264 33.8959 52.8766 33.0704 52.4978 32.44ZM51.8852 32.5625C52.1191 32.8878 52.2238 33.2431 52.1258 33.6408C51.9643 34.2924 51.2904 34.6801 50.6409 34.4974C50.0027 34.318 49.6317 33.643 49.82 33.0058C50.0105 32.3631 50.7 32.0022 51.3405 32.2116C51.3995 32.2306 51.4574 32.2517 51.5165 32.2718C51.5031 32.245 51.4563 32.1949 51.5421 32.2306C51.727 32.3063 51.8273 32.4823 52.0044 32.5892C51.9309 32.6238 51.9164 32.5725 51.8852 32.5625Z" fill="white"/>
<path d="M51.1996 23.8274C52.0301 23.8274 52.7034 23.1541 52.7034 22.3236C52.7034 21.4931 52.0301 20.8198 51.1996 20.8198C50.3691 20.8198 49.6958 21.4931 49.6958 22.3236C49.6958 23.1541 50.3691 23.8274 51.1996 23.8274Z" fill="#FF6B6B" stroke="white" stroke-width="0.556958" stroke-miterlimit="10"/>
<path d="M61.4471 33.2957C62.2777 33.2957 62.9509 32.6224 62.9509 31.7919C62.9509 30.9614 62.2777 30.2881 61.4471 30.2881C60.6166 30.2881 59.9434 30.9614 59.9434 31.7919C59.9434 32.6224 60.6166 33.2957 61.4471 33.2957Z" fill="#FF6B6B" stroke="white" stroke-width="0.556958" stroke-miterlimit="10"/>
<path d="M52.9818 27.7258C53.8123 27.7258 54.4856 27.0526 54.4856 26.2221C54.4856 25.3915 53.8123 24.7183 52.9818 24.7183C52.1513 24.7183 51.478 25.3915 51.478 26.2221C51.478 27.0526 52.1513 27.7258 52.9818 27.7258Z" fill="#FF6B6B" stroke="white" stroke-width="0.556958" stroke-miterlimit="10"/>
<path d="M57.6595 32.0701C58.4901 32.0701 59.1633 31.3968 59.1633 30.5663C59.1633 29.7358 58.4901 29.0625 57.6595 29.0625C56.829 29.0625 56.1558 29.7358 56.1558 30.5663C56.1558 31.3968 56.829 32.0701 57.6595 32.0701Z" fill="#FF6B6B" stroke="white" stroke-width="0.556958" stroke-miterlimit="10"/>
<path d="M57.4374 27.8377C58.2679 27.8377 58.9412 27.1644 58.9412 26.3339C58.9412 25.5033 58.2679 24.8301 57.4374 24.8301C56.6069 24.8301 55.9336 25.5033 55.9336 26.3339C55.9336 27.1644 56.6069 27.8377 57.4374 27.8377Z" fill="#FF6B6B" stroke="white" stroke-width="0.556958" stroke-miterlimit="10"/>
<path d="M50.1734 27.9385C50.306 27.9173 50.4051 27.7124 50.5288 27.5999C50.6324 27.5052 50.6056 27.4484 50.5132 27.3648C50.1679 27.0552 49.8359 26.7321 49.4872 26.4269C49.3536 26.31 49.3213 26.1796 49.2912 26.0114C49.1921 25.4623 49.3514 25.0379 49.7813 24.6803C50.0286 24.4742 50.0097 24.4442 49.7635 24.2392C49.671 24.1623 49.6209 23.9819 49.4995 24.0097C49.3981 24.0331 49.319 24.1724 49.2377 24.267C49.0239 24.5166 48.7688 24.7293 48.5861 25.0078C48.8824 24.6859 49.1787 24.3651 49.475 24.0431C49.1876 24.3729 48.9437 24.7449 48.585 25.0078C48.5694 25.4768 48.6206 25.9435 48.624 26.4113C48.6251 26.5294 48.6696 26.6063 48.7543 26.6831C49.1029 26.9973 49.4438 27.3214 49.7925 27.6355C49.9172 27.7491 50.0308 27.9608 50.1734 27.9385ZM49.9194 24.4631C49.9228 24.4664 49.9272 24.4698 49.9306 24.4731C49.7123 24.7093 49.4939 24.9465 49.2756 25.1827C49.2723 25.1793 49.2678 25.176 49.2645 25.1727C49.4828 24.9365 49.7011 24.6992 49.9194 24.4631Z" fill="white"/>
<path d="M59.9019 33.6236C59.7871 33.6592 59.6936 33.8007 59.6189 33.9143C59.3572 34.3142 58.9952 34.4768 58.524 34.4167C58.4571 34.4078 58.3858 34.4156 58.3179 34.4245C58.2087 34.4401 58.1308 34.4 58.0517 34.3253C57.6863 33.9823 57.3143 33.647 56.95 33.3028C56.8676 33.2248 56.8163 33.2148 56.7417 33.3083C56.6604 33.4119 56.5724 33.5111 56.4744 33.598C56.373 33.6882 56.4064 33.7428 56.49 33.8185C56.9344 34.2229 57.3755 34.6328 57.8177 35.0405C57.8634 35.0817 57.9024 35.1296 57.9759 35.1251C58.475 35.0984 58.974 35.0739 59.473 35.0494C59.4686 34.977 59.5287 34.9425 59.5688 34.8979C59.8406 34.6016 60.1135 34.3064 60.3864 34.0112C60.3229 33.96 60.265 33.8998 60.196 33.8597C60.0812 33.7951 60.0445 33.5801 59.9019 33.6236ZM59.2625 34.3844C59.2591 34.381 59.2558 34.3777 59.2525 34.3755C59.4708 34.1393 59.6891 33.9032 59.9063 33.6659C59.9097 33.6692 59.913 33.6726 59.9164 33.6748C59.698 33.911 59.4808 34.1482 59.2625 34.3844Z" fill="white"/>
<path d="M56.224 32.8688C56.4233 32.6527 56.4222 32.6538 56.2084 32.4678C56.1616 32.4266 56.1103 32.3865 56.0747 32.3363C55.9778 32.2004 55.8998 32.1882 55.7851 32.3308C55.6336 32.5212 55.4531 32.6883 55.2938 32.8732C55.2181 32.9612 55.1379 32.998 55.0209 33.0013C54.533 33.0136 54.0451 33.0403 53.5572 33.0537C53.4459 33.057 53.4091 33.0804 53.4225 33.2018C53.4381 33.3366 53.4358 33.4792 53.4135 33.6129C53.3913 33.7443 53.4392 33.7532 53.5472 33.7477C53.966 33.7254 54.386 33.6864 54.8037 33.7009C55.2849 33.7176 55.6971 33.6385 55.9433 33.1718C56.0368 33.0715 56.1304 32.9701 56.224 32.8688ZM55.9978 32.3475C56.0012 32.343 56.0056 32.3386 56.009 32.333C56.0992 32.4154 56.1883 32.499 56.2785 32.5814C56.2741 32.5858 56.2707 32.5903 56.2663 32.5948C56.1772 32.5123 56.0881 32.4299 55.9978 32.3475Z" fill="white"/>
<path d="M50.3629 30.8442C50.3651 30.9266 50.3851 30.9556 50.472 30.9333C50.6235 30.8943 50.7806 30.8776 50.9365 30.8854C51.0435 30.891 51.0546 30.8487 51.0502 30.7584C51.0334 30.471 51.0245 30.1848 51.0134 29.8974C51.0034 29.6423 50.9254 29.3605 51.0067 29.1377C51.088 28.9149 51.3286 28.75 51.4991 28.5596C51.5069 28.5507 51.5158 28.5406 51.5247 28.5317C51.723 28.3167 51.7218 28.3179 51.5091 28.1307C51.4289 28.0605 51.3554 27.9837 51.2796 27.9102C51.2752 27.9146 51.2707 27.9202 51.2663 27.9246C51.2629 27.9302 51.2607 27.9369 51.2618 27.9447C51.3821 28.0561 51.4801 28.1463 51.5782 28.2365C51.4634 28.1608 51.3465 28.0862 51.2484 27.9469C51.2451 27.9436 51.2406 27.9402 51.2373 27.9358C51.1705 27.9458 51.1404 28.0082 51.0992 28.0516C50.8296 28.3379 50.5623 28.6264 50.2949 28.9149C50.3183 29.5599 50.3417 30.2026 50.3629 30.8442Z" fill="white"/>
<path d="M51.2125 27.9137C51.2203 27.9215 51.2293 27.9293 51.2371 27.9382C51.2382 27.9382 51.2393 27.9382 51.2404 27.9382C51.2348 27.9293 51.2281 27.9215 51.2226 27.9126C51.2315 27.9215 51.2404 27.9293 51.2493 27.9371C51.2515 27.9371 51.2538 27.9359 51.2571 27.9359C51.2593 27.9326 51.2627 27.9304 51.2649 27.927C51.2682 27.9215 51.2716 27.917 51.2783 27.9126C51.2248 27.8246 51.1892 27.8914 51.1546 27.9293C50.8795 28.2256 50.6066 28.523 50.3326 28.8204C50.3069 28.8482 50.2813 28.8761 50.2947 28.9184C50.5832 28.5664 50.8984 28.2412 51.2125 27.9137Z" fill="black"/>
<path d="M58.614 34.753C58.5293 34.8521 58.4235 34.9334 58.3589 35.0504C58.6853 34.7441 58.9704 34.3987 59.2768 34.0746C59.2957 34.0545 59.2968 34.0323 59.2723 34.0122C59.0762 34.2807 58.829 34.5023 58.614 34.753Z" fill="black"/>
<path d="M44.0452 27.0669C43.7867 27.322 43.5394 27.5882 43.3066 27.8667C43.5718 27.6183 43.8179 27.3509 44.0452 27.0669Z" fill="black"/>
<path d="M55.9248 39.3542C56.1275 39.1336 56.3314 38.912 56.5341 38.6914C56.3136 38.8953 56.1086 39.1147 55.9248 39.3542Z" fill="black"/>
<path d="M55.5262 38.7049C55.5217 38.7127 55.5162 38.7193 55.5117 38.726C55.6276 38.6057 55.7445 38.4709 55.8726 38.3384C55.8448 38.3584 55.8292 38.3885 55.7958 38.3829C55.7078 38.4787 55.6198 38.5745 55.5307 38.6703C55.534 38.6826 55.5329 38.6948 55.5262 38.7049Z" fill="black"/>
<path d="M53.5698 37.0287C53.7514 36.8727 53.9073 36.6934 54.0499 36.5029C53.8728 36.6622 53.7091 36.8338 53.5698 37.0287Z" fill="black"/>
<path d="M54.8784 28.2085C54.8807 28.2074 54.8829 28.2074 54.884 28.2063C54.8428 28.165 54.796 28.1305 54.7515 28.0938C54.7927 28.1327 54.8339 28.1717 54.8784 28.2085Z" fill="black"/>
<path d="M54.454 27.9043C54.4551 27.9077 54.4551 27.911 54.4551 27.9132C54.523 27.8642 54.5654 27.9299 54.6088 27.9656C54.6244 27.9778 54.64 27.9923 54.6545 28.0057C54.6244 27.9723 54.5988 27.9355 54.581 27.8898C54.5297 27.8943 54.474 27.803 54.4272 27.8976C54.444 27.8943 54.4518 27.8965 54.454 27.9043Z" fill="black"/>
<path d="M54.4571 27.9131C54.4548 27.9143 54.4536 27.9167 54.4512 27.9179C54.4524 27.9191 54.4536 27.9203 54.4548 27.9214C54.4559 27.9203 54.4571 27.9167 54.4571 27.9131Z" fill="black"/>
<path d="M45.9626 27.6638C45.9526 27.6604 45.9571 27.6704 45.9537 27.6738C45.8835 27.7551 45.7666 27.7874 45.7231 27.8966C45.8 27.8364 45.8769 27.7763 45.9548 27.7161C45.9493 27.6972 45.9548 27.6805 45.9626 27.6638Z" fill="black"/>
<path d="M48.4951 34.4927C48.5831 34.6174 48.6945 34.7177 48.826 34.7968C48.7268 34.6843 48.6176 34.5818 48.4951 34.4927Z" fill="black"/>
<path d="M58.004 31.6064C57.8815 31.7145 57.7679 31.8292 57.6743 31.964C57.8069 31.866 57.9171 31.7468 58.004 31.6064Z" fill="black"/>
<path d="M54.8854 28.206C54.8954 28.2004 54.9065 28.1993 54.9177 28.2004C54.8063 28.0968 54.6949 27.9932 54.5835 27.8896C54.6581 28.02 54.8018 28.0835 54.8854 28.206Z" fill="black"/>
<path d="M54.7519 28.0927C54.7207 28.0627 54.6895 28.0337 54.6572 28.0059C54.6862 28.0382 54.7185 28.066 54.7519 28.0927Z" fill="black"/>
<path d="M54.8843 28.2056C54.8862 28.2075 54.8882 28.2094 54.8901 28.2094C54.8882 28.2075 54.8862 28.2056 54.8843 28.2056Z" fill="black"/>
<path d="M51.1113 39.9805C51.0166 40.0128 50.9631 40.0807 50.9375 40.1743C51.0054 40.1186 51.0455 40.0384 51.1113 39.9805Z" fill="black"/>
<path d="M54.7397 34.2568C54.8723 34.2668 54.9235 34.3993 55.0305 34.4472C54.9358 34.3793 54.9046 34.2167 54.7397 34.2568Z" fill="black"/>
<path d="M55.3875 29.2441C55.2772 29.3288 55.1837 29.429 55.1079 29.546C55.2204 29.4625 55.3118 29.3611 55.3875 29.2441Z" fill="black"/>
<path d="M41.6543 31.8188C41.5752 31.8478 41.5262 31.9035 41.5039 31.9848C41.554 31.9291 41.6075 31.8768 41.6543 31.8188Z" fill="black"/>
<path d="M51.2754 23.7081C51.3745 23.6301 51.4603 23.5399 51.5294 23.4341C51.4258 23.5076 51.3422 23.6012 51.2754 23.7081Z" fill="black"/>
<path d="M42.9663 32.8209C43.0554 32.7863 43.1167 32.7239 43.1423 32.6304C43.081 32.6916 43.0231 32.7551 42.9663 32.8209Z" fill="black"/>
<path d="M51.0537 34.6556C51.1439 34.5866 51.2186 34.5019 51.2798 34.4072C51.1863 34.4741 51.1072 34.5532 51.0537 34.6556Z" fill="black"/>
<path d="M56.4025 35.7324C56.4292 35.7525 56.4025 35.7135 56.4147 35.7101C56.3367 35.6154 56.2978 35.6411 56.2866 35.7513C56.3245 35.7435 56.3523 35.6957 56.4025 35.7324Z" fill="black"/>
<path d="M52.9167 36.582C52.8833 36.6132 52.8488 36.6444 52.8154 36.6756C52.8165 36.6923 52.8154 36.7068 52.812 36.7179C52.8499 36.6823 52.89 36.64 52.9167 36.582Z" fill="black"/>
<path d="M51.917 41.5401C51.9838 41.5167 52.0195 41.4644 52.0418 41.4009C51.9816 41.431 51.9538 41.4889 51.917 41.5401Z" fill="black"/>
<path d="M42.354 34.0909C42.3206 34.062 42.2883 34.0319 42.2549 34.0029C42.2593 34.0653 42.2972 34.0876 42.354 34.0909Z" fill="black"/>
<path d="M49.816 40.9753C49.7837 40.9453 49.7525 40.9163 49.7202 40.8862C49.7224 40.9475 49.7559 40.9765 49.816 40.9753Z" fill="black"/>
<path d="M44.8666 39.2083C44.8778 39.2216 44.86 39.1871 44.8733 39.1793C44.8366 39.1503 44.8009 39.1203 44.7642 39.0913C44.7775 39.1481 44.8332 39.1693 44.8666 39.2083Z" fill="black"/>
<path d="M44.0103 28.1839C44.0192 28.1795 44.0314 28.1761 44.047 28.1784C44.076 28.1427 44.1049 28.106 44.1328 28.0703C44.0715 28.0926 44.0437 28.1494 44.0103 28.1839Z" fill="black"/>
<path d="M49.516 40.2039C49.4848 40.1471 49.4469 40.097 49.3823 40.0747C49.4057 40.1382 49.457 40.175 49.516 40.2039Z" fill="black"/>
<path d="M42.9508 28.394C42.9274 28.3985 42.9163 28.4263 42.8907 28.4174C42.8773 28.4353 42.864 28.4531 42.8506 28.4709C42.8985 28.4653 42.913 28.4163 42.9508 28.394Z" fill="black"/>
<path d="M43.1904 34.3639C43.1614 34.3037 43.1135 34.2647 43.0522 34.2402C43.0834 34.297 43.1258 34.3427 43.1904 34.3639Z" fill="black"/>
<path d="M47.1181 29.7598C47.1181 29.7587 47.1181 29.7565 47.1181 29.7554C47.1058 29.7565 47.098 29.7676 47.0902 29.7776C47.0668 29.8055 47.0323 29.8267 47.0278 29.8679C47.0523 29.8456 47.078 29.8233 47.1025 29.801C47.098 29.7788 47.1002 29.7632 47.1181 29.7598Z" fill="black"/>
<path d="M43.3104 37.7563C43.3204 37.7441 43.336 37.7374 43.3393 37.7207C43.3282 37.7352 43.3126 37.743 43.2937 37.7408C43.2803 37.7586 43.2658 37.7764 43.2524 37.7942C43.2792 37.7909 43.2959 37.7742 43.3104 37.7563Z" fill="black"/>
<path d="M55.2186 31.7144C55.1785 31.6966 55.1607 31.6487 55.1128 31.6465C55.1273 31.6632 55.1418 31.6799 55.1551 31.6966C55.1807 31.6844 55.1952 31.7133 55.2186 31.7144Z" fill="black"/>
<path d="M50.4028 32.2725C50.5254 32.3694 50.649 32.4663 50.7715 32.5621C50.6847 32.4195 50.5599 32.3248 50.4028 32.2725Z" fill="black"/>
<path d="M47.4722 25.0088V25.0106L47.474 25.0088H47.4722Z" fill="black"/>
<path d="M47.9064 24.5645C47.8084 24.6703 47.7103 24.7761 47.6123 24.8819C47.7159 24.7817 47.8106 24.6725 47.9064 24.5645Z" fill="black"/>
<path d="M50.127 27.9376C50.1292 27.941 50.1325 27.9454 50.1348 27.9488C50.1737 27.9866 50.2127 28.0245 50.2528 28.0613C50.2194 28.029 50.1871 27.9967 50.1537 27.9644C50.1503 27.9577 50.1492 27.9521 50.1481 27.9465C50.1448 27.9432 50.1403 27.9399 50.137 27.9365C50.1336 27.9365 50.1303 27.9365 50.127 27.9376Z" fill="black"/>
<path d="M68.0136 57.539C59.3262 72.1426 41.139 77.2782 26.331 69.2629L25.8769 68.9356C40.2926 75.3961 57.5862 70.1649 65.86 56.2574C74.5555 41.641 70.0776 22.8461 55.9372 13.6701C56.3041 13.8657 56.6683 14.0715 57.0298 14.2875C72.0077 23.198 76.9252 42.561 68.0136 57.539Z" fill="#0065FF"/>
<path d="M64.2827 23.4002C73.4424 37.9267 68.9166 57.2387 54.1739 66.5332C53.8185 66.7571 53.461 66.9743 53.099 67.1804C67.0028 57.6486 71.0987 38.9148 62.1607 24.738C53.2226 10.5612 34.5545 6.18347 19.96 14.6203C20.3019 14.383 20.6517 14.1535 21.007 13.9296C35.7497 4.63402 55.1241 8.87247 64.2827 23.4002Z" fill="#0065FF"/>
<path d="M99.4811 50H90.9113L103.969 12.1745H114.275L127.315 50H118.745L109.27 20.8182H108.974L99.4811 50ZM98.9455 35.1321H119.188V41.3747H98.9455V35.1321ZM131.867 50V12.1745H147.012C149.795 12.1745 152.116 12.587 153.975 13.4119C155.835 14.2369 157.232 15.382 158.168 16.8472C159.104 18.3002 159.572 19.9748 159.572 21.871C159.572 23.3485 159.276 24.6475 158.685 25.768C158.094 26.8762 157.281 27.7873 156.247 28.5015C155.225 29.2033 154.055 29.702 152.738 29.9975V30.3669C154.179 30.4285 155.527 30.8348 156.783 31.5859C158.051 32.337 159.079 33.3898 159.867 34.7442C160.655 36.0863 161.049 37.687 161.049 39.5463C161.049 41.5533 160.551 43.3448 159.553 44.9209C158.568 46.4846 157.109 47.7221 155.176 48.6333C153.243 49.5444 150.86 50 148.028 50H131.867ZM139.865 43.4618H146.384C148.613 43.4618 150.238 43.037 151.26 42.1874C152.282 41.3255 152.793 40.1804 152.793 38.7521C152.793 37.7055 152.541 36.782 152.036 35.9817C151.531 35.1813 150.811 34.5533 149.875 34.0978C148.952 33.6422 147.85 33.4144 146.569 33.4144H139.865V43.4618ZM139.865 28.0028H145.793C146.889 28.0028 147.862 27.812 148.712 27.4303C149.573 27.0363 150.251 26.4822 150.743 25.768C151.248 25.0539 151.5 24.1981 151.5 23.2008C151.5 21.834 151.014 20.732 150.041 19.8947C149.081 19.0574 147.714 18.6388 145.941 18.6388H139.865V28.0028ZM186.773 23.053C186.625 21.5631 185.991 20.4057 184.87 19.5807C183.75 18.7558 182.229 18.3433 180.308 18.3433C179.003 18.3433 177.901 18.528 177.002 18.8974C176.103 19.2544 175.414 19.7531 174.934 20.3934C174.466 21.0337 174.232 21.7601 174.232 22.5728C174.207 23.25 174.349 23.841 174.657 24.3459C174.977 24.8507 175.414 25.2878 175.968 25.6572C176.522 26.0143 177.162 26.3283 177.889 26.5991C178.615 26.8577 179.391 27.0794 180.216 27.264L183.614 28.0767C185.264 28.4461 186.779 28.9386 188.158 29.5543C189.537 30.1699 190.731 30.9272 191.741 31.826C192.751 32.7249 193.532 33.7838 194.087 35.0028C194.653 36.2218 194.942 37.6193 194.955 39.1953C194.942 41.5102 194.351 43.5172 193.182 45.2164C192.024 46.9033 190.35 48.2146 188.158 49.1504C185.978 50.0739 183.35 50.5356 180.271 50.5356C177.218 50.5356 174.558 50.0677 172.293 49.1319C170.039 48.1961 168.278 46.8109 167.01 44.9763C165.754 43.1293 165.096 40.8453 165.034 38.1241H172.773C172.859 39.3924 173.222 40.4513 173.862 41.3009C174.515 42.1381 175.383 42.7723 176.467 43.2032C177.562 43.6219 178.8 43.8312 180.179 43.8312C181.533 43.8312 182.709 43.6342 183.707 43.2402C184.716 42.8461 185.498 42.2982 186.052 41.5964C186.606 40.8945 186.883 40.088 186.883 39.1769C186.883 38.3273 186.631 37.6131 186.126 37.0344C185.634 36.4557 184.907 35.9632 183.947 35.5569C182.999 35.1505 181.835 34.7811 180.456 34.4487L176.337 33.4144C173.148 32.6387 170.63 31.4258 168.783 29.7759C166.936 28.126 166.019 25.9035 166.031 23.1084C166.019 20.8182 166.629 18.8173 167.86 17.1058C169.103 15.3943 170.809 14.0584 172.976 13.0979C175.143 12.1375 177.606 11.6573 180.364 11.6573C183.171 11.6573 185.621 12.1375 187.715 13.0979C189.82 14.0584 191.458 15.3943 192.627 17.1058C193.797 18.8173 194.401 20.7997 194.437 23.053H186.773ZM235.093 31.0872C235.093 35.2121 234.312 38.7213 232.748 41.6148C231.196 44.5084 229.079 46.7186 226.394 48.2454C223.722 49.7599 220.718 50.5171 217.381 50.5171C214.02 50.5171 211.003 49.7537 208.331 48.2269C205.659 46.7001 203.548 44.4899 201.996 41.5964C200.445 38.7028 199.669 35.1998 199.669 31.0872C199.669 26.9624 200.445 23.4532 201.996 20.5596C203.548 17.6661 205.659 15.462 208.331 13.9475C211.003 12.4207 214.02 11.6573 217.381 11.6573C220.718 11.6573 223.722 12.4207 226.394 13.9475C229.079 15.462 231.196 17.6661 232.748 20.5596C234.312 23.4532 235.093 26.9624 235.093 31.0872ZM226.985 31.0872C226.985 28.4153 226.585 26.162 225.785 24.3274C224.997 22.4928 223.882 21.1014 222.442 20.1533C221.001 19.2052 219.314 18.7311 217.381 18.7311C215.448 18.7311 213.761 19.2052 212.321 20.1533C210.88 21.1014 209.759 22.4928 208.959 24.3274C208.171 26.162 207.777 28.4153 207.777 31.0872C207.777 33.7592 208.171 36.0124 208.959 37.8471C209.759 39.6817 210.88 41.0731 212.321 42.0212C213.761 42.9693 215.448 43.4433 217.381 43.4433C219.314 43.4433 221.001 42.9693 222.442 42.0212C223.882 41.0731 224.997 39.6817 225.785 37.8471C226.585 36.0124 226.985 33.7592 226.985 31.0872ZM241.018 50V12.1745H249.015V43.4064H265.231V50H241.018Z" fill="white"/>
<path d="M97.2041 76.9287H91.1566V59.8691H97.254C98.97 59.8691 100.447 60.2106 101.686 60.8936C102.924 61.5711 103.876 62.5457 104.543 63.8174C105.215 65.0891 105.551 66.6107 105.551 68.3822C105.551 70.1593 105.215 71.6864 104.543 72.9637C103.876 74.2409 102.918 75.2211 101.669 75.9041C100.425 76.5872 98.9367 76.9287 97.2041 76.9287ZM94.7634 73.8383H97.0541C98.1204 73.8383 99.0172 73.6495 99.7447 73.2719C100.478 72.8887 101.027 72.2973 101.394 71.4976C101.766 70.6924 101.952 69.6539 101.952 68.3822C101.952 67.1216 101.766 66.0915 101.394 65.2918C101.027 64.4922 100.48 63.9035 99.753 63.5259C99.0255 63.1483 98.1287 62.9595 97.0625 62.9595H94.7634V73.8383ZM108.222 59.8691H112.671L117.369 71.331H117.569L122.267 59.8691H126.715V76.9287H123.216V65.8249H123.075L118.66 76.8454H116.277L111.863 65.7833H111.721V76.9287H108.222V59.8691ZM138.941 64.7754C138.874 64.1034 138.588 63.5814 138.083 63.2094C137.578 62.8373 136.892 62.6512 136.026 62.6512C135.437 62.6512 134.94 62.7345 134.535 62.9011C134.129 63.0622 133.818 63.2871 133.602 63.5759C133.391 63.8646 133.285 64.1923 133.285 64.5588C133.274 64.8642 133.338 65.1308 133.477 65.3585C133.621 65.5862 133.818 65.7833 134.068 65.9499C134.318 66.1109 134.607 66.2525 134.934 66.3747C135.262 66.4913 135.612 66.5913 135.984 66.6746L137.517 67.0411C138.261 67.2077 138.944 67.4298 139.566 67.7075C140.188 67.9852 140.726 68.3267 141.182 68.7321C141.637 69.1375 141.99 69.6151 142.24 70.1648C142.495 70.7146 142.626 71.3449 142.631 72.0557C142.626 73.0997 142.359 74.0049 141.832 74.7713C141.31 75.5321 140.554 76.1235 139.566 76.5455C138.583 76.962 137.397 77.1703 136.009 77.1703C134.632 77.1703 133.432 76.9593 132.41 76.5372C131.394 76.1152 130.6 75.4904 130.028 74.663C129.462 73.83 129.165 72.7999 129.137 71.5726H132.627C132.666 72.1446 132.83 72.6221 133.118 73.0053C133.413 73.3829 133.804 73.6689 134.293 73.8633C134.787 74.0521 135.345 74.1465 135.967 74.1465C136.578 74.1465 137.108 74.0577 137.558 73.88C138.014 73.7023 138.366 73.4551 138.616 73.1386C138.866 72.8221 138.991 72.4583 138.991 72.0474C138.991 71.6642 138.877 71.3421 138.65 71.0811C138.427 70.8201 138.1 70.598 137.667 70.4147C137.239 70.2315 136.714 70.0649 136.092 69.9149L134.235 69.4485C132.796 69.0986 131.661 68.5516 130.828 67.8075C129.995 67.0633 129.581 66.061 129.587 64.8004C129.581 63.7675 129.856 62.865 130.411 62.0931C130.972 61.3212 131.741 60.7187 132.719 60.2856C133.696 59.8524 134.807 59.6358 136.051 59.6358C137.317 59.6358 138.422 59.8524 139.366 60.2856C140.316 60.7187 141.054 61.3212 141.582 62.0931C142.109 62.865 142.381 63.7591 142.398 64.7754H138.941ZM155.484 74.3298V62.5346H158.466V74.3298H155.484ZM151.078 69.9233V66.9412H162.873V69.9233H151.078ZM171.859 76.9287V59.8691H183.354V62.8428H175.466V66.9078H182.763V69.8816H175.466V73.9549H183.387V76.9287H171.859ZM194.127 66.9911V69.8066H186.347V66.9911H194.127ZM197.217 76.9287V59.8691H208.512V62.8428H200.824V66.9078H207.763V69.8816H200.824V76.9287H197.217ZM226.615 68.3989C226.615 70.2592 226.263 71.8419 225.558 73.1469C224.858 74.452 223.903 75.4488 222.692 76.1374C221.487 76.8204 220.132 77.1619 218.627 77.1619C217.111 77.1619 215.75 76.8176 214.545 76.129C213.34 75.4404 212.388 74.4436 211.688 73.1386C210.989 71.8336 210.639 70.2537 210.639 68.3989C210.639 66.5385 210.989 64.9559 211.688 63.6508C212.388 62.3458 213.34 61.3518 214.545 60.6687C215.75 59.9801 217.111 59.6358 218.627 59.6358C220.132 59.6358 221.487 59.9801 222.692 60.6687C223.903 61.3518 224.858 62.3458 225.558 63.6508C226.263 64.9559 226.615 66.5385 226.615 68.3989ZM222.959 68.3989C222.959 67.1938 222.778 66.1776 222.417 65.3501C222.062 64.5227 221.559 63.8952 220.909 63.4676C220.26 63.04 219.499 62.8262 218.627 62.8262C217.755 62.8262 216.994 63.04 216.345 63.4676C215.695 63.8952 215.19 64.5227 214.829 65.3501C214.473 66.1776 214.295 67.1938 214.295 68.3989C214.295 69.6039 214.473 70.6202 214.829 71.4476C215.19 72.2751 215.695 72.9026 216.345 73.3302C216.994 73.7578 217.755 73.9716 218.627 73.9716C219.499 73.9716 220.26 73.7578 220.909 73.3302C221.559 72.9026 222.062 72.2751 222.417 71.4476C222.778 70.6202 222.959 69.6039 222.959 68.3989ZM229.287 76.9287V59.8691H236.018C237.306 59.8691 238.406 60.0995 239.316 60.5604C240.233 61.0158 240.93 61.6628 241.407 62.5013C241.89 63.3343 242.132 64.3145 242.132 65.4418C242.132 66.5746 241.888 67.5492 241.399 68.3656C240.91 69.1763 240.202 69.7983 239.275 70.2315C238.353 70.6646 237.237 70.8812 235.926 70.8812H231.42V67.9824H235.343C236.032 67.9824 236.604 67.888 237.059 67.6992C237.514 67.5104 237.853 67.2271 238.075 66.8495C238.303 66.4719 238.417 66.0026 238.417 65.4418C238.417 64.8753 238.303 64.3978 238.075 64.009C237.853 63.6203 237.512 63.326 237.051 63.1261C236.595 62.9206 236.021 62.8178 235.326 62.8178H232.894V76.9287H229.287ZM238.5 69.1652L242.74 76.9287H238.758L234.61 69.1652H238.5ZM244.681 59.8691H249.129L253.827 71.331H254.027L258.725 59.8691H263.173V76.9287H259.675V65.8249H259.533L255.118 76.8454H252.736L248.321 65.7833H248.179V76.9287H244.681V59.8691Z" fill="white"/>
</svg>
