<svg width="177" height="145" viewBox="0 0 177 145" fill="none" xmlns="http://www.w3.org/2000/svg">
<path d="M122.274 52.5112C122.131 52.3227 122.013 52.1139 121.885 51.9136C121.235 51.1235 120.541 50.3656 120.005 49.4888C119.904 49.3227 119.785 49.1679 119.652 49.0248C119.331 48.6762 119.055 48.2928 118.806 47.8897C118.728 47.7635 118.639 47.6443 118.54 47.5339C118.057 46.9969 117.627 46.4209 117.236 45.8141C117.175 45.7197 117.107 45.6299 117.034 45.5454C116.469 44.8996 115.949 44.2203 115.492 43.492C114.366 42.1335 113.302 40.7296 112.295 39.2786C110.711 37.3192 109.19 35.3127 107.732 33.2574C106.358 31.55 105.002 29.8293 103.759 28.023C103.597 27.7879 103.389 27.589 103.152 27.4298C102.102 26.724 101.159 25.8821 100.184 25.0781C98.8373 24.0092 97.4907 22.9403 96.144 21.8731C95.0213 20.9809 93.8985 20.0871 92.7774 19.1949C92.5131 18.9979 92.2493 18.8009 91.9855 18.6039C91.6258 18.3353 91.1874 18.1928 90.7386 18.1988C90.4953 18.202 90.252 18.2058 90.0083 18.2118C85.9631 18.3109 81.913 17.9905 77.8724 18.3769C77.7153 18.392 77.561 18.4279 77.41 18.4741C76.9819 18.6052 76.5447 18.6896 76.0988 18.7304C75.8874 18.7498 75.6789 18.7932 75.4755 18.8541C75.1094 18.9636 74.7352 19.0291 74.3541 19.059C74.1862 19.0722 74.0194 19.0984 73.857 19.1431C72.8561 19.4191 71.835 19.5934 70.8055 19.7222C70.642 19.7426 70.4797 19.7783 70.3316 19.8506C69.8429 20.0895 69.4347 20.4598 68.9755 20.7456C68.7759 20.8697 68.5836 21.0068 68.4116 21.1669C67.877 21.6649 67.2787 22.0781 66.6699 22.4809C66.5531 22.5582 66.4452 22.648 66.3422 22.743C65.7344 23.3035 65.0077 23.7058 64.3523 24.2006C64.2612 24.2694 64.1789 24.3491 64.0983 24.43C63.3061 25.2245 62.2181 25.5627 61.3161 26.1891C60.6928 26.6376 60.0309 27.0243 59.348 27.3753C59.2022 27.4503 59.0661 27.5427 58.9344 27.6404C58.3655 28.0621 57.7014 28.3205 57.0994 28.6871C56.5475 29.1055 55.9537 29.4546 55.3377 29.7667C55.1726 29.8503 55.0198 29.9561 54.8706 30.0657C54.6181 30.2511 54.3435 30.3984 54.0649 30.5392C53.6549 30.7466 53.3207 31.0988 53.3285 31.5582C53.3307 31.6855 53.3377 31.8129 53.3389 31.9393C53.3523 33.4467 53.3736 34.9554 53.3923 36.463C53.3971 36.8475 53.5241 37.2353 53.5083 37.6195C53.5038 37.7298 53.4964 37.8404 53.5055 37.9488C53.6318 39.4352 53.386 40.94 53.7126 42.418C53.7025 42.3725 53.7092 42.3305 53.7328 42.2901C53.9172 41.9523 54.1017 41.6134 54.2862 41.2753C54.3547 41.1497 54.4084 41.0169 54.4552 40.8818C54.5887 40.4955 54.7672 40.1306 54.9763 39.7792C55.0424 39.6682 55.1011 39.5529 55.149 39.4329C55.4798 38.6053 55.8578 37.8007 56.2659 37.0099C56.471 36.6125 56.8046 36.2772 57.2439 36.1932C58.2264 36.0054 59.2098 36.3109 60.1932 36.379C60.3397 36.3892 60.485 36.4131 60.6308 36.4315C60.6481 36.4337 60.6656 36.4356 60.6832 36.4372C61.2168 36.5146 61.7672 36.3833 62.2941 36.5567C62.7958 36.6846 63.3176 36.56 63.8192 36.6897C64.2148 36.7873 64.469 37.0937 64.7703 37.3293C65.2399 37.639 65.6372 38.0329 66.0429 38.4167C66.7633 39.1641 67.7094 39.6372 68.4366 40.3778C69.1941 41.0983 70.1132 41.6319 70.8117 42.4214C71.7881 43.3337 72.8856 44.0979 73.9141 44.9463C74.5218 45.448 74.5521 45.8671 74.212 46.5101C73.7575 47.3703 73.261 48.2103 72.8671 49.1008C72.6146 49.8111 72.182 50.4323 71.8621 51.1107C71.5625 51.8328 71.2225 52.5348 70.7848 53.1862C70.5828 53.5683 70.3943 53.9572 70.2175 54.3511C70.0593 54.7517 69.7967 55.1018 69.662 55.5125C69.3876 56.2078 69.0123 56.8542 68.6958 57.5292C68.4281 57.9651 68.1571 58.3994 68.0258 58.9011C67.8945 59.4078 67.5158 59.7915 67.3424 60.2763C67.0815 60.9783 66.696 61.623 66.3896 62.3031C66.2413 62.6335 66.0081 62.9339 65.8871 63.2765C65.7647 63.6227 65.7313 64.0035 65.5815 64.3388C65.3751 64.8004 65.1706 65.2629 64.9151 65.6966C64.644 66.1579 64.772 66.3565 65.1911 66.5888C65.8914 66.9776 66.558 67.4271 67.2397 67.8496C68.3731 68.4414 69.4988 69.0487 70.5361 69.8013C70.6213 69.8631 70.7104 69.9194 70.8036 69.9684C71.7472 70.4634 72.6929 70.956 73.5623 71.5815C74.1935 71.9552 74.8231 72.3272 75.4543 72.7009C76.0305 73.1088 76.7227 73.3227 77.285 73.7523C77.4093 73.8473 77.5347 73.9416 77.6723 74.0158C78.387 74.4015 79.124 74.7517 79.7518 75.2798C80.2941 75.6647 80.9523 75.8471 81.4916 76.2372C81.6255 76.3341 81.7602 76.4309 81.9062 76.5083C82.8123 76.9889 83.6969 77.5052 84.5426 78.0892C85.0442 78.3704 85.5341 78.675 86.0508 78.9208V78.9208C86.6423 79.2016 86.9162 78.8255 86.6919 78.2104C86.3023 77.1422 85.9126 76.074 85.5229 75.0058C85.1533 73.9926 86.3292 73.0651 87.0859 73.8336V73.8336C87.1499 73.8985 87.2193 73.9561 87.2957 74.006C88.2456 74.6258 89.1182 75.3456 89.9612 76.1012C90.8079 76.751 91.6529 77.4025 92.4996 78.0539V78.0539C92.7073 78.2133 92.7794 77.8328 92.7176 77.5784C91.8636 74.0651 91.0084 70.548 90.1203 66.8942C89.9583 66.2278 90.6583 65.6814 91.2658 65.9996V65.9996C91.8668 66.418 92.6211 66.5138 93.2415 66.8902C93.3841 66.9767 93.5264 67.0652 93.6801 67.1301C94.3781 67.4244 95.0852 67.6987 95.7323 68.0988C95.8245 68.1558 95.9193 68.2087 96.0185 68.2522C96.8675 68.6245 97.7407 68.9447 98.5387 69.4239C98.6566 69.4947 98.7792 69.5576 98.9071 69.608C99.7051 69.9229 100.484 70.2791 101.221 70.7247C101.753 70.9708 102.33 71.1255 102.829 71.4429C102.964 71.5292 103.101 71.6146 103.248 71.6803C103.936 71.9887 104.621 72.3016 105.315 72.5966V72.5966C105.765 72.787 105.839 72.3283 105.686 71.8644C105.182 70.3366 104.677 68.8068 104.166 67.2588C103.766 66.0456 104.628 64.7835 105.904 64.7169V64.7169C106.858 64.6614 107.811 64.6075 108.766 64.552C109.776 64.4914 110.786 64.4308 111.796 64.3719C112.077 64.3651 112.356 64.3584 112.637 64.3517C112.677 64.3504 112.718 64.3491 112.758 64.3476C112.999 64.3392 113.236 64.2752 113.476 64.2528C113.484 64.252 113.492 64.2513 113.501 64.2507C113.881 64.1901 114.267 64.1951 114.652 64.2069C114.845 64.1975 115.039 64.188 115.232 64.1788C115.525 64.1648 115.595 63.9714 115.496 63.695V63.695C115.463 63.6024 115.46 63.4909 115.415 63.4033C114.752 62.1027 113.708 61.072 112.89 59.8824C112.178 58.9594 111.478 58.0263 110.762 57.1018C110.233 56.4173 110.587 55.4086 111.44 55.2629V55.2629C111.497 55.2531 111.554 55.2385 111.61 55.2237C111.827 55.1665 112.059 55.1509 112.276 55.0941C112.669 54.9913 113.021 54.7069 113.418 54.6191V54.6191C113.673 54.5626 113.944 54.5554 114.196 54.4857C114.292 54.4591 114.389 54.4357 114.487 54.4185C114.815 54.3603 115.152 54.3251 115.473 54.2352C116.031 54.0789 116.608 54.0115 117.182 53.9319C117.968 53.772 118.753 53.6121 119.539 53.4538C120.38 53.2821 121.222 53.1104 122.064 52.9371C122.284 52.868 122.501 52.8091 122.274 52.5112ZM105.653 46.6542C105.722 47.0431 105.408 47.3608 105.113 47.0988V47.0988C105.068 47.0593 105.023 47.0308 104.97 47.0049C104.179 46.622 103.42 46.1866 102.702 45.6803C101.638 45.0423 100.576 44.4043 99.5123 43.7647C98.4384 43.125 97.3644 42.4853 96.2905 41.8457C95.4804 41.3737 94.6704 40.9018 93.8469 40.4219C92.6314 39.7136 92.4816 38.0157 93.554 37.1053C93.9103 36.8028 94.2637 36.5029 94.6173 36.2032C95.2956 35.6157 95.974 35.0282 96.6524 34.4407C97.3257 33.8617 97.9974 33.2826 98.6707 32.7035C99.0713 32.2575 99.5292 31.8754 100.021 31.532V31.532C101.157 30.5145 102.965 31.1208 103.239 32.621C104.101 37.3291 104.823 41.9857 105.653 46.6542ZM98.4815 48.1286C98.616 48.1629 98.7459 48.1814 98.8844 48.1893C99.4057 48.219 99.9188 48.2984 100.422 48.4358C100.605 48.4857 100.792 48.5178 100.981 48.5301C101.487 48.5628 101.984 48.6437 102.473 48.7802C102.636 48.8258 102.803 48.8576 102.972 48.8717C103.167 48.8881 103.362 48.9095 103.557 48.9346C104.886 49.1061 105.609 50.5817 105.038 51.7929C104.756 52.3894 104.478 52.9806 104.199 53.5717C103.953 54.1726 103.781 54.7988 103.332 55.3139C103.184 55.4839 103.236 55.8273 103.197 56.0916C103.02 57.5477 102.842 59.0054 102.665 60.4615C102.6 61.0296 102.534 61.5976 102.47 62.1657C102.464 62.2213 102.422 62.2665 102.367 62.2774V62.2774C102.311 62.2888 102.254 62.2601 102.229 62.2081C100.375 58.353 98.5217 54.4964 96.6342 50.5711C96.0215 49.297 97.1117 47.779 98.4815 48.1286V48.1286ZM93.9961 45.2089C93.8194 44.7993 93.6327 44.394 93.4401 43.9905C92.9103 42.8798 94.1402 41.6959 95.0953 42.4719V42.4719C95.872 42.986 96.781 43.2711 97.5233 43.8442C97.6187 43.9179 97.7164 43.9887 97.8206 44.0494C99.9692 45.3013 102.118 46.5532 104.266 47.8051C104.318 47.835 104.34 47.8975 104.321 47.9536V47.9536C104.301 48.0097 104.244 48.0427 104.185 48.0321C102.341 47.6991 100.497 47.3676 98.6551 47.0347C98.5523 47.0161 98.4482 47.0061 98.3438 47.0006C97.6818 46.9661 97.0368 46.8232 96.3908 46.6904C96.2248 46.6563 96.0547 46.6482 95.8853 46.6431C94.9653 46.6154 94.3963 46.1391 93.9961 45.2089ZM98.4396 31.4095C98.3416 31.4845 98.2518 31.5694 98.1686 31.6606C97.6819 32.1945 97.1262 32.6497 96.5498 33.0821C96.4238 33.1767 96.3093 33.2857 96.2016 33.4007C95.545 34.1023 94.7112 34.6002 94.0096 35.2504C93.4389 35.8749 92.7875 36.4085 92.1091 36.9102C91.7219 37.2637 91.3247 37.6071 90.951 37.9757C90.5503 38.373 90.2507 38.0043 89.9174 37.8713C89.1313 37.5364 88.3469 37.2031 87.5608 36.8681C86.6619 36.4826 85.763 36.0971 84.8624 35.7116C83.7649 35.3379 82.7078 34.8717 81.6675 34.3633C81.4513 34.2766 81.2352 34.19 81.0172 34.1027C80.0873 33.7304 79.9459 32.4195 80.4767 31.57V31.57C80.588 31.3918 80.6257 31.1935 80.6515 30.9849C80.7516 30.1753 81.2428 29.8088 82.1809 29.9092C82.5074 29.9446 82.8424 29.8941 83.174 29.884C84.0157 29.8234 84.859 29.7628 85.7007 29.7022C86.4414 29.6517 87.182 29.6012 87.9227 29.5524C87.9631 29.5473 88.0069 29.5456 88.054 29.544C88.8956 29.485 89.739 29.4261 90.5806 29.3655C91.3651 29.3133 92.1495 29.2595 92.9322 29.2073C93.7756 29.1484 94.6173 29.0895 95.4606 29.0305C96.245 28.9767 97.0295 28.9245 97.8139 28.8706V28.8706C99.2351 28.7621 99.8664 30.2957 98.7439 31.1741C98.6428 31.2532 98.5415 31.3316 98.4396 31.4095ZM87.5574 50.2017V50.2017C87.4594 51.0193 86.4233 51.073 86.0817 50.3237C85.7877 49.6787 85.5008 49.0491 85.2142 48.419C84.487 46.8148 83.7733 45.2039 83.0259 43.6081C82.8189 43.1654 82.802 42.9045 83.3491 42.7547C83.8053 42.6301 84.2379 42.423 84.6806 42.253C85.3068 42.0005 85.933 41.7463 86.5592 41.4939V41.4939C88.0559 40.8785 89.6141 42.2306 89.2147 43.7988C88.9832 44.7075 88.7551 45.6031 88.527 46.4984C88.2038 47.7339 87.8806 48.9678 87.5574 50.2017ZM78.6594 48.1194C78.6611 48.1194 78.6611 48.1194 78.6594 48.1194C79.2603 48.7372 80.1289 48.9409 80.777 49.4863C80.8807 49.5738 81.0062 49.6349 81.1246 49.7049C81.4019 49.8689 81.5924 50.1569 81.8657 50.3275C82.4471 50.6906 83.1008 50.9429 83.6227 51.3969C83.7453 51.5036 83.8697 51.609 84.0069 51.6962C84.7754 52.1846 85.54 52.681 86.3202 53.1492C86.6922 53.373 86.7864 53.6306 86.6652 54.0447C86.3508 55.1198 86.0638 56.2025 85.7679 57.2826C85.7389 57.3885 85.7189 57.4966 85.7051 57.6054C85.5738 58.6379 85.2576 59.6233 84.945 60.6095C84.9034 60.7405 84.8763 60.8756 84.8584 61.0119C84.7088 62.1514 84.3145 63.2327 84.0191 64.3365V64.3365C83.774 65.3897 82.2952 65.4442 81.9742 64.4115C80.3899 59.3148 78.8301 54.2996 77.248 49.2096C76.9476 48.2435 77.8482 47.5147 78.6594 48.1194V48.1194ZM78.4061 46.657C77.6212 46.1397 77.6717 44.9334 78.5857 44.7139V44.7139C78.7406 44.6767 78.8807 44.6196 79.019 44.5405C79.5242 44.2517 80.0682 44.0539 80.6238 43.8859C80.7601 43.8447 80.8928 43.7907 81.0187 43.7243C81.7764 43.3246 81.8089 43.3838 82.2011 44.2478C83.1471 46.325 84.0898 48.4056 85.0291 50.4862V50.4862C85.1809 50.8185 84.856 50.9821 84.5562 50.7733C83.8641 50.2912 83.1897 49.8222 82.5142 49.3533C81.5008 48.6901 80.4875 48.0251 79.4741 47.3619C79.1202 47.128 78.7661 46.8943 78.4061 46.657ZM78.2315 31.816C78.2567 31.8056 78.2784 31.7933 78.3007 31.7776C78.3454 31.746 78.3901 31.7144 78.4348 31.6828C78.5748 31.5839 78.7019 31.4659 78.8039 31.328C79.8755 29.8781 79.7992 28.7419 78.5528 27.381C78.5041 27.3278 78.4466 27.2902 78.3803 27.2616V27.2616C78.1123 27.1459 78.2688 26.8034 78.5051 26.9749C78.547 27.0053 78.5868 27.0404 78.6253 27.0788C78.6587 27.1121 78.6947 27.1432 78.7333 27.1704C80.0568 28.1016 80.4002 30.0014 79.4977 31.3535C79.3526 31.5704 79.1098 31.5096 78.9313 31.5902C78.8321 31.6349 78.7887 31.7487 78.708 31.8216C78.6123 31.9082 78.4865 31.945 78.3607 31.9815C78.3266 31.9914 78.2941 32.0065 78.2641 32.0256C78.2573 32.03 78.2505 32.0343 78.2437 32.0386C77.9786 32.206 77.9415 31.9351 78.2315 31.816V31.816ZM76.0216 31.3081C75.089 30.7425 74.9258 29.6332 75.626 28.6215C76.1091 28.0391 76.7017 27.8371 77.4289 28.103C78.5769 28.5558 79.023 29.5557 78.5331 30.5674C78.0904 31.4798 76.8885 31.8333 76.0216 31.3081ZM78.1392 27.6654C78.0798 27.7487 78.0087 27.7561 77.9341 27.7277C77.6879 27.634 77.4771 27.4641 77.2167 27.4234C75.5502 27.1627 74.507 27.8064 73.9257 29.4395C73.9135 29.4737 73.9074 29.5103 73.9074 29.5466V29.5466C73.9074 29.851 73.5819 29.933 73.5799 29.6286C73.5785 29.4136 73.6375 29.1964 73.7441 28.9767C74.3433 27.1402 76.0435 26.4466 77.7958 27.322C77.9709 27.3893 78.2672 27.4886 78.1392 27.6654ZM74.2662 30.2881C74.2769 30.1109 74.5723 30.1712 74.5723 30.3488V30.3488C74.5723 30.362 74.5739 30.3753 74.5772 30.3881C74.6063 30.5031 74.635 30.6181 74.6638 30.7331C74.7121 30.9265 74.793 31.1117 74.9101 31.2731C75.4505 32.0184 75.9582 32.429 76.6035 32.5478C77.4495 32.7035 77.7339 33.1239 76.8784 33.0335V33.0335C75.8795 32.9283 75.1325 32.4599 74.7094 31.5851C74.6066 31.3725 74.4473 31.1686 74.4198 30.934C74.4128 30.875 74.409 30.8151 74.399 30.7572C74.3942 30.7295 74.382 30.7036 74.3675 30.6796C74.2848 30.543 74.2585 30.4135 74.2662 30.2881ZM80.0027 20.5129C80.6423 19.1427 80.644 19.1427 82.1758 19.2488C82.8492 19.2488 83.5225 19.2488 84.1958 19.2488C84.7564 19.2488 85.3186 19.2488 85.8791 19.2488C86.7208 19.2488 87.5625 19.2488 88.4041 19.2488C89.1582 19.237 89.9124 19.2336 90.6665 19.2084C91.3432 19.1865 91.6782 19.71 92.1158 20.0753C93.4221 21.0432 94.7149 22.0279 95.9201 23.1238C97.5614 24.4014 99.2026 25.6774 100.84 26.9567V26.9567C101.125 27.1783 100.969 27.637 100.609 27.6545C99.4555 27.7108 98.3836 27.7626 97.3164 27.8142C97.2095 27.8193 97.1035 27.8356 96.9988 27.8576C96.3072 28.0028 95.6037 27.9973 94.902 27.9967C94.7341 27.9966 94.5674 28.0203 94.4026 28.0524C93.6602 28.1971 92.9047 28.154 92.1547 28.1737C92.1546 28.1737 92.1547 28.1737 92.1546 28.1737V28.1737C92.1535 28.1737 92.1524 28.1739 92.1514 28.1741C91.4468 28.3492 90.73 28.3384 90.0132 28.3345C89.8523 28.3336 89.6922 28.3545 89.5342 28.3847C88.8023 28.5246 88.0594 28.5081 87.3184 28.5163C87.1451 28.5182 86.9737 28.5475 86.8039 28.582C86.3161 28.6811 85.8214 28.6769 85.3254 28.6634C85.1344 28.6582 84.9441 28.6822 84.7564 28.7183C84.0859 28.8472 83.4047 28.8312 82.725 28.8412C82.4765 28.8448 82.233 28.9126 81.9867 28.9457C81.7242 28.981 81.4549 28.9621 81.1911 28.9885C80.9218 29.0154 80.7501 28.9683 80.6238 28.6552C80.4109 28.1227 80.1227 27.684 79.7626 27.3297C78.7794 26.3626 77.8902 24.9379 78.5016 23.7017C78.9396 22.8159 79.3737 21.9386 79.8074 21.0617C79.8714 20.8782 79.9202 20.688 80.0027 20.5129ZM68.3574 22.5767C69.0325 22.0565 69.7058 21.5347 70.3825 21.0163C70.5116 20.9176 70.6494 20.8421 70.7969 20.7993C71.0765 20.718 71.379 20.7301 71.6615 20.6598C72.6274 20.4195 73.6101 20.2629 74.5942 20.1089C74.9625 20.0354 75.3309 19.9617 75.7012 19.8876C77.3097 19.5657 78.5881 21.1645 77.8559 22.6324C77.3944 23.5575 76.929 24.4631 76.4747 25.3717C76.3345 25.6522 76.3193 26.0223 76.0738 26.2175C75.9402 26.3238 75.7563 26.3753 75.5924 26.4349C74.9878 26.6557 74.4642 26.9897 73.9926 27.4078C73.8147 27.5655 73.6798 27.7643 73.576 27.9782C73.1318 28.8932 73.0269 28.8491 71.948 28.3606C71.3134 28.0727 70.6838 27.7714 70.0526 27.4768C69.3878 27.1906 68.7227 26.9047 68.0496 26.6153C66.6041 25.9939 66.3784 24.0386 67.6439 23.1037C67.8822 22.9276 68.1198 22.7522 68.3574 22.5767ZM74.9022 54.2501C74.8483 58.3961 74.7945 62.5421 74.7406 66.6881C74.7423 67.9203 74.7288 69.1525 74.7524 70.3847C74.7625 70.9099 74.5908 70.9755 74.1817 70.7062C73.7643 70.4301 73.3384 70.1659 72.9159 69.8965C71.9715 69.4538 71.1013 68.8865 70.2259 68.3226C68.95 67.5786 67.6774 66.8278 66.393 66.099C66.0816 65.9222 66.0378 65.7438 66.1994 65.4324C66.8795 64.1244 67.541 62.8064 68.2076 61.4917C68.5125 60.7343 68.8346 59.9854 69.2668 59.2904C69.3379 59.1761 69.401 59.057 69.4523 58.9326C69.834 58.008 70.2672 57.1104 70.7751 56.249C70.8403 56.1384 70.896 56.0224 70.9425 55.9027C71.3297 54.9068 71.8432 53.972 72.3671 53.0448C73.1559 51.3806 73.9448 49.7148 74.7336 48.0506C74.7498 48.0164 74.7864 47.9969 74.8238 48.0021V48.0021C74.8674 48.0081 74.9005 48.045 74.9006 48.0891C74.9022 50.1422 74.9022 52.197 74.9022 54.2501ZM73.9691 43.3439C73.9412 43.3135 73.9133 43.2869 73.8816 43.2607C73.1635 42.6679 72.4455 42.0766 71.7275 41.4838C70.6872 40.6741 69.6587 39.8526 68.7059 38.9403C67.6303 38.0616 66.563 37.1744 65.4773 36.3092C65.1575 36.055 65.1322 35.8648 65.4419 35.5921C65.6928 35.3733 65.9301 35.1326 66.1304 34.8683C66.4746 34.4132 66.8704 34.2703 67.32 34.3799C67.5998 34.4482 67.8751 34.5444 68.1618 34.5723C68.7467 34.6293 69.3239 34.7333 69.8893 34.9087C70.3687 35.1177 70.9068 34.9942 71.4029 35.1101C71.6362 35.1646 71.8622 35.255 72.0988 35.2922C72.716 35.3893 73.3321 35.493 73.9528 35.5635C74.4107 35.6157 74.6211 35.7638 74.6463 36.284C74.7512 38.4356 74.8878 40.5861 75.0236 42.7829C75.0635 43.4293 74.4066 43.8214 73.9691 43.3439V43.3439ZM74.9712 34.7101C74.2794 34.6293 73.5959 34.466 72.9091 34.3397C71.9057 34.1772 70.8948 34.0546 69.9098 33.7932C69.7783 33.7583 69.6441 33.7339 69.5087 33.7213C68.6274 33.6393 67.7608 33.478 66.9033 33.2633C66.7609 33.2276 66.6131 33.1955 66.4695 33.2264C66.0322 33.3205 65.8308 33.7497 65.5244 34.0283C65.3711 34.1678 65.2226 34.3126 65.074 34.4577C64.9026 34.6252 64.7727 34.8305 64.6212 35.0162C64.2116 35.5184 63.6134 35.4911 62.9809 35.3632C62.3631 35.3043 61.7454 35.2454 61.1276 35.1864C60.5098 35.1292 59.8903 35.0703 59.2726 35.0131C58.494 34.9387 57.7153 34.8654 56.9359 34.7915C56.5261 34.7527 56.1489 34.9405 55.9643 35.3085V35.3085C55.5353 36.1638 54.4108 35.9895 54.4079 35.0326C54.4063 34.4856 54.4083 33.9472 54.3825 33.4105C54.3707 33.1597 54.4364 32.8921 54.3674 32.6615C54.1311 31.8853 54.4191 31.4278 55.053 31.154C55.1803 31.099 55.3079 31.0436 55.4273 30.9731C56.0913 30.5811 56.7553 30.1903 57.4192 29.7981C57.9815 29.4665 58.5437 29.1349 59.1059 28.8033C59.5554 28.5255 60.0048 28.2478 60.4543 27.9701C61.0182 27.6452 61.5821 27.3186 62.1477 26.9937C62.5197 26.7564 62.9136 26.546 63.2604 26.2766C63.6545 25.971 64.023 25.9194 64.3906 26.111C64.592 26.2159 64.7807 26.3474 64.992 26.4307C65.9848 26.8221 66.9719 27.2269 67.9116 27.735C67.9991 27.7824 68.0895 27.8243 68.1825 27.8596C69.2857 28.2783 70.3709 28.741 71.4127 29.2982C72.729 30.0473 72.7425 30.0422 73.3603 31.4192C73.7896 32.3767 74.5539 32.9269 75.4298 33.3542C75.6757 33.4742 75.9475 33.5263 76.2205 33.5462C77.0758 33.6085 77.8861 33.8313 78.6373 34.2649C78.7563 34.3337 78.8791 34.3961 79.0076 34.4447C80.3061 34.9354 81.5978 35.4447 82.8391 36.0702C83.6748 36.4682 84.5987 36.6616 85.4025 37.1359C85.5013 37.1942 85.6028 37.2483 85.7091 37.2912C86.052 37.4297 86.3954 37.5682 86.7422 37.7081C87.8952 38.1731 87.8693 39.8139 86.7061 40.2526V40.2526C86.6259 40.2829 86.5564 40.3184 86.4819 40.3607C85.7147 40.7959 84.8389 40.9626 84.0426 41.3238C83.3008 41.6901 82.5431 42.0163 81.7513 42.2576C81.6176 42.2984 81.4875 42.3502 81.3626 42.413C80.4898 42.8523 79.5774 43.1914 78.6459 43.4835C78.6066 43.5007 78.5673 43.5178 78.528 43.5349C77.3766 44.0372 76.0518 43.258 75.9795 42.0039V42.0039C75.8516 39.8257 75.7186 37.6458 75.626 35.4659C75.6025 34.9861 75.4695 34.769 74.9712 34.7101ZM84.1741 74.7072C84.4537 75.5076 83.5676 76.2256 82.8475 75.778V75.778C81.8459 75.2983 80.91 74.7075 79.9875 74.0914C78.7048 73.3473 77.4272 72.5966 76.1394 71.8626C75.8651 71.7061 75.7472 71.5159 75.7506 71.1944C75.7809 67.9405 75.8045 64.6883 75.8297 61.4345C75.7725 60.8335 75.7994 60.2208 75.8432 59.6081C75.8465 59.2377 75.8482 58.8674 75.8516 58.4971V58.4971C75.8516 58.3331 75.9429 58.1837 75.9436 58.0198C75.948 56.9848 75.9513 55.9499 75.956 54.915V54.915C75.956 53.795 77.4674 53.5478 77.8083 54.6146C79.9412 61.289 81.847 68.043 84.1741 74.7072ZM103.681 68.9771C103.908 69.756 103.101 70.3974 102.374 70.0362V70.0362C101.857 69.787 101.341 69.5377 100.824 69.2884C100.734 69.245 100.641 69.2087 100.546 69.1776C100.246 69.0795 99.9526 68.9655 99.6851 68.7963C99.5668 68.7215 99.4487 68.6456 99.3226 68.5849C99.0492 68.4532 98.7758 68.3209 98.5024 68.1896C97.9712 67.9963 97.4344 67.8154 96.9569 67.5063C96.8555 67.4406 96.7526 67.377 96.6439 67.3243C95.9728 66.9987 95.3018 66.6718 94.6307 66.3464C93.8665 66.0821 93.1494 65.7135 92.4424 65.3246C91.8336 65.0805 91.23 64.8249 90.664 64.4926C90.5007 64.3967 90.328 64.3177 90.1496 64.254C89.8665 64.153 89.5933 64.0314 89.326 63.8967C88.8315 63.6474 88.2082 63.6421 88.4317 64.1488C88.4418 64.1717 88.4499 64.1935 88.4546 64.2136C89.2323 67.5601 90.0454 70.8998 90.8466 74.2412V74.2412C90.9606 74.719 90.3968 75.0652 90.016 74.7548C89.5124 74.3444 89.0436 73.962 88.5741 73.5796C87.1063 72.4299 85.6435 71.2752 84.1672 70.1372C83.8878 69.9218 83.7733 69.6945 83.8625 69.3528C84.354 67.4776 84.8405 65.6007 85.3287 63.7255V63.7255C85.3393 63.6616 85.3582 63.5992 85.3704 63.5356C85.6682 61.9777 86.0672 60.444 86.5373 58.9297C86.769 57.611 87.0957 56.3158 87.5011 55.0394C87.5327 54.9397 87.5571 54.8378 87.5743 54.7346C87.7076 53.9354 87.8851 53.1482 88.1549 52.3822C88.1986 52.2582 88.2329 52.1311 88.2555 52.0016C88.4336 50.9831 88.6808 49.9825 89.0084 48.9998V48.9998C89.0331 48.8836 89.0713 48.7697 89.0891 48.6523C89.2267 47.7448 89.4941 46.8708 89.7659 45.9967C89.9168 45.1882 90.0857 44.3826 90.3632 43.6069C90.3959 43.5153 90.4098 43.4181 90.4122 43.3208C90.4174 43.1161 90.4537 42.9184 90.5066 42.7175C90.6292 42.2512 91.3579 42.2017 91.562 42.6385V42.6385C92.6377 44.6821 93.6998 46.7323 94.5987 48.8617C95.9791 51.6847 97.3611 54.5076 98.738 57.3339C98.7662 57.3919 98.7989 57.4485 98.8318 57.5052C99.0419 57.8669 99.1211 58.3055 99.3127 58.6772C101.018 61.9864 102.622 65.3402 103.681 68.9771ZM111.535 60.1593C112.535 61.4586 111.67 63.3406 110.033 63.4287C109.78 63.4423 109.527 63.4559 109.274 63.4696C108.882 63.48 108.491 63.4905 108.099 63.5009C107.998 63.5036 107.898 63.5142 107.798 63.53C106.466 63.7415 105.112 63.6459 103.778 63.813C103.367 63.8652 103.312 63.68 103.357 63.3333C103.663 61.0052 103.958 58.6755 104.261 56.3475C104.264 56.3189 104.349 56.3003 104.394 56.2768C105.106 56.0133 105.851 55.9171 106.595 55.8195C106.808 55.7916 107.011 55.7186 107.217 55.6593C107.81 55.4884 108.223 55.7625 108.651 56.3441C109.589 57.6198 110.55 58.8791 111.535 60.1593ZM116.983 52.7614C116.974 52.8224 116.927 52.8716 116.866 52.8817C115.466 53.1152 114.066 53.3501 112.668 53.5835C111.853 53.821 111.024 53.9822 110.18 54.062C110.027 54.0765 109.875 54.106 109.726 54.148C108.973 54.3614 108.199 54.4725 107.421 54.5598V54.5598C106.278 54.7986 105.356 53.6282 105.856 52.5738C106.044 52.1774 106.23 51.7863 106.416 51.3951C106.528 51.1123 106.631 50.8262 106.756 50.5484C107.36 49.1967 107.362 49.1984 108.767 49.8734C109.893 50.2572 111.065 50.5131 112.142 51.0416C113.725 51.5647 115.305 52.0861 116.887 52.609C116.952 52.6304 116.992 52.6941 116.983 52.7614V52.7614ZM117.352 51.6813C116.734 51.4625 116.118 51.242 115.501 51.0231C114.626 50.7966 113.78 50.494 112.949 50.1434C112.846 50.0996 112.739 50.064 112.63 50.0356C111.823 49.8257 111.043 49.5361 110.27 49.2255C110.168 49.1843 110.051 49.1961 109.951 49.1496V49.1496C109.07 48.7506 107.833 48.8079 107.328 48.0268C106.835 47.2643 106.885 46.1499 106.703 45.1887C105.798 40.4081 104.894 35.6275 103.992 30.8468V30.8468C103.933 30.5271 104.266 30.4477 104.465 30.7049C104.534 30.7939 104.593 30.8913 104.64 30.9985C104.696 31.1229 104.753 31.2476 104.835 31.3556C106.172 33.0967 107.655 34.7283 108.825 36.5957C108.888 36.696 108.958 36.7914 109.036 36.8805C110.446 38.4932 111.681 40.2388 112.939 41.9685C113.994 43.2815 115.054 44.5895 115.972 46.0052C117.037 47.3755 118.101 48.7459 119.172 50.1259C119.953 51.1321 119.499 52.5066 118.309 52.0529C117.988 51.9305 117.672 51.7907 117.352 51.6813Z" fill="#B9BEC0"/>
<path d="M88 96C113.957 96 135 74.9574 135 49C135 23.0426 113.957 2 88 2C62.0426 2 41 23.0426 41 49C41 74.9574 62.0426 96 88 96Z" stroke="#B9BEC0" stroke-width="3" stroke-miterlimit="10"/>
<path d="M4.99345 135V110.455H14.6774C16.5311 110.455 18.1131 110.786 19.4235 111.449C20.7419 112.104 21.7446 113.035 22.4318 114.242C23.1269 115.44 23.4745 116.851 23.4745 118.473C23.4745 120.103 23.1229 121.505 22.4198 122.679C21.7166 123.846 20.6979 124.741 19.3636 125.364C18.0372 125.987 16.4312 126.299 14.5456 126.299H8.06163V122.128H13.7066C14.6974 122.128 15.5204 121.992 16.1755 121.721C16.8307 121.449 17.3181 121.041 17.6377 120.498C17.9653 119.955 18.1291 119.28 18.1291 118.473C18.1291 117.658 17.9653 116.97 17.6377 116.411C17.3181 115.852 16.8267 115.428 16.1636 115.141C15.5084 114.845 14.6814 114.697 13.6826 114.697H10.183V135H4.99345ZM18.249 123.83L24.3494 135H18.6205L12.6519 123.83H18.249ZM32.2955 135.348C31.1209 135.348 30.0742 135.144 29.1554 134.736C28.2365 134.321 27.5094 133.71 26.9741 132.903C26.4468 132.088 26.1831 131.073 26.1831 129.858C26.1831 128.836 26.3708 127.977 26.7464 127.282C27.1219 126.586 27.6333 126.027 28.2805 125.604C28.9277 125.18 29.6628 124.861 30.4857 124.645C31.3167 124.429 32.1876 124.277 33.0985 124.189C34.1691 124.078 35.0321 123.974 35.6873 123.878C36.3424 123.774 36.8178 123.622 37.1135 123.422C37.4091 123.223 37.5569 122.927 37.5569 122.536V122.464C37.5569 121.705 37.3172 121.117 36.8378 120.702C36.3664 120.286 35.6952 120.079 34.8243 120.079C33.9055 120.079 33.1744 120.282 32.6311 120.69C32.0877 121.089 31.7282 121.593 31.5524 122.2L26.8303 121.816C27.07 120.698 27.5414 119.731 28.2445 118.916C28.9476 118.093 29.8545 117.462 30.9651 117.022C32.0837 116.575 33.3781 116.351 34.8483 116.351C35.871 116.351 36.8498 116.471 37.7846 116.711C38.7275 116.95 39.5624 117.322 40.2895 117.825C41.0246 118.329 41.6039 118.976 42.0274 119.767C42.4508 120.55 42.6626 121.489 42.6626 122.583V135H37.8206V132.447H37.6768C37.3811 133.022 36.9856 133.53 36.4903 133.969C35.9949 134.401 35.3996 134.74 34.7045 134.988C34.0093 135.228 33.2063 135.348 32.2955 135.348ZM33.7577 131.824C34.5087 131.824 35.1719 131.676 35.7472 131.381C36.3225 131.077 36.7739 130.669 37.1015 130.158C37.4291 129.647 37.5929 129.067 37.5929 128.42V126.467C37.4331 126.57 37.2134 126.666 36.9337 126.754C36.662 126.834 36.3544 126.91 36.0109 126.982C35.6673 127.046 35.3237 127.106 34.9801 127.162C34.6366 127.21 34.325 127.254 34.0453 127.294C33.446 127.381 32.9227 127.521 32.4753 127.713C32.0278 127.905 31.6802 128.165 31.4326 128.492C31.1849 128.812 31.061 129.211 31.061 129.691C31.061 130.386 31.3127 130.917 31.8161 131.285C32.3274 131.644 32.9746 131.824 33.7577 131.824ZM46.6236 141.903V116.591H51.6574V119.683H51.8851C52.1088 119.188 52.4324 118.684 52.8559 118.173C53.2874 117.654 53.8467 117.222 54.5338 116.879C55.2289 116.527 56.0919 116.351 57.1226 116.351C58.4649 116.351 59.7034 116.703 60.838 117.406C61.9725 118.101 62.8794 119.152 63.5586 120.558C64.2377 121.956 64.5773 123.71 64.5773 125.819C64.5773 127.873 64.2457 129.607 63.5825 131.021C62.9274 132.427 62.0325 133.494 60.8979 134.221C59.7713 134.94 58.5089 135.3 57.1106 135.3C56.1198 135.3 55.2769 135.136 54.5817 134.808C53.8946 134.481 53.3313 134.069 52.8918 133.574C52.4524 133.07 52.1168 132.563 51.8851 132.052H51.7293V141.903H46.6236ZM51.6214 125.795C51.6214 126.89 51.7732 127.845 52.0769 128.66C52.3805 129.475 52.8199 130.11 53.3952 130.566C53.9705 131.013 54.6696 131.237 55.4926 131.237C56.3236 131.237 57.0267 131.009 57.602 130.554C58.1773 130.09 58.6127 129.451 58.9084 128.636C59.212 127.813 59.3638 126.866 59.3638 125.795C59.3638 124.733 59.216 123.798 58.9203 122.991C58.6247 122.184 58.1893 121.553 57.614 121.097C57.0387 120.642 56.3316 120.414 55.4926 120.414C54.6616 120.414 53.9585 120.634 53.3832 121.073C52.8159 121.513 52.3805 122.136 52.0769 122.943C51.7732 123.75 51.6214 124.701 51.6214 125.795ZM77.7729 116.591V120.426H66.6867V116.591H77.7729ZM69.2035 112.18H74.3092V129.343C74.3092 129.814 74.3811 130.182 74.5249 130.446C74.6687 130.701 74.8685 130.881 75.1242 130.985C75.3879 131.089 75.6915 131.141 76.035 131.141C76.2747 131.141 76.5144 131.121 76.7542 131.081C76.9939 131.033 77.1776 130.997 77.3055 130.973L78.1085 134.772C77.8528 134.852 77.4932 134.944 77.0298 135.048C76.5664 135.16 76.0031 135.228 75.3399 135.252C74.1094 135.3 73.0308 135.136 72.1039 134.76C71.1851 134.385 70.47 133.801 69.9586 133.01C69.4472 132.219 69.1956 131.221 69.2035 130.014V112.18ZM89.2186 135.36C87.357 135.36 85.747 134.964 84.3886 134.173C83.0383 133.374 81.9956 132.263 81.2605 130.841C80.5255 129.411 80.1579 127.753 80.1579 125.867C80.1579 123.966 80.5255 122.304 81.2605 120.882C81.9956 119.451 83.0383 118.341 84.3886 117.55C85.747 116.751 87.357 116.351 89.2186 116.351C91.0803 116.351 92.6863 116.751 94.0366 117.55C95.395 118.341 96.4417 119.451 97.1767 120.882C97.9118 122.304 98.2794 123.966 98.2794 125.867C98.2794 127.753 97.9118 129.411 97.1767 130.841C96.4417 132.263 95.395 133.374 94.0366 134.173C92.6863 134.964 91.0803 135.36 89.2186 135.36ZM89.2426 131.404C90.0896 131.404 90.7967 131.165 91.364 130.685C91.9313 130.198 92.3587 129.535 92.6464 128.696C92.942 127.857 93.0898 126.902 93.0898 125.831C93.0898 124.761 92.942 123.806 92.6464 122.967C92.3587 122.128 91.9313 121.465 91.364 120.977C90.7967 120.49 90.0896 120.246 89.2426 120.246C88.3877 120.246 87.6686 120.49 87.0853 120.977C86.51 121.465 86.0746 122.128 85.7789 122.967C85.4913 123.806 85.3475 124.761 85.3475 125.831C85.3475 126.902 85.4913 127.857 85.7789 128.696C86.0746 129.535 86.51 130.198 87.0853 130.685C87.6686 131.165 88.3877 131.404 89.2426 131.404ZM101.599 135V116.591H106.549V119.803H106.741C107.076 118.66 107.64 117.797 108.431 117.214C109.222 116.623 110.133 116.327 111.163 116.327C111.419 116.327 111.695 116.343 111.99 116.375C112.286 116.407 112.546 116.451 112.769 116.507V121.037C112.53 120.965 112.198 120.902 111.775 120.846C111.351 120.79 110.964 120.762 110.612 120.762C109.861 120.762 109.19 120.926 108.599 121.253C108.015 121.573 107.552 122.02 107.208 122.595C106.873 123.171 106.705 123.834 106.705 124.585V135H101.599ZM115.505 135V110.455H132.044V114.733H120.694V120.582H131.193V124.861H120.694V130.721H132.092V135H115.505ZM139.226 141.903C138.579 141.903 137.972 141.851 137.405 141.748C136.845 141.652 136.382 141.528 136.014 141.376L137.165 137.565C137.764 137.749 138.304 137.848 138.783 137.864C139.27 137.88 139.69 137.769 140.041 137.529C140.401 137.289 140.693 136.882 140.916 136.306L141.216 135.527L134.612 116.591H139.981L143.793 130.11H143.984L147.832 116.591H153.237L146.082 136.99C145.738 137.98 145.271 138.843 144.68 139.578C144.096 140.321 143.357 140.893 142.462 141.292C141.567 141.7 140.489 141.903 139.226 141.903ZM163.646 135.36C161.752 135.36 160.122 134.976 158.756 134.209C157.398 133.434 156.351 132.339 155.616 130.925C154.881 129.503 154.513 127.821 154.513 125.879C154.513 123.986 154.881 122.324 155.616 120.894C156.351 119.463 157.386 118.349 158.72 117.55C160.062 116.751 161.637 116.351 163.442 116.351C164.657 116.351 165.787 116.547 166.834 116.938C167.889 117.322 168.808 117.901 169.591 118.676C170.382 119.451 170.997 120.426 171.436 121.601C171.876 122.767 172.096 124.134 172.096 125.7V127.102H156.551V123.938H167.289C167.289 123.203 167.13 122.551 166.81 121.984C166.49 121.417 166.047 120.973 165.48 120.654C164.92 120.326 164.269 120.162 163.526 120.162C162.751 120.162 162.064 120.342 161.465 120.702C160.873 121.053 160.41 121.529 160.074 122.128C159.739 122.719 159.567 123.378 159.559 124.106V127.114C159.559 128.025 159.727 128.812 160.062 129.475C160.406 130.138 160.889 130.649 161.513 131.009C162.136 131.369 162.875 131.548 163.73 131.548C164.297 131.548 164.817 131.468 165.288 131.309C165.759 131.149 166.163 130.909 166.498 130.589C166.834 130.27 167.09 129.878 167.266 129.415L171.988 129.727C171.748 130.861 171.257 131.852 170.513 132.699C169.778 133.538 168.828 134.193 167.661 134.664C166.502 135.128 165.164 135.36 163.646 135.36Z" fill="#B9BEC0"/>
</svg>
