<svg width="147" height="272" viewBox="0 0 147 272" fill="none" xmlns="http://www.w3.org/2000/svg">
<path d="M68.2432 112.207L36.4967 191.807C35.025 195.498 36.9354 199.35 40.7639 200.411L130.705 225.35C137.024 227.102 143.033 220.457 140.021 215.046L81.8264 110.507C78.9505 105.341 70.5629 106.391 68.2432 112.207Z" stroke="#003E9C" stroke-width="1.05271"/>
<path d="M77.2656 17.0475L3.52903 201.932C2.05729 205.623 3.96775 209.475 7.79617 210.536L206.185 265.545C212.417 267.273 218.399 260.814 215.584 255.396L90.9317 15.502C88.1674 10.182 79.6181 11.1489 77.2656 17.0475Z" stroke="#003E9C" stroke-width="1.05271"/>
<path d="M29.3836 188.919L61.0611 109.492C63.5611 103.223 72.6143 102.123 75.6654 107.717L132.351 211.646C135.52 217.455 129.08 224.526 122.326 222.654L33.963 198.152C29.8544 197.013 27.8041 192.879 29.3836 188.919Z" fill="#003E9C"/>
</svg>
