<svg width="355" height="404" viewBox="0 0 355 404" fill="none" xmlns="http://www.w3.org/2000/svg">
<rect x="15" y="10" width="338" height="393" fill="#003E9C"/>
<path d="M3 4.54001C3 2.03263 5.03263 0 7.54 0H348.46C350.967 0 353 2.03263 353 4.54V328.959C353 330.083 352.583 331.167 351.83 332.001L288.852 401.752C287.991 402.706 286.767 403.25 285.482 403.25H7.54C5.03263 403.25 3 401.217 3 398.71V4.54001Z" fill="white"/>
<path d="M349.5 384V399H333" stroke="white" stroke-width="4.5" stroke-linecap="round"/>
<path d="M345.758 398.689L347.322 400.307L350.557 397.178L348.992 395.561L345.758 398.689ZM326.867 372.686C326.003 371.793 324.579 371.769 323.686 372.633C322.793 373.497 322.769 374.921 323.633 375.814L326.867 372.686ZM348.992 395.561L326.867 372.686L323.633 375.814L345.758 398.689L348.992 395.561Z" fill="white"/>
<g opacity="0.12" filter="url(#filter0_d_2107_1410)">
<path d="M67.4663 0H1.00015L1 271L165.798 210.184L207.882 248.192L201.103 200.412L232.304 185.212L201.103 0H67.4663ZM20.614 69.8766L49.9445 65.9925L69.5182 63.403L109.108 58.1888L165.074 50.7929L166.924 63.7932L114.298 72.5015L73.8434 79.1701H73.8232L51.9964 82.7882L29.9281 86.4418L29.4654 86.5127L23.1286 87.5769L20.614 69.8766ZM87.6838 120.441L67.4663 123.793L44.352 127.606L29.1637 130.125L26.6491 112.407L63.5435 107.53L85.3905 104.639L124.035 99.5308L171.109 93.3055L172.959 106.324L129.125 113.577L87.6838 120.441ZM143.508 153.536L101.202 161.978H101.182L84.3645 165.313L57.6895 170.633H57.609L36.0034 174.943L33.7101 162.528L32.7445 157.332L76.9414 150.024L101.162 146.016L138.56 139.826L176.319 133.583L178.693 146.531L143.508 153.536Z" fill="#003E9C"/>
</g>
<defs>
<filter id="filter0_d_2107_1410" x="0.215588" y="-1.01328e-06" width="232.873" height="272.569" filterUnits="userSpaceOnUse" color-interpolation-filters="sRGB">
<feFlood flood-opacity="0" result="BackgroundImageFix"/>
<feColorMatrix in="SourceAlpha" type="matrix" values="0 0 0 0 0 0 0 0 0 0 0 0 0 0 0 0 0 0 127 0" result="hardAlpha"/>
<feOffset dy="0.784411"/>
<feGaussianBlur stdDeviation="0.392206"/>
<feComposite in2="hardAlpha" operator="out"/>
<feColorMatrix type="matrix" values="0 0 0 0 0 0 0 0 0 0 0 0 0 0 0 0 0 0 0.25 0"/>
<feBlend mode="normal" in2="BackgroundImageFix" result="effect1_dropShadow_2107_1410"/>
<feBlend mode="normal" in="SourceGraphic" in2="effect1_dropShadow_2107_1410" result="shape"/>
</filter>
</defs>
</svg>
