<svg width="353" height="404" viewBox="0 0 353 404" fill="none" xmlns="http://www.w3.org/2000/svg">
<path d="M1.5 4.54001C1.5 2.30878 3.30877 0.5 5.54 0.5H346.46C348.691 0.5 350.5 2.30877 350.5 4.54V328.959C350.5 329.959 350.129 330.924 349.459 331.666L286.481 401.417C285.715 402.266 284.625 402.75 283.482 402.75H5.54C3.30877 402.75 1.5 400.941 1.5 398.71V4.54001Z" fill="white" stroke="#003E9C"/>
<path d="M350 386.375V401.375H333.5" stroke="white" stroke-width="4.5" stroke-linecap="round"/>
<path d="M346.508 401.439L348.072 403.057L351.307 399.928L349.742 398.311L346.508 401.439ZM327.617 375.436C326.753 374.543 325.329 374.519 324.436 375.383C323.543 376.247 323.519 377.671 324.383 378.564L327.617 375.436ZM349.742 398.311L327.617 375.436L324.383 378.564L346.508 401.439L349.742 398.311Z" fill="white"/>
<path d="M79.2896 169.132V193H74.7815V169.132H79.2896ZM103.338 169.132V193H98.8136L88.6663 176.443V193H84.1583V169.132H88.6663L98.8464 185.705V169.132H103.338ZM117.682 169.132V193H113.19V169.132H117.682ZM125.092 169.132V172.689H105.863V169.132H125.092ZM143.911 189.459V193H131.223V189.459H143.911ZM132.6 169.132V193H128.091V169.132H132.6ZM142.255 178.984V182.443H131.223V178.984H142.255ZM143.862 169.132V172.689H131.223V169.132H143.862ZM147.042 169.132H155.714C157.528 169.132 159.085 169.405 160.386 169.951C161.686 170.498 162.686 171.307 163.386 172.378C164.085 173.449 164.435 174.766 164.435 176.328C164.435 177.563 164.216 178.634 163.779 179.541C163.342 180.448 162.724 181.208 161.927 181.82C161.14 182.432 160.211 182.913 159.14 183.263L157.73 183.984H150.074L150.042 180.427H155.763C156.692 180.427 157.462 180.263 158.074 179.935C158.686 179.607 159.145 179.153 159.451 178.574C159.768 177.995 159.927 177.334 159.927 176.591C159.927 175.793 159.774 175.104 159.468 174.525C159.162 173.935 158.697 173.481 158.074 173.164C157.451 172.848 156.664 172.689 155.714 172.689H151.55V193H147.042V169.132ZM160.517 193L154.992 182.312L159.763 182.295L165.353 192.77V193H160.517ZM177.877 172.755L171.074 193H166.304L175.221 169.132H178.27L177.877 172.755ZM183.565 193L176.73 172.755L176.32 169.132H179.385L188.352 193H183.565ZM183.254 184.131V187.689H170.451V184.131H183.254ZM204.483 185.148H208.991C208.871 186.743 208.428 188.159 207.663 189.394C206.898 190.618 205.833 191.579 204.466 192.279C203.1 192.978 201.445 193.328 199.499 193.328C198.002 193.328 196.652 193.066 195.45 192.541C194.259 192.005 193.237 191.246 192.385 190.262C191.543 189.268 190.899 188.077 190.45 186.689C190.002 185.29 189.778 183.722 189.778 181.984V180.164C189.778 178.427 190.008 176.858 190.467 175.459C190.926 174.061 191.582 172.869 192.434 171.886C193.297 170.891 194.33 170.126 195.532 169.591C196.745 169.055 198.1 168.788 199.598 168.788C201.543 168.788 203.188 169.148 204.532 169.869C205.876 170.58 206.92 171.558 207.663 172.804C208.406 174.05 208.854 175.481 209.007 177.099H204.499C204.412 176.093 204.193 175.241 203.844 174.541C203.505 173.842 202.991 173.312 202.303 172.951C201.625 172.58 200.723 172.394 199.598 172.394C198.723 172.394 197.953 172.558 197.286 172.886C196.631 173.214 196.084 173.705 195.647 174.361C195.21 175.006 194.882 175.815 194.663 176.787C194.445 177.749 194.336 178.864 194.336 180.132V181.984C194.336 183.197 194.434 184.284 194.631 185.246C194.827 186.208 195.133 187.022 195.549 187.689C195.964 188.355 196.499 188.864 197.155 189.213C197.811 189.563 198.592 189.738 199.499 189.738C200.603 189.738 201.499 189.563 202.188 189.213C202.887 188.864 203.417 188.35 203.778 187.672C204.15 186.995 204.384 186.153 204.483 185.148ZM222.236 169.132V193H217.745V169.132H222.236ZM229.646 169.132V172.689H210.417V169.132H229.646ZM237.449 169.132V193H232.941V169.132H237.449ZM250.711 188.328L256.662 169.132H261.662L253.236 193H249.908L250.711 188.328ZM245.219 169.132L251.137 188.328L251.99 193H248.629L240.236 169.132H245.219ZM279.94 189.459V193H267.252V189.459H279.94ZM268.629 169.132V193H264.121V169.132H268.629ZM278.284 178.984V182.443H267.252V178.984H278.284ZM279.891 169.132V172.689H267.252V169.132H279.891ZM86.9451 233H81.7977L81.8305 229.459H86.9451C88.333 229.459 89.4969 229.153 90.4368 228.541C91.3766 227.918 92.087 227.027 92.5679 225.869C93.0487 224.7 93.2892 223.301 93.2892 221.672V220.443C93.2892 219.186 93.1526 218.077 92.8793 217.115C92.6061 216.153 92.2018 215.345 91.6663 214.689C91.1417 214.033 90.4914 213.536 89.7155 213.197C88.9396 212.858 88.0489 212.689 87.0434 212.689H81.6993V209.132H87.0434C88.639 209.132 90.0925 209.4 91.404 209.935C92.7263 210.471 93.8684 211.241 94.8301 212.246C95.8028 213.241 96.5459 214.432 97.0596 215.82C97.5841 217.208 97.8464 218.76 97.8464 220.476V221.672C97.8464 223.377 97.5841 224.929 97.0596 226.328C96.5459 227.716 95.8028 228.907 94.8301 229.902C93.8684 230.896 92.7209 231.661 91.3876 232.197C90.0543 232.732 88.5734 233 86.9451 233ZM84.3222 209.132V233H79.8141V209.132H84.3222ZM110.813 212.755L104.01 233H99.2398L108.158 209.132H111.207L110.813 212.755ZM116.502 233L109.666 212.755L109.256 209.132H112.321L121.288 233H116.502ZM116.19 224.131V227.689H103.387V224.131H116.19ZM136.239 226.803C136.239 226.344 136.168 225.935 136.026 225.574C135.895 225.202 135.649 224.869 135.288 224.574C134.938 224.268 134.441 223.973 133.796 223.689C133.162 223.394 132.343 223.088 131.337 222.771C130.223 222.421 129.184 222.028 128.223 221.59C127.261 221.153 126.414 220.645 125.682 220.066C124.96 219.487 124.398 218.82 123.993 218.066C123.589 217.301 123.387 216.416 123.387 215.41C123.387 214.427 123.594 213.531 124.01 212.722C124.436 211.913 125.037 211.219 125.813 210.64C126.589 210.05 127.501 209.596 128.55 209.279C129.611 208.962 130.78 208.804 132.059 208.804C133.829 208.804 135.359 209.126 136.649 209.771C137.949 210.416 138.955 211.29 139.665 212.394C140.375 213.498 140.73 214.738 140.73 216.115H136.239C136.239 215.372 136.08 214.716 135.763 214.148C135.457 213.58 134.987 213.132 134.354 212.804C133.731 212.476 132.944 212.312 131.993 212.312C131.075 212.312 130.31 212.449 129.698 212.722C129.097 212.995 128.643 213.367 128.337 213.837C128.042 214.307 127.895 214.831 127.895 215.41C127.895 215.847 127.999 216.241 128.206 216.591C128.414 216.929 128.725 217.252 129.141 217.558C129.556 217.853 130.07 218.132 130.682 218.394C131.305 218.645 132.026 218.897 132.845 219.148C134.157 219.541 135.304 219.978 136.288 220.459C137.282 220.94 138.108 221.487 138.763 222.099C139.43 222.711 139.927 223.399 140.255 224.164C140.594 224.929 140.763 225.798 140.763 226.771C140.763 227.798 140.561 228.716 140.157 229.525C139.752 230.333 139.173 231.022 138.419 231.59C137.665 232.158 136.758 232.59 135.698 232.885C134.649 233.18 133.474 233.328 132.173 233.328C131.015 233.328 129.867 233.175 128.731 232.869C127.605 232.552 126.583 232.082 125.665 231.459C124.747 230.825 124.015 230.027 123.469 229.066C122.922 228.093 122.649 226.956 122.649 225.656H127.173C127.173 226.41 127.294 227.055 127.534 227.59C127.785 228.115 128.135 228.547 128.583 228.885C129.042 229.213 129.578 229.454 130.19 229.607C130.802 229.76 131.463 229.836 132.173 229.836C133.091 229.836 133.845 229.71 134.436 229.459C135.037 229.197 135.485 228.836 135.78 228.377C136.086 227.918 136.239 227.394 136.239 226.803ZM160.074 218.984V222.525H147.517V218.984H160.074ZM148.747 209.132V233H144.239V209.132H148.747ZM163.418 209.132V233H158.91V209.132H163.418ZM177.156 222.361H171.058L171.025 219.181H176.254C177.15 219.181 177.899 219.055 178.5 218.804C179.101 218.552 179.555 218.186 179.861 217.705C180.177 217.224 180.336 216.64 180.336 215.951C180.336 215.186 180.188 214.563 179.893 214.082C179.609 213.602 179.161 213.252 178.549 213.033C177.937 212.804 177.161 212.689 176.221 212.689H172.517V233H168.008V209.132H176.221C177.576 209.132 178.784 209.263 179.844 209.525C180.915 209.777 181.822 210.17 182.565 210.706C183.309 211.241 183.871 211.913 184.254 212.722C184.647 213.531 184.844 214.492 184.844 215.607C184.844 216.591 184.615 217.498 184.156 218.328C183.707 219.148 183.013 219.815 182.074 220.328C181.145 220.842 179.964 221.137 178.533 221.213L177.156 222.361ZM176.959 233H169.73L171.615 229.459H176.959C177.855 229.459 178.593 229.312 179.172 229.017C179.762 228.721 180.199 228.317 180.483 227.803C180.779 227.279 180.926 226.678 180.926 226C180.926 225.257 180.795 224.612 180.533 224.066C180.281 223.519 179.877 223.099 179.32 222.804C178.773 222.508 178.052 222.361 177.156 222.361H172.467L172.5 219.181H178.467L179.5 220.41C180.877 220.421 181.997 220.694 182.86 221.23C183.735 221.765 184.38 222.454 184.795 223.295C185.21 224.137 185.418 225.044 185.418 226.017C185.418 227.547 185.084 228.831 184.418 229.869C183.762 230.907 182.8 231.689 181.533 232.213C180.276 232.738 178.751 233 176.959 233ZM208.647 220.459V221.689C208.647 223.492 208.406 225.115 207.925 226.558C207.444 227.989 206.761 229.208 205.876 230.213C204.991 231.219 203.936 231.989 202.712 232.525C201.488 233.06 200.128 233.328 198.631 233.328C197.155 233.328 195.8 233.06 194.565 232.525C193.341 231.989 192.281 231.219 191.385 230.213C190.489 229.208 189.795 227.989 189.303 226.558C188.811 225.115 188.565 223.492 188.565 221.689V220.459C188.565 218.645 188.811 217.022 189.303 215.591C189.795 214.159 190.483 212.94 191.368 211.935C192.254 210.919 193.308 210.143 194.532 209.607C195.767 209.072 197.122 208.804 198.598 208.804C200.095 208.804 201.456 209.072 202.68 209.607C203.904 210.143 204.958 210.919 205.843 211.935C206.74 212.94 207.428 214.159 207.909 215.591C208.401 217.022 208.647 218.645 208.647 220.459ZM204.089 221.689V220.427C204.089 219.126 203.969 217.984 203.729 217C203.488 216.006 203.133 215.17 202.663 214.492C202.193 213.815 201.614 213.307 200.926 212.968C200.237 212.618 199.461 212.443 198.598 212.443C197.723 212.443 196.948 212.618 196.27 212.968C195.603 213.307 195.035 213.815 194.565 214.492C194.095 215.17 193.734 216.006 193.483 217C193.243 217.984 193.122 219.126 193.122 220.427V221.689C193.122 222.978 193.243 224.12 193.483 225.115C193.734 226.109 194.095 226.951 194.565 227.639C195.046 228.317 195.625 228.831 196.303 229.18C196.98 229.53 197.756 229.705 198.631 229.705C199.505 229.705 200.281 229.53 200.958 229.18C201.636 228.831 202.204 228.317 202.663 227.639C203.133 226.951 203.488 226.109 203.729 225.115C203.969 224.12 204.089 222.978 204.089 221.689ZM221.597 212.755L214.794 233H210.024L218.941 209.132H221.991L221.597 212.755ZM227.286 233L220.45 212.755L220.04 209.132H223.105L232.072 233H227.286ZM226.974 224.131V227.689H214.171V224.131H226.974ZM234.531 209.132H243.203C245.017 209.132 246.575 209.405 247.875 209.951C249.176 210.498 250.176 211.307 250.875 212.378C251.574 213.449 251.924 214.766 251.924 216.328C251.924 217.563 251.706 218.634 251.268 219.541C250.831 220.448 250.214 221.208 249.416 221.82C248.629 222.432 247.7 222.913 246.629 223.263L245.219 223.984H237.564L237.531 220.427H243.252C244.181 220.427 244.952 220.263 245.564 219.935C246.176 219.607 246.635 219.153 246.941 218.574C247.258 217.995 247.416 217.334 247.416 216.591C247.416 215.793 247.263 215.104 246.957 214.525C246.651 213.935 246.187 213.481 245.564 213.164C244.941 212.848 244.154 212.689 243.203 212.689H239.039V233H234.531V209.132ZM248.006 233L242.482 222.312L247.252 222.295L252.842 232.77V233H248.006ZM263.006 233H257.858L257.891 229.459H263.006C264.394 229.459 265.558 229.153 266.498 228.541C267.437 227.918 268.148 227.027 268.629 225.869C269.109 224.7 269.35 223.301 269.35 221.672V220.443C269.35 219.186 269.213 218.077 268.94 217.115C268.667 216.153 268.263 215.345 267.727 214.689C267.202 214.033 266.552 213.536 265.776 213.197C265 212.858 264.11 212.689 263.104 212.689H257.76V209.132H263.104C264.7 209.132 266.153 209.4 267.465 209.935C268.787 210.471 269.929 211.241 270.891 212.246C271.864 213.241 272.607 214.432 273.12 215.82C273.645 217.208 273.907 218.76 273.907 220.476V221.672C273.907 223.377 273.645 224.929 273.12 226.328C272.607 227.716 271.864 228.907 270.891 229.902C269.929 230.896 268.782 231.661 267.448 232.197C266.115 232.732 264.634 233 263.006 233ZM260.383 209.132V233H255.875V209.132H260.383Z" fill="#003E9C"/>
<g opacity="0.12" filter="url(#filter0_d_1699_2327)">
<path d="M67.4663 0H1.00015L1 271L165.798 210.184L207.882 248.192L201.103 200.412L232.304 185.212L201.103 0L67.4663 0ZM20.614 69.8766L49.9445 65.9925L69.5182 63.403L109.108 58.1888L165.074 50.7929L166.924 63.7932L114.298 72.5015L73.8434 79.1701H73.8232L51.9964 82.7882L29.9281 86.4418L29.4654 86.5127L23.1286 87.5769L20.614 69.8766ZM87.6838 120.441L67.4663 123.793L44.352 127.606L29.1637 130.125L26.6491 112.407L63.5435 107.53L85.3905 104.639L124.035 99.5308L171.109 93.3055L172.959 106.324L129.125 113.577L87.6838 120.441ZM143.508 153.536L101.202 161.978H101.182L84.3645 165.313L57.6895 170.633H57.609L36.0034 174.943L33.7101 162.528L32.7445 157.332L76.9414 150.024L101.162 146.016L138.56 139.826L176.319 133.583L178.693 146.531L143.508 153.536Z" fill="#003E9C"/>
</g>
<defs>
<filter id="filter0_d_1699_2327" x="0.215589" y="0" width="232.873" height="272.569" filterUnits="userSpaceOnUse" color-interpolation-filters="sRGB">
<feFlood flood-opacity="0" result="BackgroundImageFix"/>
<feColorMatrix in="SourceAlpha" type="matrix" values="0 0 0 0 0 0 0 0 0 0 0 0 0 0 0 0 0 0 127 0" result="hardAlpha"/>
<feOffset dy="0.784411"/>
<feGaussianBlur stdDeviation="0.392206"/>
<feComposite in2="hardAlpha" operator="out"/>
<feColorMatrix type="matrix" values="0 0 0 0 0 0 0 0 0 0 0 0 0 0 0 0 0 0 0.25 0"/>
<feBlend mode="normal" in2="BackgroundImageFix" result="effect1_dropShadow_1699_2327"/>
<feBlend mode="normal" in="SourceGraphic" in2="effect1_dropShadow_1699_2327" result="shape"/>
</filter>
</defs>
</svg>
