<svg width="356" height="404" viewBox="0 0 356 404" fill="none" xmlns="http://www.w3.org/2000/svg">
<path d="M4.5 4.54001C4.5 2.30878 6.30877 0.5 8.54 0.5H349.46C351.691 0.5 353.5 2.30877 353.5 4.54V328.959C353.5 329.959 353.129 330.924 352.459 331.666L289.481 401.417C288.715 402.266 287.625 402.75 286.482 402.75H8.54C6.30877 402.75 4.5 400.941 4.5 398.71V4.54001Z" fill="white" stroke="#003E9C"/>
<path d="M353 386.375V401.375H336.5" stroke="white" stroke-width="4.5" stroke-linecap="round"/>
<path d="M349.508 401.439L351.072 403.057L354.307 399.928L352.742 398.311L349.508 401.439ZM330.617 375.436C329.753 374.543 328.329 374.519 327.436 375.383C326.543 376.247 326.519 377.671 327.383 378.564L330.617 375.436ZM352.742 398.311L330.617 375.436L327.383 378.564L349.508 401.439L352.742 398.311Z" fill="white"/>
<path d="M103.977 169.132H112.649C114.464 169.132 116.021 169.405 117.321 169.951C118.622 170.498 119.622 171.307 120.321 172.378C121.021 173.449 121.37 174.766 121.37 176.328C121.37 177.563 121.152 178.634 120.715 179.541C120.278 180.448 119.66 181.208 118.862 181.82C118.075 182.432 117.147 182.913 116.076 183.263L114.666 183.984H107.01L106.977 180.427H112.699C113.627 180.427 114.398 180.263 115.01 179.935C115.622 179.607 116.081 179.153 116.387 178.574C116.704 177.995 116.862 177.334 116.862 176.591C116.862 175.793 116.709 175.104 116.403 174.525C116.097 173.935 115.633 173.481 115.01 173.164C114.387 172.848 113.6 172.689 112.649 172.689H108.486V193H103.977V169.132ZM117.453 193L111.928 182.312L116.698 182.295L122.288 192.77V193H117.453ZM141.14 189.459V193H128.452V189.459H141.14ZM129.829 169.132V193H125.321V169.132H129.829ZM139.485 178.984V182.443H128.452V178.984H139.485ZM141.091 169.132V172.689H128.452V169.132H141.091ZM153.763 172.755L146.96 193H142.19L151.107 169.132H154.156L153.763 172.755ZM159.451 193L152.615 172.755L152.206 169.132H155.271L164.238 193H159.451ZM159.14 184.131V187.689H146.337V184.131H159.14ZM181.844 189.459V193H169.845V189.459H181.844ZM171.205 169.132V193H166.697V169.132H171.205ZM191.172 169.132V193H186.68V169.132H191.172ZM198.581 169.132V172.689H179.352V169.132H198.581ZM206.385 169.132V193H201.876V169.132H206.385ZM213.22 169.132H217.122L223.646 187.099L230.154 169.132H234.072L225.204 193H222.073L213.22 169.132ZM211.253 169.132H215.073L215.761 185.64V193H211.253V169.132ZM232.203 169.132H236.039V193H231.531V185.64L232.203 169.132ZM256.449 189.459V193H243.761V189.459H256.449ZM245.138 169.132V193H240.629V169.132H245.138ZM254.793 178.984V182.443H243.761V178.984H254.793ZM256.4 169.132V172.689H243.761V169.132H256.4ZM78.7159 209.132V233H74.1914L64.0442 216.443V233H59.5361V209.132H64.0442L74.2242 225.705V209.132H78.7159ZM102.633 220.459V221.689C102.633 223.492 102.393 225.115 101.912 226.558C101.431 227.989 100.748 229.208 99.8628 230.213C98.9776 231.219 97.923 231.989 96.699 232.525C95.475 233.06 94.1144 233.328 92.6171 233.328C91.1418 233.328 89.7866 233.06 88.5517 232.525C87.3277 231.989 86.2676 231.219 85.3714 230.213C84.4753 229.208 83.7813 227.989 83.2895 226.558C82.7977 225.115 82.5518 223.492 82.5518 221.689V220.459C82.5518 218.645 82.7977 217.022 83.2895 215.591C83.7813 214.159 84.4698 212.94 85.355 211.935C86.2403 210.919 87.2949 210.143 88.5189 209.607C89.7538 209.072 91.109 208.804 92.5844 208.804C94.0816 208.804 95.4422 209.072 96.6662 209.607C97.8902 210.143 98.9448 210.919 99.8301 211.935C100.726 212.94 101.415 214.159 101.896 215.591C102.387 217.022 102.633 218.645 102.633 220.459ZM98.076 221.689V220.427C98.076 219.126 97.9558 217.984 97.7154 217C97.4749 216.006 97.1197 215.17 96.6498 214.492C96.1799 213.815 95.6007 213.307 94.9122 212.968C94.2237 212.618 93.4477 212.443 92.5844 212.443C91.7101 212.443 90.9341 212.618 90.2565 212.968C89.5899 213.307 89.0216 213.815 88.5517 214.492C88.0817 215.17 87.7211 216.006 87.4697 217C87.2293 217.984 87.1091 219.126 87.1091 220.427V221.689C87.1091 222.978 87.2293 224.12 87.4697 225.115C87.7211 226.109 88.0817 226.951 88.5517 227.639C89.0325 228.317 89.6118 228.831 90.2893 229.18C90.9669 229.53 91.7428 229.705 92.6171 229.705C93.4914 229.705 94.2674 229.53 94.9449 229.18C95.6225 228.831 96.1908 228.317 96.6498 227.639C97.1197 226.951 97.4749 226.109 97.7154 225.115C97.9558 224.12 98.076 222.978 98.076 221.689ZM115.748 209.132V233H111.256V209.132H115.748ZM123.157 209.132V212.689H103.928V209.132H123.157ZM130.96 209.132V233H126.452V209.132H130.96ZM140.337 209.132V233H135.829V209.132H140.337ZM149.96 219.443V223H139.157V219.443H149.96ZM151.222 209.132V212.689H139.157V209.132H151.222ZM159.091 209.132V233H154.583V209.132H159.091ZM177.926 225.148H182.434C182.314 226.743 181.872 228.159 181.107 229.394C180.342 230.618 179.276 231.579 177.91 232.279C176.544 232.978 174.888 233.328 172.943 233.328C171.446 233.328 170.096 233.066 168.894 232.541C167.703 232.005 166.681 231.246 165.828 230.262C164.987 229.268 164.342 228.077 163.894 226.689C163.446 225.29 163.222 223.722 163.222 221.984V220.164C163.222 218.427 163.451 216.858 163.91 215.459C164.369 214.061 165.025 212.869 165.877 211.886C166.741 210.891 167.774 210.126 168.976 209.591C170.189 209.055 171.544 208.788 173.041 208.788C174.986 208.788 176.631 209.148 177.975 209.869C179.32 210.58 180.363 211.558 181.107 212.804C181.85 214.05 182.298 215.481 182.451 217.099H177.943C177.855 216.093 177.637 215.241 177.287 214.541C176.948 213.842 176.435 213.312 175.746 212.951C175.068 212.58 174.167 212.394 173.041 212.394C172.167 212.394 171.396 212.558 170.73 212.886C170.074 213.214 169.528 213.705 169.09 214.361C168.653 215.006 168.325 215.815 168.107 216.787C167.888 217.749 167.779 218.864 167.779 220.132V221.984C167.779 223.197 167.877 224.284 168.074 225.246C168.271 226.208 168.577 227.022 168.992 227.689C169.407 228.355 169.943 228.864 170.599 229.213C171.254 229.563 172.036 229.738 172.943 229.738C174.047 229.738 174.943 229.563 175.631 229.213C176.331 228.864 176.861 228.35 177.221 227.672C177.593 226.995 177.828 226.153 177.926 225.148ZM195.418 212.755L188.615 233H183.844L192.762 209.132H195.811L195.418 212.755ZM201.106 233L194.27 212.755L193.86 209.132H196.926L205.893 233H201.106ZM200.795 224.131V227.689H187.992V224.131H200.795ZM216.532 209.132V233H212.04V209.132H216.532ZM223.941 209.132V212.689H204.712V209.132H223.941ZM231.744 209.132V233H227.236V209.132H231.744ZM255.941 220.459V221.689C255.941 223.492 255.7 225.115 255.219 226.558C254.738 227.989 254.055 229.208 253.17 230.213C252.285 231.219 251.23 231.989 250.006 232.525C248.782 233.06 247.422 233.328 245.924 233.328C244.449 233.328 243.094 233.06 241.859 232.525C240.635 231.989 239.575 231.219 238.679 230.213C237.783 229.208 237.089 227.989 236.597 226.558C236.105 225.115 235.859 223.492 235.859 221.689V220.459C235.859 218.645 236.105 217.022 236.597 215.591C237.089 214.159 237.777 212.94 238.662 211.935C239.548 210.919 240.602 210.143 241.826 209.607C243.061 209.072 244.416 208.804 245.892 208.804C247.389 208.804 248.749 209.072 249.973 209.607C251.197 210.143 252.252 210.919 253.137 211.935C254.033 212.94 254.722 214.159 255.203 215.591C255.695 217.022 255.941 218.645 255.941 220.459ZM251.383 221.689V220.427C251.383 219.126 251.263 217.984 251.023 217C250.782 216.006 250.427 215.17 249.957 214.492C249.487 213.815 248.908 213.307 248.219 212.968C247.531 212.618 246.755 212.443 245.892 212.443C245.017 212.443 244.241 212.618 243.564 212.968C242.897 213.307 242.329 213.815 241.859 214.492C241.389 215.17 241.028 216.006 240.777 217C240.537 217.984 240.416 219.126 240.416 220.427V221.689C240.416 222.978 240.537 224.12 240.777 225.115C241.028 226.109 241.389 226.951 241.859 227.639C242.34 228.317 242.919 228.831 243.597 229.18C244.274 229.53 245.05 229.705 245.924 229.705C246.799 229.705 247.575 229.53 248.252 229.18C248.93 228.831 249.498 228.317 249.957 227.639C250.427 226.951 250.782 226.109 251.023 225.115C251.263 224.12 251.383 222.978 251.383 221.689ZM278.94 209.132V233H274.415L264.268 216.443V233H259.76V209.132H264.268L274.448 225.705V209.132H278.94ZM296.021 226.803C296.021 226.344 295.95 225.935 295.808 225.574C295.677 225.202 295.431 224.869 295.071 224.574C294.721 224.268 294.224 223.973 293.579 223.689C292.945 223.394 292.125 223.088 291.12 222.771C290.005 222.421 288.967 222.028 288.005 221.59C287.044 221.153 286.197 220.645 285.464 220.066C284.743 219.487 284.18 218.82 283.776 218.066C283.371 217.301 283.169 216.416 283.169 215.41C283.169 214.427 283.377 213.531 283.792 212.722C284.218 211.913 284.82 211.219 285.595 210.64C286.371 210.05 287.284 209.596 288.333 209.279C289.393 208.962 290.563 208.804 291.841 208.804C293.612 208.804 295.142 209.126 296.431 209.771C297.732 210.416 298.737 211.29 299.448 212.394C300.158 213.498 300.513 214.738 300.513 216.115H296.021C296.021 215.372 295.863 214.716 295.546 214.148C295.24 213.58 294.77 213.132 294.136 212.804C293.513 212.476 292.726 212.312 291.776 212.312C290.858 212.312 290.093 212.449 289.481 212.722C288.88 212.995 288.426 213.367 288.12 213.837C287.825 214.307 287.677 214.831 287.677 215.41C287.677 215.847 287.781 216.241 287.989 216.591C288.196 216.929 288.508 217.252 288.923 217.558C289.339 217.853 289.852 218.132 290.464 218.394C291.087 218.645 291.808 218.897 292.628 219.148C293.939 219.541 295.087 219.978 296.071 220.459C297.065 220.94 297.89 221.487 298.546 222.099C299.213 222.711 299.71 223.399 300.038 224.164C300.376 224.929 300.546 225.798 300.546 226.771C300.546 227.798 300.344 228.716 299.939 229.525C299.535 230.333 298.956 231.022 298.202 231.59C297.448 232.158 296.541 232.59 295.48 232.885C294.431 233.18 293.256 233.328 291.956 233.328C290.797 233.328 289.65 233.175 288.513 232.869C287.388 232.552 286.366 232.082 285.448 231.459C284.53 230.825 283.798 230.027 283.251 229.066C282.705 228.093 282.432 226.956 282.432 225.656H286.956C286.956 226.41 287.076 227.055 287.317 227.59C287.568 228.115 287.918 228.547 288.366 228.885C288.825 229.213 289.36 229.454 289.972 229.607C290.584 229.76 291.246 229.836 291.956 229.836C292.874 229.836 293.628 229.71 294.218 229.459C294.819 229.197 295.267 228.836 295.562 228.377C295.868 227.918 296.021 227.394 296.021 226.803Z" fill="#003E9C"/>
<g opacity="0.12" filter="url(#filter0_d_1699_2356)">
<path d="M67.4663 0H1.00015L1 271L165.798 210.184L207.882 248.192L201.103 200.412L232.304 185.212L201.103 0L67.4663 0ZM20.614 69.8766L49.9445 65.9925L69.5182 63.403L109.108 58.1888L165.074 50.7929L166.924 63.7932L114.298 72.5015L73.8434 79.1701H73.8232L51.9964 82.7882L29.9281 86.4418L29.4654 86.5127L23.1286 87.5769L20.614 69.8766ZM87.6838 120.441L67.4663 123.793L44.352 127.606L29.1637 130.125L26.6491 112.407L63.5435 107.53L85.3905 104.639L124.035 99.5308L171.109 93.3055L172.959 106.324L129.125 113.577L87.6838 120.441ZM143.508 153.536L101.202 161.978H101.182L84.3645 165.313L57.6895 170.633H57.609L36.0034 174.943L33.7101 162.528L32.7445 157.332L76.9414 150.024L101.162 146.016L138.56 139.826L176.319 133.583L178.693 146.531L143.508 153.536Z" fill="#003E9C"/>
</g>
<defs>
<filter id="filter0_d_1699_2356" x="0.215589" y="0" width="232.873" height="272.569" filterUnits="userSpaceOnUse" color-interpolation-filters="sRGB">
<feFlood flood-opacity="0" result="BackgroundImageFix"/>
<feColorMatrix in="SourceAlpha" type="matrix" values="0 0 0 0 0 0 0 0 0 0 0 0 0 0 0 0 0 0 127 0" result="hardAlpha"/>
<feOffset dy="0.784411"/>
<feGaussianBlur stdDeviation="0.392206"/>
<feComposite in2="hardAlpha" operator="out"/>
<feColorMatrix type="matrix" values="0 0 0 0 0 0 0 0 0 0 0 0 0 0 0 0 0 0 0.25 0"/>
<feBlend mode="normal" in2="BackgroundImageFix" result="effect1_dropShadow_1699_2356"/>
<feBlend mode="normal" in="SourceGraphic" in2="effect1_dropShadow_1699_2356" result="shape"/>
</filter>
</defs>
</svg>
