<svg width="353" height="404" viewBox="0 0 353 404" fill="none" xmlns="http://www.w3.org/2000/svg">
<path d="M1.5 4.54001C1.5 2.30878 3.30877 0.5 5.54 0.5H346.46C348.691 0.5 350.5 2.30877 350.5 4.54V328.959C350.5 329.959 350.129 330.924 349.459 331.666L286.481 401.417C285.715 402.266 284.625 402.75 283.482 402.75H5.54C3.30877 402.75 1.5 400.941 1.5 398.71V4.54001Z" fill="white" stroke="#003E9C"/>
<path d="M350 386.375V401.375H333.5" stroke="white" stroke-width="4.5" stroke-linecap="round"/>
<path d="M346.508 401.439L348.072 403.057L351.307 399.928L349.742 398.311L346.508 401.439ZM327.617 375.436C326.753 374.543 325.329 374.519 324.436 375.383C323.543 376.247 323.519 377.671 324.383 378.564L327.617 375.436ZM349.742 398.311L327.617 375.436L324.383 378.564L346.508 401.439L349.742 398.311Z" fill="white"/>
<path d="M92.9449 188.426L97.6989 169.132H100.273L100.437 173.197L95.3547 193H92.6335L92.9449 188.426ZM89.945 169.132L93.8465 188.361V193H90.8794L85.4697 169.132H89.945ZM105.371 188.279L109.207 169.132H113.698L108.289 193H105.322L105.371 188.279ZM101.502 169.132L106.256 188.492L106.535 193H103.813L98.748 173.181L98.9448 169.132H101.502ZM135.878 180.459V181.689C135.878 183.492 135.638 185.115 135.157 186.558C134.676 187.989 133.993 189.208 133.108 190.213C132.223 191.219 131.168 191.989 129.944 192.525C128.72 193.06 127.359 193.328 125.862 193.328C124.387 193.328 123.032 193.06 121.797 192.525C120.573 191.989 119.512 191.219 118.616 190.213C117.72 189.208 117.026 187.989 116.534 186.558C116.043 185.115 115.797 183.492 115.797 181.689V180.459C115.797 178.645 116.043 177.022 116.534 175.591C117.026 174.159 117.715 172.94 118.6 171.935C119.485 170.919 120.54 170.143 121.764 169.607C122.999 169.072 124.354 168.804 125.829 168.804C127.326 168.804 128.687 169.072 129.911 169.607C131.135 170.143 132.19 170.919 133.075 171.935C133.971 172.94 134.66 174.159 135.14 175.591C135.632 177.022 135.878 178.645 135.878 180.459ZM131.321 181.689V180.427C131.321 179.126 131.201 177.984 130.96 177C130.72 176.006 130.365 175.17 129.895 174.492C129.425 173.815 128.846 173.307 128.157 172.968C127.469 172.618 126.693 172.443 125.829 172.443C124.955 172.443 124.179 172.618 123.501 172.968C122.835 173.307 122.267 173.815 121.797 174.492C121.327 175.17 120.966 176.006 120.715 177C120.474 177.984 120.354 179.126 120.354 180.427V181.689C120.354 182.978 120.474 184.12 120.715 185.115C120.966 186.109 121.327 186.951 121.797 187.639C122.277 188.317 122.857 188.831 123.534 189.18C124.212 189.53 124.988 189.705 125.862 189.705C126.736 189.705 127.512 189.53 128.19 189.18C128.867 188.831 129.436 188.317 129.895 187.639C130.365 186.951 130.72 186.109 130.96 185.115C131.201 184.12 131.321 182.978 131.321 181.689ZM139.698 169.132H148.37C150.184 169.132 151.741 169.405 153.042 169.951C154.342 170.498 155.342 171.307 156.042 172.378C156.741 173.449 157.091 174.766 157.091 176.328C157.091 177.563 156.872 178.634 156.435 179.541C155.998 180.448 155.38 181.208 154.583 181.82C153.796 182.432 152.867 182.913 151.796 183.263L150.386 183.984H142.73L142.698 180.427H148.419C149.348 180.427 150.118 180.263 150.73 179.935C151.342 179.607 151.801 179.153 152.107 178.574C152.424 177.995 152.583 177.334 152.583 176.591C152.583 175.793 152.43 175.104 152.124 174.525C151.818 173.935 151.353 173.481 150.73 173.164C150.107 172.848 149.32 172.689 148.37 172.689H144.206V193H139.698V169.132ZM153.173 193L147.648 182.312L152.419 182.295L158.009 192.77V193H153.173ZM165.549 169.132V193H161.041V169.132H165.549ZM179.877 169.132L170.303 180.771L164.828 186.623L164.025 182.246L167.828 177.312L174.353 169.132H179.877ZM174.861 193L167.435 181.82L170.664 178.902L180.221 193H174.861ZM186.828 169.132V193H182.32V169.132H186.828ZM196.45 179.443V183H185.647V179.443H196.45ZM197.713 169.132V172.689H185.647V169.132H197.713ZM215.925 189.459V193H203.925V189.459H215.925ZM205.286 169.132V193H200.778V169.132H205.286ZM237.187 180.459V181.689C237.187 183.492 236.946 185.115 236.466 186.558C235.985 187.989 235.302 189.208 234.416 190.213C233.531 191.219 232.477 191.989 231.253 192.525C230.029 193.06 228.668 193.328 227.171 193.328C225.695 193.328 224.34 193.06 223.105 192.525C221.881 191.989 220.821 191.219 219.925 190.213C219.029 189.208 218.335 187.989 217.843 186.558C217.351 185.115 217.105 183.492 217.105 181.689V180.459C217.105 178.645 217.351 177.022 217.843 175.591C218.335 174.159 219.023 172.94 219.909 171.935C220.794 170.919 221.848 170.143 223.072 169.607C224.307 169.072 225.663 168.804 227.138 168.804C228.635 168.804 229.996 169.072 231.22 169.607C232.444 170.143 233.498 170.919 234.384 171.935C235.28 172.94 235.968 174.159 236.449 175.591C236.941 177.022 237.187 178.645 237.187 180.459ZM232.63 181.689V180.427C232.63 179.126 232.509 177.984 232.269 177C232.029 176.006 231.673 175.17 231.203 174.492C230.733 173.815 230.154 173.307 229.466 172.968C228.777 172.618 228.001 172.443 227.138 172.443C226.264 172.443 225.488 172.618 224.81 172.968C224.144 173.307 223.575 173.815 223.105 174.492C222.635 175.17 222.275 176.006 222.023 177C221.783 177.984 221.663 179.126 221.663 180.427V181.689C221.663 182.978 221.783 184.12 222.023 185.115C222.275 186.109 222.635 186.951 223.105 187.639C223.586 188.317 224.165 188.831 224.843 189.18C225.521 189.53 226.296 189.705 227.171 189.705C228.045 189.705 228.821 189.53 229.499 189.18C230.176 188.831 230.744 188.317 231.203 187.639C231.673 186.951 232.029 186.109 232.269 185.115C232.509 184.12 232.63 182.978 232.63 181.689ZM246.875 188.426L251.629 169.132H254.203L254.367 173.197L249.285 193H246.564L246.875 188.426ZM243.875 169.132L247.777 188.361V193H244.81L239.4 169.132H243.875ZM259.301 188.279L263.137 169.132H267.629L262.219 193H259.252L259.301 188.279ZM255.432 169.132L260.186 188.492L260.465 193H257.744L252.678 173.181L252.875 169.132H255.432ZM136.501 226.803C136.501 226.344 136.43 225.935 136.288 225.574C136.157 225.202 135.911 224.869 135.55 224.574C135.201 224.268 134.703 223.973 134.059 223.689C133.425 223.394 132.605 223.088 131.6 222.771C130.485 222.421 129.447 222.028 128.485 221.59C127.523 221.153 126.676 220.645 125.944 220.066C125.223 219.487 124.66 218.82 124.256 218.066C123.851 217.301 123.649 216.416 123.649 215.41C123.649 214.427 123.857 213.531 124.272 212.722C124.698 211.913 125.299 211.219 126.075 210.64C126.851 210.05 127.764 209.596 128.813 209.279C129.873 208.962 131.042 208.804 132.321 208.804C134.091 208.804 135.621 209.126 136.911 209.771C138.211 210.416 139.217 211.29 139.927 212.394C140.638 213.498 140.993 214.738 140.993 216.115H136.501C136.501 215.372 136.343 214.716 136.026 214.148C135.72 213.58 135.25 213.132 134.616 212.804C133.993 212.476 133.206 212.312 132.255 212.312C131.337 212.312 130.572 212.449 129.96 212.722C129.359 212.995 128.906 213.367 128.6 213.837C128.305 214.307 128.157 214.831 128.157 215.41C128.157 215.847 128.261 216.241 128.469 216.591C128.676 216.929 128.988 217.252 129.403 217.558C129.818 217.853 130.332 218.132 130.944 218.394C131.567 218.645 132.288 218.897 133.108 219.148C134.419 219.541 135.567 219.978 136.55 220.459C137.545 220.94 138.37 221.487 139.026 222.099C139.692 222.711 140.19 223.399 140.517 224.164C140.856 224.929 141.026 225.798 141.026 226.771C141.026 227.798 140.823 228.716 140.419 229.525C140.015 230.333 139.435 231.022 138.681 231.59C137.927 232.158 137.02 232.59 135.96 232.885C134.911 233.18 133.736 233.328 132.436 233.328C131.277 233.328 130.13 233.175 128.993 232.869C127.867 232.552 126.846 232.082 125.928 231.459C125.01 230.825 124.277 230.027 123.731 229.066C123.185 228.093 122.911 226.956 122.911 225.656H127.436C127.436 226.41 127.556 227.055 127.796 227.59C128.048 228.115 128.397 228.547 128.846 228.885C129.305 229.213 129.84 229.454 130.452 229.607C131.064 229.76 131.725 229.836 132.436 229.836C133.354 229.836 134.108 229.71 134.698 229.459C135.299 229.197 135.747 228.836 136.042 228.377C136.348 227.918 136.501 227.394 136.501 226.803ZM154.746 209.132V233H150.255V209.132H154.746ZM162.156 209.132V212.689H142.927V209.132H162.156ZM178.434 209.132H182.942V224.984C182.942 226.809 182.549 228.344 181.762 229.59C180.975 230.825 179.904 231.76 178.549 232.393C177.194 233.016 175.653 233.328 173.926 233.328C172.178 233.328 170.62 233.016 169.254 232.393C167.888 231.76 166.817 230.825 166.041 229.59C165.265 228.344 164.877 226.809 164.877 224.984V209.132H169.385V224.984C169.385 226.099 169.571 227.011 169.943 227.721C170.314 228.421 170.839 228.94 171.517 229.279C172.194 229.618 172.997 229.787 173.926 229.787C174.866 229.787 175.669 229.618 176.336 229.279C177.014 228.94 177.533 228.421 177.893 227.721C178.254 227.011 178.434 226.099 178.434 224.984V209.132ZM194.352 233H189.205L189.237 229.459H194.352C195.74 229.459 196.904 229.153 197.844 228.541C198.784 227.918 199.494 227.027 199.975 225.869C200.456 224.7 200.696 223.301 200.696 221.672V220.443C200.696 219.186 200.559 218.077 200.286 217.115C200.013 216.153 199.609 215.345 199.073 214.689C198.549 214.033 197.898 213.536 197.122 213.197C196.346 212.858 195.456 212.689 194.45 212.689H189.106V209.132H194.45C196.046 209.132 197.499 209.4 198.811 209.935C200.133 210.471 201.275 211.241 202.237 212.246C203.21 213.241 203.953 214.432 204.466 215.82C204.991 217.208 205.253 218.76 205.253 220.476V221.672C205.253 223.377 204.991 224.929 204.466 226.328C203.953 227.716 203.21 228.907 202.237 229.902C201.275 230.896 200.128 231.661 198.794 232.197C197.461 232.732 195.98 233 194.352 233ZM191.729 209.132V233H187.221V209.132H191.729ZM213.892 209.132V233H209.384V209.132H213.892ZM238.088 220.459V221.689C238.088 223.492 237.848 225.115 237.367 226.558C236.886 227.989 236.203 229.208 235.318 230.213C234.433 231.219 233.378 231.989 232.154 232.525C230.93 233.06 229.57 233.328 228.072 233.328C226.597 233.328 225.242 233.06 224.007 232.525C222.783 231.989 221.723 231.219 220.827 230.213C219.931 229.208 219.237 227.989 218.745 226.558C218.253 225.115 218.007 223.492 218.007 221.689V220.459C218.007 218.645 218.253 217.022 218.745 215.591C219.237 214.159 219.925 212.94 220.81 211.935C221.695 210.919 222.75 210.143 223.974 209.607C225.209 209.072 226.564 208.804 228.04 208.804C229.537 208.804 230.897 209.072 232.121 209.607C233.345 210.143 234.4 210.919 235.285 211.935C236.181 212.94 236.87 214.159 237.351 215.591C237.843 217.022 238.088 218.645 238.088 220.459ZM233.531 221.689V220.427C233.531 219.126 233.411 217.984 233.171 217C232.93 216.006 232.575 215.17 232.105 214.492C231.635 213.815 231.056 213.307 230.367 212.968C229.679 212.618 228.903 212.443 228.04 212.443C227.165 212.443 226.389 212.618 225.712 212.968C225.045 213.307 224.477 213.815 224.007 214.492C223.537 215.17 223.176 216.006 222.925 217C222.685 217.984 222.564 219.126 222.564 220.427V221.689C222.564 222.978 222.685 224.12 222.925 225.115C223.176 226.109 223.537 226.951 224.007 227.639C224.488 228.317 225.067 228.831 225.745 229.18C226.422 229.53 227.198 229.705 228.072 229.705C228.947 229.705 229.723 229.53 230.4 229.18C231.078 228.831 231.646 228.317 232.105 227.639C232.575 226.951 232.93 226.109 233.171 225.115C233.411 224.12 233.531 222.978 233.531 221.689Z" fill="#003E9C"/>
<g opacity="0.12" filter="url(#filter0_d_1699_2385)">
<path d="M67.4663 0H1.00015L1 271L165.798 210.184L207.882 248.192L201.103 200.412L232.304 185.212L201.103 0L67.4663 0ZM20.614 69.8766L49.9445 65.9925L69.5182 63.403L109.108 58.1888L165.074 50.7929L166.924 63.7932L114.298 72.5015L73.8434 79.1701H73.8232L51.9964 82.7882L29.9281 86.4418L29.4654 86.5127L23.1286 87.5769L20.614 69.8766ZM87.6838 120.441L67.4663 123.793L44.352 127.606L29.1637 130.125L26.6491 112.407L63.5435 107.53L85.3905 104.639L124.035 99.5308L171.109 93.3055L172.959 106.324L129.125 113.577L87.6838 120.441ZM143.508 153.536L101.202 161.978H101.182L84.3645 165.313L57.6895 170.633H57.609L36.0034 174.943L33.7101 162.528L32.7445 157.332L76.9414 150.024L101.162 146.016L138.56 139.826L176.319 133.583L178.693 146.531L143.508 153.536Z" fill="#003E9C"/>
</g>
<defs>
<filter id="filter0_d_1699_2385" x="0.215589" y="0" width="232.873" height="272.569" filterUnits="userSpaceOnUse" color-interpolation-filters="sRGB">
<feFlood flood-opacity="0" result="BackgroundImageFix"/>
<feColorMatrix in="SourceAlpha" type="matrix" values="0 0 0 0 0 0 0 0 0 0 0 0 0 0 0 0 0 0 127 0" result="hardAlpha"/>
<feOffset dy="0.784411"/>
<feGaussianBlur stdDeviation="0.392206"/>
<feComposite in2="hardAlpha" operator="out"/>
<feColorMatrix type="matrix" values="0 0 0 0 0 0 0 0 0 0 0 0 0 0 0 0 0 0 0.25 0"/>
<feBlend mode="normal" in2="BackgroundImageFix" result="effect1_dropShadow_1699_2385"/>
<feBlend mode="normal" in="SourceGraphic" in2="effect1_dropShadow_1699_2385" result="shape"/>
</filter>
</defs>
</svg>
